<?xml version="1.0" encoding="UTF-8"?>
<!DOCTYPE svg PUBLIC "-//W3C//DTD SVG 1.1//EN" "http://www.w3.org/Graphics/SVG/1.1/DTD/svg11.dtd">
<svg xmlns="http://www.w3.org/2000/svg" version="1.1" width="1725px" height="1118px" style="shape-rendering:geometricPrecision; text-rendering:geometricPrecision; image-rendering:optimizeQuality; fill-rule:evenodd; clip-rule:evenodd" xmlns:xlink="http://www.w3.org/1999/xlink">
<g><path style="opacity:0.983" fill="#94d1d5" d="M 719.5,115.5 C 733.504,115.333 747.504,115.5 761.5,116C 781.408,118.627 798.742,126.627 813.5,140C 825.154,150.312 835.321,161.812 844,174.5C 847.182,179.506 849.182,184.839 850,190.5C 841.901,184.405 834.401,177.572 827.5,170C 816.789,163.555 805.122,160.721 792.5,161.5C 765.122,162.121 741.122,171.288 720.5,189C 697.834,209.855 679.667,234.022 666,261.5C 653.041,285.419 641.707,310.085 632,335.5C 605.67,417.156 579.337,498.822 553,580.5C 540.324,615.852 525.99,650.519 510,684.5C 505.156,692.188 499.823,699.521 494,706.5C 479.493,720.561 462.66,724.061 443.5,717C 441.82,716.653 440.82,715.653 440.5,714C 454.509,681.975 467.342,649.475 479,616.5C 492.786,565.809 507.786,515.476 524,465.5C 538.47,409.62 554.803,354.287 573,299.5C 586.863,260.772 605.197,224.439 628,190.5C 647.39,162.773 671.557,140.273 700.5,123C 706.746,119.98 713.079,117.48 719.5,115.5 Z"/></g>
<g><path style="opacity:0.878" fill="#fe82aa" d="M 496.5,244.5 C 498.199,244.34 499.866,244.506 501.5,245C 504.373,248.577 506.873,252.411 509,256.5C 523.759,249.424 526.259,252.424 516.5,265.5C 519.565,268.963 521.565,272.963 522.5,277.5C 522.384,279.552 521.384,280.885 519.5,281.5C 513.392,280.068 507.392,278.568 501.5,277C 496.96,279.038 494.627,282.538 494.5,287.5C 492.955,288.452 491.288,288.785 489.5,288.5C 489.638,283.225 490.305,278.059 491.5,273C 488.167,271.667 484.833,270.333 481.5,269C 478.908,266.989 479.075,265.156 482,263.5C 485.693,262.541 489.193,261.208 492.5,259.5C 493.584,254.403 494.917,249.403 496.5,244.5 Z M 499.5,255.5 C 501.332,256.14 501.665,257.14 500.5,258.5C 499.614,257.675 499.281,256.675 499.5,255.5 Z M 500.5,263.5 C 507.81,263.787 508.31,265.787 502,269.5C 500.56,268.852 499.06,268.519 497.5,268.5C 497.31,266.041 498.31,264.374 500.5,263.5 Z M 509.5,270.5 C 511.983,270.73 512.483,271.397 511,272.5C 509.97,272.164 509.47,271.497 509.5,270.5 Z M 496.5,274.5 C 499.001,274.511 499.168,275.178 497,276.5C 496.536,275.906 496.369,275.239 496.5,274.5 Z"/></g>
<g><path style="opacity:0.888" fill="#87ccd0" d="M 385.5,328.5 C 387.167,328.5 388.833,328.5 390.5,328.5C 390.3,333.264 389.8,337.931 389,342.5C 392.914,344.54 396.748,346.707 400.5,349C 402.09,351.48 401.59,353.313 399,354.5C 396.667,353.5 394.333,352.5 392,351.5C 389.5,352.333 387,353.167 384.5,354C 382.735,359.96 380.568,365.793 378,371.5C 375.408,372.982 373.075,372.648 371,370.5C 369.1,366.797 367.6,362.963 366.5,359C 362.167,358.667 357.833,358.333 353.5,358C 352.14,356.062 352.473,354.396 354.5,353C 357.672,351.248 360.672,349.248 363.5,347C 359.445,341.864 358.112,336.197 359.5,330C 365.309,330.603 370.809,332.436 376,335.5C 379.62,333.704 382.787,331.37 385.5,328.5 Z M 367.5,340.5 C 368.497,339.287 369.497,339.454 370.5,341C 369.281,342.795 368.281,342.628 367.5,340.5 Z M 376.5,343.5 C 380.907,343.907 381.574,345.907 378.5,349.5C 376.809,351.256 374.809,351.756 372.5,351C 371.483,349.951 371.316,348.784 372,347.5C 373.397,345.93 374.897,344.596 376.5,343.5 Z M 375.5,357.5 C 375.541,361.243 374.874,361.41 373.5,358C 374.094,357.536 374.761,357.369 375.5,357.5 Z"/></g>
<g><path style="opacity:0.897" fill="#fecc60" d="M 462.5,330.5 C 464.288,330.215 465.955,330.548 467.5,331.5C 469.609,335.604 470.942,339.937 471.5,344.5C 474.066,344.656 476.566,344.322 479,343.5C 491.642,343.935 493.475,348.435 484.5,357C 480.912,359.377 477.412,361.877 474,364.5C 472.346,370.152 473.679,374.819 478,378.5C 480.167,381.167 479.667,383.167 476.5,384.5C 475.062,384.281 473.729,383.781 472.5,383C 469.299,379.464 465.799,376.297 462,373.5C 446.585,384.217 443.085,381.05 451.5,364C 446.774,358.945 442.441,353.612 438.5,348C 438.759,346.739 439.426,345.739 440.5,345C 446.528,344.83 452.528,344.33 458.5,343.5C 459.994,339.184 461.327,334.85 462.5,330.5 Z M 450.5,352.5 C 452.125,351.675 453.792,352.008 455.5,353.5C 455.192,354.308 454.692,354.975 454,355.5C 452.961,354.29 451.794,353.29 450.5,352.5 Z M 474.5,351.5 C 478.102,351.678 478.102,352.678 474.5,354.5C 471.955,353.451 471.955,352.451 474.5,351.5 Z M 461.5,352.5 C 463.167,352.5 464.833,352.5 466.5,352.5C 468.74,357.447 467.406,361.114 462.5,363.5C 460.954,362.788 459.954,361.622 459.5,360C 460.479,357.567 461.145,355.067 461.5,352.5 Z M 469.5,370.5 C 467.24,369.762 467.073,368.762 469,367.5C 469.483,368.448 469.649,369.448 469.5,370.5 Z"/></g>
<g><path style="opacity:0.982" fill="#94d1d5" d="M 648.5,415.5 C 683.617,418.484 716.284,428.984 746.5,447C 757.344,456.682 762.677,468.848 762.5,483.5C 761.891,494.046 760.057,504.38 757,514.5C 749.011,540.152 738.511,564.652 725.5,588C 721.648,590.051 718.148,589.551 715,586.5C 713.95,575.54 712.95,564.54 712,553.5C 707.648,541.813 699.814,533.313 688.5,528C 672.086,521.529 655.753,514.862 639.5,508C 636.894,506.062 635.061,503.562 634,500.5C 630.895,486.213 630.895,471.879 634,457.5C 635.706,448.008 638.04,438.674 641,429.5C 642.735,424.361 645.235,419.694 648.5,415.5 Z"/></g>
<g><path style="opacity:0.984" fill="#94d1d5" d="M 1071.5,416.5 C 1098.83,417.914 1124.5,425.081 1148.5,438C 1165.09,446.356 1170.93,459.523 1166,477.5C 1160.42,498.911 1151.76,518.911 1140,537.5C 1140.05,561.762 1144.72,585.096 1154,607.5C 1163.27,616.616 1174.44,620.449 1187.5,619C 1202.37,603.801 1216.87,588.301 1231,572.5C 1237.5,563.476 1243,553.809 1247.5,543.5C 1233.77,535.928 1220.44,527.762 1207.5,519C 1201.07,514.577 1195.24,509.41 1190,503.5C 1185.16,475.047 1188.83,447.713 1201,421.5C 1204.09,418.19 1207.92,416.524 1212.5,416.5C 1240.03,419.84 1265.36,429.007 1288.5,444C 1299.11,452.182 1302.28,462.682 1298,475.5C 1295.23,486.715 1291.06,497.381 1285.5,507.5C 1285.71,508.086 1286.04,508.586 1286.5,509C 1268.56,545.545 1250.89,582.211 1233.5,619C 1249.5,619.667 1265.5,619.667 1281.5,619C 1295.49,617.897 1307.82,612.897 1318.5,604C 1325,597.5 1331.5,591 1338,584.5C 1350.29,569.207 1362.96,554.207 1376,539.5C 1376.69,538.668 1376.52,538.002 1375.5,537.5C 1356.83,529.254 1340.33,517.92 1326,503.5C 1322.52,490.317 1321.85,476.984 1324,463.5C 1325.39,449.457 1328.39,435.79 1333,422.5C 1334.05,420.91 1335.21,419.41 1336.5,418C 1341.09,416.607 1345.76,416.274 1350.5,417C 1377.22,422.867 1402.22,432.867 1425.5,447C 1435.04,455.061 1438.2,465.227 1435,477.5C 1429.18,505.132 1417.51,529.799 1400,551.5C 1380.72,596.385 1361.72,641.385 1343,686.5C 1333.58,707.967 1317.08,718.467 1293.5,718C 1240.83,718.667 1188.17,718.667 1135.5,718C 1128.96,715.787 1124.79,711.287 1123,704.5C 1115.06,671.204 1109.4,637.537 1106,603.5C 1103.75,587.858 1105.75,572.858 1112,558.5C 1114.37,553.588 1116.87,548.755 1119.5,544C 1103.52,536.346 1088.18,527.679 1073.5,518C 1067.53,513.755 1062.03,508.922 1057,503.5C 1050.74,475.471 1053.08,448.138 1064,421.5C 1065.91,418.72 1068.41,417.053 1071.5,416.5 Z"/></g>
<g><path style="opacity:0.979" fill="#94d1d5" d="M 296.5,418.5 C 337.606,416.974 370.773,432.307 396,464.5C 410.754,484.327 423.754,505.327 435,527.5C 439.532,537.095 442.865,547.095 445,557.5C 447.731,608.853 429.564,651.02 390.5,684C 367.092,700.359 341.092,709.359 312.5,711C 332.401,676.088 351.901,640.921 371,605.5C 383.121,583.469 390.621,559.969 393.5,535C 391.859,506.689 377.192,489.356 349.5,483C 318.313,476.85 287.646,478.85 257.5,489C 234.183,495.992 212.85,506.659 193.5,521C 185.961,528.87 178.794,537.037 172,545.5C 162.386,559.447 152.386,573.114 142,586.5C 135.556,561.72 138.556,538.054 151,515.5C 172.527,479.638 202.027,452.471 239.5,434C 257.823,425.829 276.823,420.662 296.5,418.5 Z"/></g>
<g><path style="opacity:0.987" fill="#94d1d5" d="M 800.5,418.5 C 804.247,418.392 807.914,418.892 811.5,420C 821.255,424.819 831.588,427.486 842.5,428C 883.516,428.086 924.516,428.752 965.5,430C 1000.23,431.411 1021.73,448.911 1030,482.5C 1033.12,498.027 1034.12,513.694 1033,529.5C 1031.31,552.341 1028.31,575.008 1024,597.5C 1022.34,605.317 1019.84,612.817 1016.5,620C 1027.22,620.097 1037.89,620.763 1048.5,622C 1052.71,623.951 1054.71,627.284 1054.5,632C 1051.13,657.32 1043.96,681.486 1033,704.5C 1028.48,711.009 1022.31,715.175 1014.5,717C 975.028,718.146 935.528,718.646 896,718.5C 858.833,718.333 821.667,718.167 784.5,718C 777.516,717.017 774.182,713.017 774.5,706C 777.84,681.473 784.673,657.973 795,635.5C 800.656,626.526 808.823,621.693 819.5,621C 881.166,620.5 942.832,620.333 1004.5,620.5C 1001.71,600.331 996.874,580.664 990,561.5C 980.038,536.747 961.538,524.914 934.5,526C 896.833,525.667 859.167,525.333 821.5,525C 810.974,524.621 801.308,521.621 792.5,516C 787.642,510.096 785.142,503.262 785,495.5C 784.333,481.5 784.333,467.5 785,453.5C 785.831,442.839 788.831,432.839 794,423.5C 795.965,421.45 798.132,419.783 800.5,418.5 Z"/></g>
<g><path style="opacity:0.987" fill="#94d1d5" d="M 1724.5,626.5 C 1724.5,630.833 1724.5,635.167 1724.5,639.5C 1720.34,661.11 1713.84,682.11 1705,702.5C 1700.4,710.392 1693.57,715.226 1684.5,717C 1608.2,718.649 1531.86,718.982 1455.5,718C 1448.92,716.917 1445.25,713.083 1444.5,706.5C 1448.17,679.668 1456.33,654.335 1469,630.5C 1475.01,624.826 1482.18,621.659 1490.5,621C 1552.17,620.833 1613.84,620.333 1675.5,619.5C 1672.67,606.52 1669.84,593.52 1667,580.5C 1663.53,565.717 1657.19,552.384 1648,540.5C 1635.35,530.505 1620.85,525.672 1604.5,526C 1567.17,525.667 1529.83,525.333 1492.5,525C 1479.99,524.946 1469.16,520.779 1460,512.5C 1456.61,504.188 1454.95,495.521 1455,486.5C 1453.4,467.423 1455.4,448.756 1461,430.5C 1463.72,421.759 1469.55,417.926 1478.5,419C 1489.25,424.187 1500.58,427.187 1512.5,428C 1553.52,428.079 1594.52,428.746 1635.5,430C 1672.51,431.518 1694.51,450.351 1701.5,486.5C 1702.96,496.115 1703.96,505.782 1704.5,515.5C 1703.05,544.086 1699.55,572.419 1694,600.5C 1692.6,607.106 1690.43,613.439 1687.5,619.5C 1696.82,620.332 1706.15,620.832 1715.5,621C 1719.53,621.339 1722.53,623.173 1724.5,626.5 Z"/></g>
<g><path style="opacity:0.889" fill="#fecc60" d="M 1554.5,550.5 C 1555.87,550.343 1557.21,550.51 1558.5,551C 1562.23,554.463 1565.23,558.463 1567.5,563C 1571.8,562.616 1575.97,561.45 1580,559.5C 1580.77,559.645 1581.44,559.978 1582,560.5C 1581.91,565.848 1579.75,570.348 1575.5,574C 1580.8,578.411 1582.8,583.911 1581.5,590.5C 1580.83,590.833 1580.17,591.167 1579.5,591.5C 1572.84,589.663 1566.18,588.163 1559.5,587C 1554.28,588.948 1551.78,592.782 1552,598.5C 1548.55,600.353 1546.72,599.353 1546.5,595.5C 1547.17,590.82 1547.83,586.153 1548.5,581.5C 1543.47,580.817 1539.14,578.817 1535.5,575.5C 1536.04,574.252 1536.71,573.085 1537.5,572C 1541.51,570.832 1545.51,569.665 1549.5,568.5C 1550.86,562.383 1552.53,556.383 1554.5,550.5 Z M 1557.5,562.5 C 1560.75,564.738 1560.75,566.071 1557.5,566.5C 1557.5,565.167 1557.5,563.833 1557.5,562.5 Z M 1559.5,571.5 C 1565.6,571.714 1566.6,573.881 1562.5,578C 1560.2,578.018 1557.87,577.851 1555.5,577.5C 1554.93,574.089 1556.27,572.089 1559.5,571.5 Z M 1568.5,579.5 C 1573.89,582.486 1573.55,582.986 1567.5,581C 1568.06,580.617 1568.39,580.117 1568.5,579.5 Z"/></g>
<g><path style="opacity:0.978" fill="#94d1d5" d="M 192.5,586.5 C 207.37,593.201 218.536,603.868 226,618.5C 228.969,624.272 231.803,630.105 234.5,636C 223.473,652.556 214.973,670.39 209,689.5C 203.813,702.338 195.979,713.171 185.5,722C 180.167,722.667 174.833,722.667 169.5,722C 165.793,721.064 162.626,719.231 160,716.5C 150.306,696.725 147.972,676.058 153,654.5C 159.245,627.66 172.411,604.993 192.5,586.5 Z"/></g>
<g><path style="opacity:0.94" fill="#fecc60" d="M 555.5,735.5 C 557.167,735.5 558.833,735.5 560.5,735.5C 560.66,737.199 560.494,738.866 560,740.5C 557.146,745.239 554.979,750.239 553.5,755.5C 551.018,756.897 548.352,757.731 545.5,758C 536.192,758.95 526.859,759.45 517.5,759.5C 485.499,757.833 453.499,756.167 421.5,754.5C 408.626,754.026 395.959,755.36 383.5,758.5C 383.167,758.167 382.833,757.833 382.5,757.5C 387.235,749.619 394.235,745.119 403.5,744C 419.511,740.971 435.678,739.471 452,739.5C 478.824,740.781 505.658,741.281 532.5,741C 540.542,740.238 548.209,738.405 555.5,735.5 Z"/></g>
<g><path style="opacity:0.887" fill="#fecc60" d="M 900.5,749.5 C 901.873,749.343 903.207,749.51 904.5,750C 907.735,754.336 911.068,758.503 914.5,762.5C 930.312,756.749 932.646,760.249 921.5,773C 924.684,776.857 927.018,781.191 928.5,786C 928.333,788.833 926.833,790.333 924,790.5C 917.522,788.555 911.022,787.055 904.5,786C 902.759,787.62 900.925,789.12 899,790.5C 898.713,792.891 898.213,795.224 897.5,797.5C 895.955,798.452 894.288,798.785 892.5,798.5C 892.701,792.491 893.034,786.491 893.5,780.5C 888.625,780.063 884.625,778.063 881.5,774.5C 881.608,773.558 881.941,772.725 882.5,772C 886.618,770.295 890.785,768.795 895,767.5C 896.227,761.247 898.06,755.247 900.5,749.5 Z M 903.5,761.5 C 906.383,763.982 906.05,765.149 902.5,765C 903.337,763.989 903.67,762.822 903.5,761.5 Z M 906.5,770.5 C 911.243,771.849 911.577,774.016 907.5,777C 905.087,777.484 902.754,777.15 900.5,776C 901.167,774.667 901.833,773.333 902.5,772C 904.058,771.79 905.391,771.29 906.5,770.5 Z M 914.5,778.5 C 918.567,781.472 918.234,781.972 913.5,780C 914.056,779.617 914.389,779.117 914.5,778.5 Z M 899.5,783.5 C 902.001,783.511 902.168,784.178 900,785.5C 899.536,784.906 899.369,784.239 899.5,783.5 Z"/></g>
<g><path style="opacity:0.888" fill="#fecc60" d="M 1214.5,749.5 C 1216.58,749.472 1218.42,750.139 1220,751.5C 1222.54,754.749 1224.71,758.249 1226.5,762C 1230.61,761.914 1234.61,761.081 1238.5,759.5C 1242.71,759.933 1243.54,761.933 1241,765.5C 1239.21,768.295 1237.04,770.795 1234.5,773C 1238.63,776.631 1241.3,781.131 1242.5,786.5C 1242.1,789.065 1240.6,790.399 1238,790.5C 1231.42,788.895 1224.92,787.395 1218.5,786C 1216.76,787.62 1214.93,789.12 1213,790.5C 1212.43,793.168 1211.93,795.834 1211.5,798.5C 1209.02,798.949 1207.02,798.283 1205.5,796.5C 1206.66,791.24 1207.32,785.907 1207.5,780.5C 1203.69,779.84 1200.02,778.674 1196.5,777C 1195.07,774.733 1195.4,772.733 1197.5,771C 1201.42,770.026 1205.25,768.859 1209,767.5C 1210.23,761.228 1212.06,755.228 1214.5,749.5 Z M 1217.5,761.5 C 1220.46,764.271 1220.13,765.271 1216.5,764.5C 1217.13,763.583 1217.46,762.583 1217.5,761.5 Z M 1220.5,770.5 C 1225.24,771.849 1225.58,774.016 1221.5,777C 1218.95,777.615 1216.62,777.115 1214.5,775.5C 1215.47,772.457 1217.47,770.79 1220.5,770.5 Z M 1228.5,778.5 C 1232.57,781.472 1232.23,781.972 1227.5,780C 1228.06,779.617 1228.39,779.117 1228.5,778.5 Z M 1213.5,783.5 C 1216,783.511 1216.17,784.178 1214,785.5C 1213.54,784.906 1213.37,784.239 1213.5,783.5 Z"/></g>
<g><path style="opacity:0.889" fill="#fecc60" d="M 1554.5,749.5 C 1557.78,749.269 1560.28,750.603 1562,753.5C 1564,756.833 1566,760.167 1568,763.5C 1572.56,761.132 1577.4,759.799 1582.5,759.5C 1582.19,764.994 1579.86,769.494 1575.5,773C 1578.04,775.906 1580.2,779.073 1582,782.5C 1582.67,784.833 1582.67,787.167 1582,789.5C 1581.11,790.081 1580.11,790.415 1579,790.5C 1572.41,788.96 1565.91,787.46 1559.5,786C 1554.58,788.506 1551.91,792.506 1551.5,798C 1549.87,798.494 1548.2,798.66 1546.5,798.5C 1546.68,793.093 1547.34,787.76 1548.5,782.5C 1545.18,780.172 1541.51,778.339 1537.5,777C 1534.97,774.679 1535.3,772.679 1538.5,771C 1542.38,769.905 1546.22,768.739 1550,767.5C 1550.93,761.319 1552.43,755.319 1554.5,749.5 Z M 1557.5,761.5 C 1560.75,763.738 1560.75,765.071 1557.5,765.5C 1557.5,764.167 1557.5,762.833 1557.5,761.5 Z M 1560.5,770.5 C 1567.05,772.474 1567.05,774.808 1560.5,777.5C 1558.87,776.954 1557.2,776.62 1555.5,776.5C 1555.24,775.022 1555.57,773.689 1556.5,772.5C 1558.03,772.006 1559.36,771.339 1560.5,770.5 Z M 1569.5,778.5 C 1571.08,779.002 1571.58,780.002 1571,781.5C 1569.93,780.809 1568.77,780.309 1567.5,780C 1568.42,779.722 1569.08,779.222 1569.5,778.5 Z"/></g>
<g><path style="opacity:0.887" fill="#fecc60" d="M 1213.5,830.5 C 1215.2,830.34 1216.87,830.506 1218.5,831C 1221.8,835.108 1224.96,839.275 1228,843.5C 1244.5,837.307 1246.66,840.807 1234.5,854C 1239.94,858.184 1242.27,863.517 1241.5,870C 1233.92,870.588 1226.76,869.088 1220,865.5C 1217.74,867.046 1215.58,868.712 1213.5,870.5C 1212.77,873.212 1211.94,875.879 1211,878.5C 1208.45,879.98 1206.62,879.313 1205.5,876.5C 1206.92,871.52 1207.25,866.52 1206.5,861.5C 1203.17,860.167 1199.83,858.833 1196.5,857.5C 1195.24,855.647 1195.24,853.814 1196.5,852C 1200.51,850.832 1204.51,849.665 1208.5,848.5C 1210.17,842.505 1211.83,836.505 1213.5,830.5 Z M 1217.5,842.5 C 1220.46,845.271 1220.13,846.271 1216.5,845.5C 1217.13,844.583 1217.46,843.583 1217.5,842.5 Z M 1218.5,851.5 C 1225.61,851.833 1226.28,854.166 1220.5,858.5C 1218.34,857.965 1216.34,857.132 1214.5,856C 1215.34,854.989 1215.67,853.822 1215.5,852.5C 1216.79,852.737 1217.79,852.404 1218.5,851.5 Z M 1227.5,859.5 C 1228.68,859.281 1229.68,859.614 1230.5,860.5C 1228.95,861.798 1227.95,861.465 1227.5,859.5 Z M 1213.5,863.5 C 1216,863.511 1216.17,864.178 1214,865.5C 1213.54,864.906 1213.37,864.239 1213.5,863.5 Z"/></g>
</svg>
