<?xml version="1.0" encoding="UTF-8"?>
<svg xmlns="http://www.w3.org/2000/svg" version="1.1" viewBox="0 0 512 512">
  <defs>
    <style>
      .cls-1 {
        fill: #87ccd1;
      }

      .cls-2 {
        fill: #2c0d12;
      }

      .cls-3 {
        fill: #ff82ab;
      }

      .cls-4 {
        fill: #94d1d6;
      }

      .cls-5 {
        fill: #ffcc61;
      }
    </style>
  </defs>
  <!-- Generator: Adobe Illustrator 28.7.1, SVG Export Plug-In . SVG Version: 1.2.0 Build 142)  -->
  <g>
    <g id="Layer_1">
      <g>
        <g>
          <path class="cls-5" d="M176,230.2h160v14.8c0,26.5-21.5,48-48,48h-64c-26.5,0-48-21.5-48-48v-14.8h0Z"/>
          <path class="cls-3" d="M198.4,209.4l-42.1,276.6h-37.6l56-280.2,23.7,3.6Z"/>
          <path class="cls-3" d="M313.6,209.4l42.1,276.6h37.6l-56-280.2-23.7,3.6Z"/>
          <path class="cls-4" d="M145.3,341.7h221.3c6.6,0,12,5.4,12,12h0c0,6.6-5.4,12-12,12h-221.3c-6.6,0-12-5.4-12-12h0c0-6.6,5.4-12,12-12Z"/>
          <path class="cls-4" d="M358,74c0-26.5-21.5-48-48-48h-108c-26.5,0-48,21.5-48,48v160.7h204V74Z"/>
          <g>
            <path class="cls-5" d="M142.6,147.4h24v92.9h-24v-92.9Z"/>
            <path class="cls-5" d="M345.4,147.4h24v92.9h-24v-92.9Z"/>
          </g>
          <path class="cls-1" d="M144,218.2h224c9.9,0,18,8.1,18,18h0c0,9.9-8.1,18-18,18h-224c-9.9,0-18-8.1-18-18h0c0-9.9,8.1-18,18-18Z"/>
          <path class="cls-1" d="M138,147.4h236c6.6,0,12,5.4,12,12h0c0,6.6-5.4,12-12,12h-236c-6.6,0-12-5.4-12-12h0c0-6.6,5.4-12,12-12Z"/>
          <path class="cls-3" d="M244,218.2h24v74.8h-24v-74.8Z"/>
        </g>
        <g>
          <path class="cls-2" d="M415.2,479h-16.2l-21.9-109.5c8.7-5.8,11.1-17.5,5.4-26.3-2.8-4.3-7.2-7.2-12.2-8.2l-14.8-73.9h12.5c13.8,0,25-11.2,25-25,0-10.6-6.7-20-16.6-23.5v-34.4c10.4-1.3,17.7-10.8,16.4-21.2-1.2-9.5-9.3-16.6-18.8-16.6h-9v-66.4c0-30.4-24.6-55-55-55h-21.5c-3.9,0-7,3.1-7,7s3.1,7,7,7h21.5c22.6,0,41,18.4,41,41v66.4h-190v-66.4c0-22.6,18.4-41,41-41h15.7c3.9,0,7-3.1,7-7s-3.1-7-7-7h-15.7c-30.4,0-55,24.6-55,55v66.4h-9c-10.5,0-19,8.4-19,18.9,0,9.6,7.1,17.6,16.6,18.8v34.4c-3.5,1.2-6.6,3.2-9.2,5.9-9.8,9.8-9.8,25.6,0,35.3,4.7,4.7,11,7.3,17.7,7.3h12.5l-14.8,73.9c-10.3,2-17,11.9-15,22.2,1,5,3.9,9.4,8.2,12.2l-21.9,109.5h-16.2c-3.9,0-7,3.1-7,7s3.1,7,7,7h318.5c3.9,0,7-3.1,7-7s-3.1-7-7-7ZM355.9,334.7h-16.2l-11.2-73.5h12.7l14.7,73.5ZM237,261.2v24.8h-13c-10.6,0-20.8-4.1-28.4-11.6l2-13.3h39.4ZM159.6,178.4v32.7h-10v-32.7h10ZM173.6,178.4h164.8v32.7h-164.8v-32.7ZM362.4,211.2h-10v-32.7h10v32.7ZM314.4,261.2l2,13.3c-7.6,7.4-17.8,11.6-28.4,11.6h-13v-24.8h39.4ZM251,225.2h10v60.8h-10v-60.8ZM193.2,290.4c9.1,6.2,19.8,9.5,30.8,9.6h64c11,0,21.8-3.3,30.8-9.6l6.7,44.2h-139.1l6.7-44.2ZM375.7,244c-2,2.1-4.8,3.2-7.7,3.2h-93v-22h93c6.1,0,11,4.9,11,11,0,2.9-1.2,5.7-3.3,7.8ZM133,159.4c0-2.8,2.2-5,5-5h236c2.8,0,5,2.2,5,5s-2.2,5-5,5h-236c-2.8,0-5-2.2-5-5h0ZM133,236.2c0-2.9,1.2-5.7,3.3-7.8,2-2.1,4.8-3.2,7.7-3.2h93v22h-93c-6.1,0-11-4.9-11-11ZM183.5,261.2l-11.2,73.5h-16.2l14.7-73.5h12.7ZM145.3,348.7h221.3c2.8,0,5,2.2,5,5s-2.2,5-5,5h-221.3c-2.8,0-5-2.2-5-5s2.2-5,5-5h0ZM127.2,479l21.3-106.3h18l-4.3,28.2c-.6,3.8,2,7.4,5.9,8,.4,0,.7,0,1.1,0,3.5,0,6.4-2.5,6.9-5.9l4.6-30.3h150.8l16.2,106.3h-183.1l6.1-39.8c.6-3.8-2-7.4-5.9-8-3.8-.6-7.4,2-8,5.9l-6.4,41.9h-23ZM361.7,479l-16.2-106.3h18l21.3,106.3h-23.1Z"/>
          <path class="cls-2" d="M243.5,33h17.5c3.9,0,7-3.1,7-7s-3.1-7-7-7h-17.5c-3.9,0-7,3.1-7,7s3.1,7,7,7Z"/>
          <path class="cls-2" d="M334,96.8c3.9,0,7-3.1,7-7v-15.8c0-4.4-1-8.8-2.8-12.8-1.6-3.5-5.8-5.1-9.3-3.5-3.5,1.6-5.1,5.8-3.5,9.3,1,2.2,1.5,4.6,1.5,7v15.8c0,3.9,3.1,7,7,7,0,0,0,0,0,0Z"/>
        </g>
      </g>
    </g>
  </g>
</svg>