<?xml version="1.0" encoding="UTF-8"?>
<svg xmlns="http://www.w3.org/2000/svg" version="1.1" viewBox="0 0 512 512">
  <defs>
    <style>
      .cls-1 {
        fill: #ffb6d0;
      }

      .cls-2 {
        fill: #060606;
      }

      .cls-3 {
        fill: #7baeaf;
      }

      .cls-4 {
        fill: #bee3e6;
      }

      .cls-5 {
        fill: #87ccd1;
      }

      .cls-6 {
        fill: #a0d6db;
      }

      .cls-7 {
        fill: #ff82ab;
      }

      .cls-8 {
        fill: #94d1d6;
      }

      .cls-9 {
        fill: #ffcc61;
      }
    </style>
  </defs>
  <!-- Generator: Adobe Illustrator 28.7.1, SVG Export Plug-In . SVG Version: 1.2.0 Build 142)  -->
  <g>
    <g id="Layer_1">
      <g>
        <g>
          <path class="cls-4" d="M462.8,324.5c-3.5-41.4-47.9-47.3-57.9-47.3l-28,15.3h-241.8l-28-15.3c-10,0-54.4,5.9-57.9,47.3-4.3,51.1,52.6,101.4,74.7,118.9,5.3,4.2,11.8,6.5,18.6,6.5h227c6.8,0,13.3-2.3,18.6-6.5,22.1-17.5,79-67.8,74.7-118.9h0Z"/>
          <g>
            <g>
              <path class="cls-4" d="M374.8,41.2s137-10.7-9.8,273l-53.9-1,63.7-272Z"/>
              <path class="cls-6" d="M343.3,47.5s28.3-16.3,48.3.4c49.3,41.1-50.6,259.3-50.6,259.3h-49.3V47.5h51.6Z"/>
              <path class="cls-4" d="M137.1,41.2S.1,30.5,147,314.2l53.9-1L137.1,41.2Z"/>
              <path class="cls-6" d="M168.6,47.5s-28.3-16.3-48.3.4c-49.3,41.1,50.6,259.3,50.6,259.3h49.3V47.5h-51.6Z"/>
            </g>
            <path class="cls-6" d="M343.3,47.5s28.3-16.3,48.3.4c49.3,41.1-50.6,259.3-50.6,259.3h-49.3V47.5h51.6Z"/>
            <path class="cls-8" d="M391.6,47.9c-12.3-10.2-27.7-8-37.8-4.8,2.7,1.1,5.3,2.7,7.8,4.8,49.3,41.1-50.6,259.3-50.6,259.3h30s99.9-218.3,50.6-259.3h0Z"/>
            <path class="cls-3" d="M326.2,315.6s-10.8-180.6,16.6-268c-32.5-53-142.5-53.7-174.8,0,27.4,87.4,16.6,268,16.6,268h141.5Z"/>
          </g>
          <g>
            <path class="cls-7" d="M384.9,504.5H127c-5.5,0-10-4.5-10-10v-19.1c0-14.1,11.4-25.5,25.5-25.5h227c14.1,0,25.5,11.4,25.5,25.5v19.1c0,5.5-4.5,10-10,10Z"/>
            <path class="cls-1" d="M369.5,449.9h-30c14.1,0,25.5,11.4,25.5,25.5v19.1c0,5.5-4.5,10-10,10h30c5.5,0,10-4.5,10-10v-19.1c0-14.1-11.4-25.5-25.5-25.5Z"/>
            <path class="cls-9" d="M298.2,477.1h-84.5c-15,0-27.2-12.2-27.2-27.2h0s138.8,0,138.8,0h0c0,15-12.2,27.2-27.2,27.2h0Z"/>
          </g>
          <g>
            <path class="cls-6" d="M344.9,295.2s57.9-34,82.9-9c37.9,37.9-28,115.1-56.7,129.9h-230.3c-28.7-14.7-94.5-92-56.7-129.9,25-25,82.9,9,82.9,9"/>
            <path class="cls-8" d="M427.8,286.2c-10.4-10.4-26.6-10.6-42-7.2,4.5,1.4,8.5,3.8,12,7.2,37.9,37.9-28,115.1-56.7,129.9h30c28.7-14.7,94.5-92,56.7-129.9Z"/>
            <path class="cls-3" d="M145.8,314.5l-11.3,18.5c-4.4,7.3-6.8,15.6-6.8,24.1v35.4c0,15.1,12.3,27.4,27.4,27.4h201.6c15.1,0,27.4-12.3,27.4-27.4v-35.4c0-8.5-2.3-16.9-6.8-24.1l-11.3-18.5c-8.4-13.8-23.5-22.3-39.7-22.3h-141c-16.2,0-31.2,8.4-39.7,22.3h0Z"/>
            <path class="cls-5" d="M377.4,333.1l-11.3-18.5c-8.4-13.8-23.5-22.3-39.7-22.3h-30c16.2,0,31.2,8.4,39.7,22.3l11.3,18.5c4.4,7.3,6.8,15.6,6.8,24.1v35.4c0,15.1-12.3,27.4-27.4,27.4h30c15.1,0,27.4-12.3,27.4-27.4v-35.4c0-8.5-2.3-16.9-6.8-24.1Z"/>
          </g>
          <path class="cls-5" d="M240.2,348.2h31.5v71.9h-31.5v-71.9Z"/>
          <g>
            <path class="cls-7" d="M253.6,292.2l1.9-4.4-74.2-170.2c3.4,31.3,4.9,64.9,5.3,95.4l35.5,79.3h31.5Z"/>
            <path class="cls-7" d="M255.5,287.8l1.9,4.4h31.5l35.4-79c.4-30.4,1.9-64,5.3-95.2l-74,169.8Z"/>
            <path class="cls-7" d="M257.5,292.2l-1.9-4.4-1.9,4.4h3.8Z"/>
          </g>
          <g>
            <path class="cls-9" d="M283.5,364l-8.2,11.6c-2.3,3.3-6,5.2-10,5.2h-18.8c-4,0-7.7-1.9-10-5.2l-8.2-11.6c-1.4-2.1-2.2-4.5-2.2-7v-23.5c0-6.8,5.5-12.2,12.2-12.2h35.1c6.8,0,12.2,5.5,12.2,12.2v23.5c0,2.5-.8,5-2.2,7h0Z"/>
            <path class="cls-6" d="M250,345.2h12"/>
          </g>
        </g>
        <g>
          <path class="cls-2" d="M470.3,323.9c-2.7-32.7-33-53.2-64.2-54.1-3.7-.2-7.4-.1-11.1.3,46.4-101.2,56.8-171.8,30.7-210-17.5-25.6-52.2-33.6-80.1-21.9C327.7,14.4,293.8,0,255.1,0s-.4,0-.7,0c-38,.2-71.2,14.5-88.8,37.8-27.7-11.4-61.7-2.4-78.7,22.7-26.1,38.3-15.9,108.8,30.1,209.6-3.8-.4-7.6-.5-11.4-.3-31.2,1.1-61.2,21.5-63.9,54.1-4.2,50,40.9,99.6,79.1,126.6-7,6.1-11.4,15-11.4,24.9v19.1c0,9.6,7.9,17.5,17.5,17.5h258c9.6,0,17.5-7.9,17.5-17.5v-19.1c0-9.9-4.4-18.8-11.3-24.8,10.2-7.2,19.7-16.3,28.6-25.1,6.9-6.8-3.7-17.5-10.6-10.6-10,10-19.5,17.9-25.6,22.8-4,3.1-8.9,4.9-14,4.9h-227c-5,0-10-1.7-13.9-4.9-70.8-56-72.9-100.2-71.9-112.4.9-10.6,4.9-18.4,10.4-24.2-2,7.3-2.4,15.4-1.1,24,6.5,41.3,49.9,86.8,71.4,97.8,5.4,2.8,11.8,4.7,17.8,4.7h201.6c6,0,12.4-1.9,17.7-4.7,21.5-11,64.9-56.5,71.4-97.8,1.4-8.7,1-16.9-1.1-24.2,5.5,5.8,9.7,13.7,10.6,24.4,1.5,17.7-5.2,37.5-19.9,58.6-5.4,7.7,6.6,16.9,12.3,8.6,16.7-24.1,24.3-47.2,22.5-68.5h0ZM316.4,457.4c-3,7.1-10,12.2-18.2,12.2h-84.5c-8.2,0-15.2-5-18.2-12.2h120.9ZM179.9,457.4c3.4,15.5,17.3,27.2,33.9,27.2h84.5c16.5,0,30.4-11.7,33.9-27.2h37.4c9.9,0,18,8.1,18,18v19.1c0,1.4-1.1,2.5-2.5,2.5H127c-1.4,0-2.5-1.1-2.5-2.5v-19.1c0-9.9,8.1-18,18-18h37.4ZM376.7,273.7c-5.5,1.6-10.8,3.5-15.5,5.4,11.7-28.4,27.5-69.9,38.6-110.8,12.9-47.6,16.2-82.2,9.7-104.5,1.3,1.4,2.5,3,3.7,4.7,16.3,23.8,23.1,78.8-36.6,205.1h0ZM278.3,357c0,4.5-8.9,16.3-12.9,16.3h-18.8c-4.2,0-12.9-12.1-12.9-16.3v-23.5c0-2.6,2.1-4.7,4.7-4.7h35.1c2.6,0,4.7,2.1,4.7,4.7v23.5ZM247.7,388.3h16.5v20.3h-16.5v-20.3ZM376.6,392.6c0,6.6-3.2,12.4-8.2,16h-89.2v-26c5.7-5.6,14-17.6,14-25.7v-23.5c0-10.9-8.9-19.7-19.7-19.7h-35.1c-10.9,0-19.7,8.9-19.7,19.7v23.5c0,8.4,8.1,19.8,14,25.7v26h-89.2c-5-3.6-8.2-9.5-8.2-16v-35.4c0-14.6,9.7-26.9,17-38.8,7-11.5,19.7-18.7,33.2-18.7,46.8,1.7,94.1,0,141,0,13.5,0,26.2,7.2,33.2,18.7,7.2,11.9,17,24.2,17,38.8v35.4ZM317.5,284.7h-16.9l16.2-36.2c.1,13.7.4,26,.7,36.2ZM316.8,211.6l-32.7,73.1h-19l53.4-122.5c-.9,15.5-1.4,32.1-1.7,49.4ZM192.4,161.8l53.6,122.9h-19l-32.9-73.4c-.3-17.4-.8-33.9-1.7-49.5ZM210.6,284.7h-17.1c.3-10.3.6-22.7.7-36.5l16.4,36.5ZM386.8,53.6c15,12.5,14.5,51.8-1.4,110.7-12.8,47.3-32.2,95.6-43.7,122.6-3-.9-6.1-1.5-9.2-1.9-2.4-75.7-5.1-158.7,16.6-232.1,6.1-2.9,24.7-10.2,37.7.6h0ZM254.5,15c.2,0,.4,0,.6,0,34.9,0,65,12.8,79.6,33.7-5.7,19.3-9.7,42.6-12.4,67.3l-66.8,153.1-66.9-153.5c-2.7-24.6-6.7-47.7-12.4-66.9,14.2-20.7,43.8-33.5,78.2-33.7h0ZM99.2,69.1c.8-1.2,1.6-2.3,2.5-3.3-3,11.4-2.8,23.8-2.1,35.2.7,11.2,2.4,23,5.3,37,1.9,9.3,16.6,6.6,14.7-3-2.7-13.4-4.3-24.5-5-35-1-14.7-.9-31.3,7-42.3,8.5-12,26.3-11.6,40.2-5.2,21.9,73.5,19.2,156.9,16.8,232.8-2.8.4-5.5,1-8.2,1.7-17.3-41.4-30.1-76.6-40.3-110.4-2.8-9.3-17.2-5-14.4,4.3,9.2,30.5,20.5,62.2,35.2,98.3-4.7-1.9-10-3.8-15.6-5.4-59.1-125.5-52.3-180.6-36.1-204.6h0ZM80.8,322.7c-5.3-33.6,21.6-41.2,47.5-35.4,8.7,2.3,17.2,5.6,24.1,8.8-5.1,4-9.6,8.9-13,14.5-8.9,14.6-19.1,28.6-19.1,46.6v32.8c-17.5-18-35.9-44.4-39.5-67.4ZM431.1,322.7c-3.6,23-21.9,49.3-39.4,67.3v-32.8c0-17.9-10.2-32-19.1-46.6-3.4-5.7-7.9-10.6-13-14.5,16.1-7.5,47.2-20.4,63-4.6,7.8,7.8,10.7,18,8.6,31.1h0Z"/>
          <path class="cls-2" d="M262,337.7h-12c-9.7,0-9.7,15,0,15h12c9.7,0,9.7-15,0-15Z"/>
        </g>
      </g>
    </g>
  </g>
</svg>