<?xml version="1.0" encoding="UTF-8"?>
<svg xmlns="http://www.w3.org/2000/svg" version="1.1" viewBox="0 0 512 512">
  <defs>
    <style>
      .cls-1 {
        fill: #aadbdf;
      }

      .cls-2 {
        fill: #ffe7bd;
      }

      .cls-3 {
        fill: #ff82ab;
      }

      .cls-4 {
        fill: #94d1d6;
      }

      .cls-5 {
        fill: #ffcc61;
      }

      .cls-6 {
        fill: #c0e4e7;
      }
    </style>
  </defs>
  <!-- Generator: Adobe Illustrator 28.7.1, SVG Export Plug-In . SVG Version: 1.2.0 Build 142)  -->
  <g>
    <g id="Capa_1">
      <g>
        <g>
          <circle class="cls-5" cx="102.1" cy="173.3" r="46.8"/>
          <circle class="cls-5" cx="409.9" cy="173.3" r="46.8"/>
          <ellipse class="cls-2" cx="256" cy="166.3" rx="151" ry="135.7"/>
          <path class="cls-4" d="M299,365l90.1,28.5c3.3-10.4,5.7-21.2,7.1-32.5,3.7-28.9.5-56.9-8.1-81.8-8.1-23.4-32.2-37.5-56.5-33.1-27.7,4.9-56,14.7-83.6,29.3l51.1,89.6Z"/>
          <path class="cls-5" d="M175,166.3c0-64.1,49.5-117.8,116-132-11.2-2.4-22.9-3.7-35-3.7-83.4,0-151,60.7-151,135.7s67.6,135.7,151,135.7,23.8-1.3,35-3.7c-66.5-14.2-116-67.9-116-132Z"/>
          <path class="cls-6" d="M311,305.7c-41.2-31.9-86.8-51.8-130.5-59.6-24.4-4.3-48.4,9.7-56.5,33.1-8.6,24.9-11.8,52.9-8.1,81.8,11.2,88.4,82.4,152.2,158.9,142.5,56.1-7.1,99.6-51.8,114.3-110-18.7-31.8-45-62.2-78.1-87.8h0Z"/>
          <path class="cls-1" d="M341.1,466.8c-76.5,9.7-147.7-54.1-158.9-142.5-3.4-27-.9-53.1,6.5-76.7-2.7-.6-5.4-1.1-8.1-1.6-24.4-4.3-48.4,9.7-56.5,33.1-8.6,24.9-11.8,52.9-8.1,81.8,11.2,88.4,82.4,152.2,158.9,142.5,29.1-3.7,54.9-17.5,74.9-38.1-2.8.6-5.7,1.1-8.6,1.4h0Z"/>
          <g>
            <g>
              <ellipse class="cls-3" cx="173.8" cy="189.7" rx="30.3" ry="24.2"/>
              <ellipse class="cls-3" cx="338.2" cy="189.7" rx="30.3" ry="24.2"/>
            </g>
            <path d="M205.9,171c-4.1,0-7.5-3.4-7.5-7.5s-3.1-6.9-6.9-6.9-6.9,3.1-6.9,6.9-3.4,7.5-7.5,7.5-7.5-3.4-7.5-7.5c0-12.1,9.8-21.9,21.9-21.9s21.9,9.8,21.9,21.9-3.4,7.5-7.5,7.5Z"/>
            <path d="M335,171c-4.1,0-7.5-3.4-7.5-7.5s-3.1-6.9-6.9-6.9-6.9,3.1-6.9,6.9-3.4,7.5-7.5,7.5-7.5-3.4-7.5-7.5c0-12.1,9.8-21.9,21.9-21.9s21.9,9.8,21.9,21.9-3.4,7.5-7.5,7.5Z"/>
            <path d="M256,194.8c-8,0-15.7-3.5-21-9.5-2.7-3.1-2.4-7.9.7-10.6,3.1-2.7,7.9-2.4,10.6.7,2.4,2.8,6,4.4,9.7,4.4s7.2-1.6,9.7-4.4c2.7-3.1,7.5-3.4,10.6-.7,3.1,2.7,3.4,7.5.7,10.6-5.3,6.1-12.9,9.5-21,9.5h0Z"/>
          </g>
        </g>
        <path d="M409.9,119c-1.4,0-2.9,0-4.3.2-3.9-10.2-9.1-20-15.5-29.2-2.4-3.4-7-4.2-10.4-1.9-3.4,2.4-4.2,7-1.9,10.4,14.2,20.3,21.7,43.7,21.7,67.7s-10.8,56.6-30.5,79c-11.8-6.7-25.5-9-38.7-6.7-24.9,4.5-49.9,12.6-74.2,24.2-24.1-11.5-49.1-19.7-74.2-24.2-13.3-2.4-27,0-38.7,6.7-19.7-22.5-30.5-50.4-30.5-79,0-70.7,64.4-128.2,143.5-128.2s28,1.8,41.1,5.3c-4,9.5-13.4,16.1-24.3,16.1s-13.9-2.8-18.9-7.9c-2.9-3-7.6-3-10.6-.1-3,2.9-3,7.6-.1,10.6,7.8,8,18.4,12.5,29.6,12.5,17.6,0,32.6-11,38.6-26.6,16.9,6.3,32.5,15.6,45.9,27.6,3.1,2.8,7.8,2.5,10.6-.6,2.8-3.1,2.5-7.8-.6-10.6-15.4-13.8-33.5-24.3-53.1-31.3,0-12.1-5.3-23.5-14.5-31.3-3.2-2.7-7.9-2.3-10.6.8-2.7,3.2-2.3,7.9.8,10.6,4.6,4,7.7,9.3,8.8,15.2-13.8-3.5-28.1-5.3-42.8-5.3-69.1,0-128,40.2-149.6,96-1.4-.1-2.9-.2-4.3-.2-29.9,0-54.3,24.4-54.3,54.3s24.4,54.3,54.3,54.3,6.8-.3,10.2-1c5,9.8,11.3,19.1,18.8,27.8-6.3,6.2-11.2,13.8-14.2,22.3-9.3,26.7-12.2,56.2-8.5,85.2,5.2,40.5,22.9,78,50,105.6,2.9,3,7.7,3,10.6,0,3-2.9,3-7.7,0-10.6-24.8-25.2-41.1-59.7-45.8-97-3.4-26.8-.7-53.9,7.8-78.4,6.8-19.7,27.5-31.9,48.1-28.2,44.3,7.9,88.3,28,127.2,58.2,30.3,23.4,56,52.1,74.6,83-15.1,55.4-56.9,95-107.2,101.4-28.5,3.6-57-3.4-82.3-20.4-3.4-2.3-8.1-1.4-10.4,2.1-2.3,3.4-1.4,8.1,2.1,10.4,23.5,15.7,49.5,23.9,76,23.9s11-.3,16.6-1.1c57.4-7.3,104.8-52.7,120.7-115.6,0-.4.2-.8.2-1.2.2-.5.5-.9.6-1.4,3-10,5.1-20.3,6.5-30.8,3.7-29.1.8-58.5-8.5-85.2-2.9-8.5-7.8-16.1-14.2-22.3,7.4-8.6,13.7-17.9,18.8-27.8,3.3.6,6.8,1,10.2,1,29.9,0,54.3-24.4,54.3-54.3s-24.4-54.3-54.3-54.3h0ZM102.1,212.6c-21.7,0-39.3-17.6-39.3-39.3s17.4-39,38.8-39.3c-2.7,10.4-4.1,21.2-4.1,32.3,0,15.8,2.9,31.3,8.4,46.1-1.3.1-2.6.2-3.9.2ZM388.8,360.1c-.6,5-1.5,9.9-2.5,14.8-18.7-27.9-42.9-53.6-70.6-75.1-13.7-10.6-27.9-20-42.6-28.1,19.7-8.5,39.8-14.6,59.8-18.2,20.6-3.7,41.3,8.4,48.1,28.2,8.5,24.5,11.2,51.6,7.8,78.4h0ZM409.9,212.6c-1.3,0-2.6,0-3.9-.2,5.5-14.7,8.4-30.3,8.4-46.1s-1.4-21.8-4.1-32.3c21.5.2,38.8,17.8,38.8,39.3s-17.6,39.3-39.3,39.3h0Z"/>
      </g>
    </g>
  </g>
</svg>