<?xml version="1.0" encoding="UTF-8"?>
<svg xmlns="http://www.w3.org/2000/svg" version="1.1" viewBox="0 0 512 512">
  <defs>
    <style>
      .cls-1 {
        fill: #ffe3aa;
      }

      .cls-2 {
        fill: #87ccd1;
      }

      .cls-3 {
        fill: #ff82ab;
      }

      .cls-4 {
        fill: #94d1d6;
      }

      .cls-5 {
        fill: #ffcc61;
      }

      .cls-6 {
        fill: #ff91b5;
      }
    </style>
  </defs>
  <!-- Generator: Adobe Illustrator 28.7.1, SVG Export Plug-In . SVG Version: 1.2.0 Build 142)  -->
  <g>
    <g id="Capa_1">
      <path class="cls-1" d="M341.5,173.1v-50.7s2-31.4-21.3-31.4-40.6-14.2-40.6-34.5,12.2-48.9-23.3-48.9-23.3,28.7-23.3,48.9-17.2,34.5-40.6,34.5-21.3,31.4-21.3,31.4v40.6"/>
      <path class="cls-5" d="M209.8,163l46.6,5.1-85.2-5.1v-40.6s-2-31.4,21.3-31.4,40.6-14.2,40.6-34.5-12.2-48.9,23.3-48.9c-19.4,0-5.4,28.7-5.4,48.9s-12.3,37.7-24.7,41.9c-.5.2-1,.3-1.5.5-13,5-20.7,18.5-19,32.3l4,31.7Z"/>
      <path class="cls-6" d="M358.1,233v-70.5c0-8.1-6.6-14.7-14.7-14.7h-174.7c-8.1,0-14.7,6.6-14.7,14.7v70.5"/>
      <path class="cls-3" d="M199.6,233v-85.2h-30.9c-8.1,0-14.7,6.6-14.7,14.7v70.5"/>
      <path class="cls-2" d="M385.8,261.7v190.7c0,28.7-23.3,52.1-52.1,52.1h-155.4c-28.7,0-52.1-23.3-52.1-52.1v-190.7c0-28.7,23.3-52.1,52.1-52.1h155.4c28.8,0,52.1,23.3,52.1,52.1Z"/>
      <path class="cls-4" d="M385.8,261.7v190.7c0,28.7-23.3,52.1-52.1,52.1h-110.8c-28.7,0-52.1-23.3-52.1-52.1v-190.7c0-28.7,23.3-52.1,52.1-52.1h110.8c28.8,0,52.1,23.3,52.1,52.1Z"/>
      <path d="M333.7,202h-155.4c-32.9,0-59.7,26.8-59.7,59.7v139.6c0,4.2,3.4,7.6,7.6,7.6s7.6-3.4,7.6-7.6v-139.6c0-24.5,19.9-44.5,44.5-44.5h155.4c24.5,0,44.5,19.9,44.5,44.5v190.6c0,24.5-19.9,44.5-44.5,44.5h-155.4c-24.5,0-44.5-19.9-44.5-44.5v-25.7c0-4.2-3.4-7.6-7.6-7.6s-7.6,3.4-7.6,7.6v25.7c0,32.9,26.8,59.7,59.7,59.7h155.4c32.9,0,59.7-26.8,59.7-59.7v-190.6c0-32.9-26.8-59.7-59.7-59.7Z"/>
      <path d="M153.9,200c4.2,0,7.6-3.4,7.6-7.6v-29.9c0-3.9,3.2-7.1,7.1-7.1h114.1c4.2,0,7.6-3.4,7.6-7.6s-3.4-7.6-7.6-7.6h-114.1c-12.3,0-22.3,10-22.3,22.3v29.9c0,4.2,3.4,7.6,7.6,7.6Z"/>
      <path d="M308,140.2c-4.2,0-7.6,3.4-7.6,7.6s3.4,7.6,7.6,7.6h35.3c3.9,0,7.1,3.2,7.1,7.1v29.9c0,4.2,3.4,7.6,7.6,7.6s7.6-3.4,7.6-7.6v-29.9c0-12.3-10-22.3-22.3-22.3h-35.3Z"/>
      <path d="M171.6,130c4.2-.3,7.4-3.9,7.1-8-.2-3.8.3-14.8,5.4-20.1,2.1-2.2,4.7-3.2,8.3-3.2,27.9,0,48.2-17.7,48.2-42.1s-.5-9.2-1-13.8c-1-9.3-2.1-19,1.8-23.4,2.5-2.8,7.5-4.1,15-4.1s12.5,1.4,15,4.1c3.9,4.4,2.8,14,1.8,23.4-.5,4.6-1,9.3-1,13.8,0,24.4,20.3,42.1,48.2,42.1s6.3,1,8.3,3.2c5.1,5.4,5.6,16.4,5.4,20.1-.3,4.2,2.9,7.8,7.1,8.1.2,0,.3,0,.5,0,4,0,7.3-3.1,7.6-7.1.1-2.1,1-20.3-9.4-31.5-4.9-5.3-11.7-8-19.4-8-19.4,0-33-11-33-26.9s.5-7.8.9-12.1c1.3-12.1,2.9-25.7-5.6-35.2-5.6-6.2-14.2-9.2-26.3-9.2s-20.8,3-26.3,9.2c-8.4,9.4-6.9,23.1-5.6,35.2.5,4.4.9,8.5.9,12.1,0,15.8-13.5,26.9-33,26.9s-14.5,2.8-19.4,8c-10.4,11.1-9.6,29.4-9.4,31.5.3,4.2,3.9,7.3,8.1,7.1Z"/>
      <path d="M339.5,254.8h-43.6c-4.2,0-7.6,3.4-7.6,7.6s3.4,7.6,7.6,7.6h43.6c4.2,0,7.6-3.4,7.6-7.6s-3.4-7.6-7.6-7.6Z"/>
      <path d="M295.9,366.8h43.6c4.2,0,7.6-3.4,7.6-7.6s-3.4-7.6-7.6-7.6h-43.6c-4.2,0-7.6,3.4-7.6,7.6s3.4,7.6,7.6,7.6Z"/>
      <path d="M339.5,319.3h-31.4c-4.2,0-7.6,3.4-7.6,7.6s3.4,7.6,7.6,7.6h31.4c4.2,0,7.6-3.4,7.6-7.6s-3.4-7.6-7.6-7.6Z"/>
      <path d="M339.5,287h-31.4c-4.2,0-7.6,3.4-7.6,7.6s3.4,7.6,7.6,7.6h31.4c4.2,0,7.6-3.4,7.6-7.6s-3.4-7.6-7.6-7.6Z"/>
      <path d="M339.5,416.1h-31.4c-4.2,0-7.6,3.4-7.6,7.6s3.4,7.6,7.6,7.6h31.4c4.2,0,7.6-3.4,7.6-7.6s-3.4-7.6-7.6-7.6Z"/>
      <path d="M339.5,383.9h-31.4c-4.2,0-7.6,3.4-7.6,7.6s3.4,7.6,7.6,7.6h31.4c4.2,0,7.6-3.4,7.6-7.6s-3.4-7.6-7.6-7.6Z"/>
      <path d="M295.9,463.6h43.6c4.2,0,7.6-3.4,7.6-7.6s-3.4-7.6-7.6-7.6h-43.6c-4.2,0-7.6,3.4-7.6,7.6s3.4,7.6,7.6,7.6Z"/>
      <g>
        <path class="cls-4" d="M-837,258.3c6.5-11.2,12.3-21.8,17.3-31.6,4.7-8.6,8.2-17.5,10.5-26.5v-.5c1.9-8.3,1.2-15.3-1.8-21-5.3-9.7-17-14.5-35.1-14.5s-8.8.4-13.2,1.2c-11.1,2-22.6,5.9-34.2,11.6-5.6,2.8-10.4,6.5-14.6,11.2-4.2,4.7-8.3,10-12.3,15.9-2.6,3.7-5.4,7.5-8.5,11.5-1.5-7.5-1.7-14.2-.4-20.3,1.4-6.8,4.5-13.3,9.3-19.6,10.7-14.6,22.1-24.9,34.4-31,12.3-6.1,23.8-9.1,34.5-9.1,16.4,0,30.2,6.3,41.5,19,7.7,9.5,14.3,19.9,20.1,31.1,5.1,10,7.2,18.4,6.2,25.2-1,6.8-1.6,10.8-1.9,12.2-2.2,10.5-6.9,20.1-14,29-8.1,10.1-18.9,17-32.5,20.7-2.2.5-7.1,1.4-14.7,2.7,3.4-6.1,6.6-11.8,9.7-17.1h0Z"/>
        <path class="cls-4" d="M-920.7,276.8c-1.9-3.6-3.1-7.9-3.6-12.9-.5-5-.2-10,.9-15.1.8-3.6,1.9-7.2,3.5-10.8,3.7-8.7,8.9-15.9,15.6-21.7,4.4,1.7,8.1,4.6,11,8.5,2.9,3.9,5.7,8.8,8.5,14.8-4,5.8-7.1,11.9-9.4,18.3-1.5,4.3-3.4,8.4-5.5,12.4-2.2,4-5.1,7.6-8.9,10.7h-2.9c-4.4.1-7.5-1.3-9.1-4.2h0Z"/>
        <path class="cls-4" d="M-785,277.3l6.2-15c3-6.8,5.8-13.7,8.4-20.6,2.6-6.9,5.2-15,7.6-24.2,3.3-12.4,7.1-25.2,11.3-38.4,2.4-7.5,4.6-14.7,6.7-21.7l7.1-25.5c4.1-15.6,8.7-31.1,13.9-46.5,5.1-15.4,11.8-30.6,20.1-45.7,3.6-6.4,8-12.8,13.1-19.3,5.1-6.5,10.6-12.2,16.3-17.1,11-8.6,19.6-13,25.8-13.1,6.2-.1,9.5-.2,10-.2,11.4,0,21.4,3.5,29.9,10.5,4.2,3.4,8,7.1,11.6,11.1,3.5,4,6.3,8.7,8.3,14.1-.7-.6-1.4-1.2-2.1-1.7-1.7-1.2-3.1-2.6-4.4-4.1-3.9-4.4-8-6.9-12.1-7.4-4.1-.5-7.1-.7-8.8-.7-4.8,0-9.6.7-14.6,2.1-6.7,1.9-12.3,4.7-16.9,8.2-9.3,7.5-16.9,16.2-22.9,26-11.8,19.3-20.9,39.3-27.5,59.9-5.8,17.9-11.5,35.7-17,53.6l-9.8,30.6c-3.3,10.7-6.8,20.8-10.3,30.2-3.6,9.4-8,20.3-13.3,32.5-2.9,7-7,13.3-12.3,19.1-3.3,3.2-6.4,5-9.2,5.4-2.8.4-4.8.6-5.8.6-3.4,0-6.5-.9-9.4-2.6h0Z"/>
        <path class="cls-4" d="M-644.3,146.1c-13.9-6.7-27-10.7-39.2-12-1.8-.2-3.2,1.1-4.2,3.9-2.8,7-4.7,14.9-5.5,23.7-.8,9.4.7,15,4.6,16.8,9.2,3.7,16.6,6.7,22.2,9,8.4,3.9,12.6,10,12.6,18.4v8c0,1.5.8,2.5,2.5,3,2,.2,3.3-.5,3.9-2,10.9-22.7,16.4-38.8,16.4-48.3s-4.4-16.5-13.2-20.6"/>
        <path class="cls-4" d="M-497.9,232.6h-11.6c3.2-5.1,5.9-19,8.1-41.8.2-3,.3-6.1.3-9.1,0-14.4-3.4-24.9-10.1-31.8-6-6.3-17.5-9.4-34.4-9.4h-38.4c-10.1,0-17.5-1.2-22.2-3.5-4.5-2.4-7.9-1.7-10.1,2.2-2.7,5.1-4.1,12.4-4.1,21.9s.8,16.4,2.5,19c3,4.3,10.9,6.4,23.6,6.4h41.2c10.1,0,17.5,1.5,22.2,4.6,7.1,4.5,12.2,16.1,15.1,34.8.5,3,1,5.2,1.6,6.7h-85.6c-8,0-13.2,2.7-15.7,8-4.3,9.2-7.4,19.8-9.4,31.6-.6,4.5,1.6,6.8,6.8,6.8h101.7c8,0,13.3-2.7,15.9-8,3.9-8,7-18.5,9.3-31.6.8-4.5-1.4-6.8-6.8-6.8"/>
        <path class="cls-4" d="M-176,232.6h-11.6c3.2-5.1,5.9-19,8.1-41.8.2-3,.3-6.1.3-9.1,0-14.4-3.4-24.9-10.1-31.8-6-6.3-17.5-9.4-34.4-9.4h-38.4c-10.1,0-17.5-1.2-22.2-3.5-4.5-2.4-7.9-1.7-10.1,2.2-2.7,5.1-4.1,12.4-4.1,21.9s.8,16.4,2.5,19c3,4.3,10.9,6.4,23.6,6.4h41.2c10.1,0,17.5,1.5,22.2,4.6,7.1,4.5,12.2,16.1,15.1,34.8.5,3,1,5.2,1.6,6.7h-85.6c-8,0-13.2,2.7-15.7,8-4.3,9.2-7.4,19.8-9.4,31.6-.6,4.5,1.6,6.8,6.8,6.8h101.7c8,0,13.3-2.7,15.9-8,3.9-8,7-18.5,9.3-31.6.8-4.5-1.4-6.8-6.8-6.8"/>
        <path class="cls-4" d="M-307.8,158.6c0-3.5-1.8-6.6-5.3-9.4-3.5-2.8-9.7-5.8-18.5-9.2-8.8-3.4-15.2-5.1-19-5.3-1.7,0-3.1.2-4.2.6-2.1,1.2-3.8,5.8-5,13.8-1.2,6.3-1.7,11.6-1.7,15.9s.4,8,1.3,10.5c5.3,6.1,13.6,11.8,25,17.1-6.3,6.9-11.7,13.3-16.1,19-6.9,8.2-12.5,13.5-16.7,16-5,3-12.4,4.6-22,4.6h-15.3c3.1-6.1,7.3-14.4,8.8-18.2,2.5-6.3,16.9-35.5,16.9-35.5l-.8.4c.7-1.3,1.3-2.6,2-4,3.5-7.7,5.2-13.6,5.2-17.9s-.9-4.9-2.7-6.8c-3.5-3.7-9.5-7.1-18.1-10.4-7.2-2.6-14-4.3-20.3-5.2-2.9,0-4.8.8-5.7,2.4-4.3,8.3-6.4,18.5-6.4,30.5s.3,5.9.9,8c4.8,5.6,14.2,12.1,28.2,19.4-2.8,5.7-6.4,12.2-8.9,15-10.8,12-17.1,18.6-20.4,22-2.6,0-4.4-.2-5.6-.4-3.9-.4-6.9-1.6-9.2-3.5-2.3-1.9-4.2-6.8-6-14.7-1.6-7.1-2.4-13.9-2.7-20.7,3.2-4.7,6.1-10.4,8.7-17.2,3.2-8.1,4.9-14.3,4.9-18.6s-1.8-6.6-5.5-9.4c-8.2-6.4-20.8-10.7-37.9-12.9-3.3,0-5.2.8-5.8,2.4-3.5,6.8-5.2,16-5.2,27.7s.5,8.3,1.6,10.8c3.2,3.9,8.6,8,16.2,12.3,2.9,1.8,7.7,4.2,14.3,7.4-4.8,8.9-7.2,15-7.2,18.4.2,9.2.6,16.2,1.3,20.9,2.8,16.6,5,28.1,6.4,34.7,1.5,6.6,4.1,9.8,8,9.8h65.4c9.4,0,15.1-.3,17.1-.9,5.8-2,10-5.1,12.7-9.4,1.6-2.3,4.7-9.4,9.4-21.2,8.8-21.1,15.9-37.7,21.3-50,.2,0,.3.1.5.2,4.5-5.2,8.5-12.5,12-21.7,2.7-7.7,4.1-13.4,4.1-17.3"/>
        <path class="cls-2" d="M-818,97.9c-.6.5-1.2,1-1.8,1.5-.5-1-1-1.9-1.4-3,1.1.4,2.2.9,3.2,1.4M-817.8,105.8c.5-.1,1.1-.3,1.6-.4.1,0,.3,0,.5-.2-.3,1.2-.7,2.4-1.2,3.5-.4-.9-.6-1.9-.9-2.9M-819,101.4c1-.8,2-1.6,3-2.4.7.3,1.3.7,2,1-.4,1-.8,2.1-1.1,3.2-1.1.1-2.1.3-3.2.4-.1-.4-.2-.8-.3-1.2-.1-.3-.2-.6-.4-1M-809.3,102.4c-1,.1-1.9.2-2.9.4.2-.5.3-1.1.5-1.6.8.4,1.6.8,2.4,1.3M-811.4,92.6c-1.6,1.1-3.1,2.4-4.5,3.6-2.2-1.1-4.5-2.2-6.9-3.1-1-.4-1.9.5-1.7,1.5.4,2.4,1.5,4.5,2.5,6.6-1.5,1.1-3,2.1-4.6,3-1,.6-.8,2.2.4,2.2,1.9,0,3.8,0,5.7-.2.5,2.3,1.1,4.6,2.6,6.4.6.7,1.8.6,2.3-.1,1.6-2.6,2.2-5.5,3-8.4,1.4-.5,2.8-.9,4.2-1.3.8.4,1.7.9,2.5,1.3,1.3.6,2.5-1.2,1.3-1.8-2.1-1.1-4.1-2.3-6.2-3.4.6-1.8,1.1-3.5,1.4-5.4.2-1.1-1.2-1.5-1.9-.9"/>
        <path class="cls-3" d="M-756.8,55.9c.5.9,1,1.8,1.5,2.7-.7.2-1.5.4-2.2.6.2-1.1.4-2.2.7-3.3M-749.8,66.1c-1.1-.3-2.3-.6-3.4-1,.1,0,.3-.2.4-.3.4-.3.8-.7,1.2-1,.7.7,1.3,1.5,1.8,2.3M-753.8,61.2c.2.3.5.6.7.9-.7.8-1.4,1.5-2.1,2.3-1-.3-2-.6-3.1-.9.1-.7.2-1.4.3-2.1,1.2-.3,2.4-.6,3.6-1,.2.3.3.5.5.8M-758.6,65.8c.5.2,1,.3,1.5.5-.6.7-1.2,1.4-1.9,2,.1-.8.2-1.7.3-2.5M-765.7,63.3c1.6.8,3.3,1.4,4.9,1.9-.3,2.2-.5,4.5-.8,6.7-.2,1.4,1.9,1.4,2.1,0,.1-.9.3-1.8.4-2.6,1.1-.9,2.2-1.7,3.4-2.5,2.7,1,5.3,2.2,8.2,2.4.9,0,1.6-.8,1.4-1.7-.6-2.2-2-3.9-3.5-5.6,1.2-1.3,2.3-2.7,3.3-4.2.6-1-.5-2-1.5-1.6-1.6.7-3.2,1.3-4.9,1.8-1.1-2-2.1-4-3.7-5.6-.7-.7-1.8-.5-2.1.5-.7,2.3-1.1,4.7-1.5,7-1.8.4-3.6.9-5.3,1.5-.8.3-1.3,1.5-.3,2"/>
        <path class="cls-5" d="M-781.4,103c1.2,0,2.5.3,3.7.4-.3.8-.6,1.7-1,2.5-.9-1-1.8-1.9-2.7-3M-766.6,103.1c-1,.9-2.2,1.8-3.3,2.6,0-.2,0-.4,0-.6,0-.6,0-1.3-.1-1.9,1.2-.1,2.3-.2,3.5-.2M-774.2,103.7c.5,0,.9,0,1.4,0,.3,1.2.5,2.4.8,3.6-1,.7-2,1.5-3,2.4-.6-.6-1.2-1.2-1.8-1.8.5-1.4,1-2.8,1.5-4.1.4,0,.8,0,1.2,0M-772.9,111.6c.5-.4,1-.8,1.5-1.1.2,1.1.5,2.1.7,3.2-.7-.7-1.5-1.4-2.2-2.1M-780.2,116.7c1.9-1,3.6-2.2,5.2-3.5,2,1.8,4,3.6,6,5.4,1.2,1.1,2.7-.9,1.5-2-.8-.7-1.5-1.5-2.3-2.2-.1-1.7-.1-3.3-.1-5,2.8-2,5.7-3.7,7.9-6.4.7-.8.3-2.2-.7-2.5-2.5-.9-5.2-.7-7.8-.4-.4-2.1-1.1-4.1-1.9-6.1-.5-1.3-2.3-.9-2.6.3-.4,2-.9,4-1.6,6-2.7-.2-5.4-.7-8-.2-1.1.2-1.7,1.5-1,2.4,1.8,2.2,3.8,4.3,5.8,6.3-.8,2-1.6,4.1-2.2,6.2-.3,1,.6,2.3,1.7,1.7"/>
        <path class="cls-5" d="M-249,203.4c.6,1,1.1,2,1.6,3-.8.2-1.6.4-2.4.6.2-1.2.5-2.4.8-3.6M-241.3,214.6c-1.3-.3-2.5-.7-3.7-1.1.1-.1.3-.2.4-.3.5-.3.9-.7,1.4-1.1.7.8,1.4,1.6,2,2.5M-245.7,209.2c.3.3.5.7.8,1-.8.8-1.5,1.7-2.3,2.5-1.1-.4-2.3-.7-3.4-1,.1-.8.2-1.5.4-2.3,1.3-.3,2.6-.7,3.9-1.1.2.3.4.6.6.9M-250.9,214.3c.6.2,1.1.4,1.7.5-.7.7-1.4,1.5-2.1,2.2.1-.9.3-1.9.4-2.8M-258.8,211.5c1.8.9,3.6,1.5,5.4,2.1-.3,2.5-.6,4.9-.9,7.3-.2,1.5,2.1,1.5,2.3,0,.2-1,.3-1.9.4-2.9,1.2-1,2.4-1.9,3.7-2.7,3,1.1,5.8,2.4,9,2.6,1,0,1.8-.9,1.5-1.9-.6-2.4-2.2-4.3-3.9-6.1,1.3-1.4,2.5-3,3.6-4.7.7-1.1-.5-2.3-1.6-1.8-1.7.8-3.5,1.4-5.4,2-1.2-2.1-2.3-4.4-4.1-6.2-.7-.7-2-.5-2.3.5-.7,2.6-1.2,5.1-1.7,7.8-2,.5-3.9,1-5.8,1.6-.9.3-1.4,1.7-.4,2.2"/>
        <path class="cls-5" d="M-563.1,299c.6,1,1.1,2,1.6,3-.8.2-1.6.4-2.4.6.2-1.2.5-2.4.8-3.6M-555.4,310.2c-1.3-.3-2.5-.7-3.7-1.1.1-.1.3-.2.4-.3.5-.3.9-.7,1.4-1.1.7.8,1.4,1.6,2,2.5M-559.8,304.8c.3.3.5.7.8,1-.8.8-1.5,1.7-2.3,2.5-1.1-.4-2.3-.7-3.4-1,.1-.8.2-1.5.4-2.3,1.3-.3,2.6-.7,3.9-1.1.2.3.4.6.6.9M-565.1,310c.6.2,1.1.4,1.7.5-.7.7-1.4,1.5-2.1,2.2.1-.9.3-1.9.4-2.8M-572.9,307.1c1.8.9,3.6,1.5,5.4,2.1-.3,2.5-.6,4.9-.9,7.3-.2,1.5,2.1,1.5,2.3,0,.1-1,.3-1.9.4-2.9,1.2-1,2.4-1.9,3.7-2.7,3,1.1,5.8,2.4,9,2.6,1,0,1.8-.9,1.5-1.9-.6-2.4-2.2-4.3-3.9-6.1,1.3-1.4,2.5-3,3.6-4.7.7-1.1-.5-2.3-1.6-1.8-1.7.8-3.5,1.4-5.4,2-1.2-2.1-2.3-4.4-4.1-6.2-.7-.7-2-.5-2.3.5-.7,2.5-1.2,5.1-1.7,7.8-2,.5-3.9,1-5.8,1.6-.9.3-1.4,1.7-.4,2.2"/>
        <path class="cls-5" d="M-249,299c.6,1,1.1,2,1.6,3-.8.2-1.6.4-2.4.6.2-1.2.5-2.4.8-3.6M-241.3,310.2c-1.3-.3-2.5-.7-3.7-1.1.1-.1.3-.2.4-.3.5-.3.9-.7,1.4-1.1.7.8,1.4,1.6,2,2.5M-245.7,304.8c.3.3.5.7.8,1-.8.8-1.5,1.7-2.3,2.5-1.1-.4-2.3-.7-3.4-1,.1-.8.2-1.5.4-2.3,1.3-.3,2.6-.7,3.9-1.1.2.3.4.6.6.9M-250.9,310c.6.2,1.1.4,1.7.5-.7.7-1.4,1.5-2.1,2.2.1-.9.3-1.9.4-2.8M-258.8,307.1c1.8.9,3.6,1.5,5.4,2.1-.3,2.5-.6,4.9-.9,7.3-.2,1.5,2.1,1.5,2.3,0,.2-1,.3-1.9.4-2.9,1.2-1,2.4-1.9,3.7-2.7,3,1.1,5.8,2.4,9,2.6,1,0,1.8-.9,1.5-1.9-.6-2.4-2.2-4.3-3.9-6.1,1.3-1.4,2.5-3,3.6-4.7.7-1.1-.5-2.3-1.6-1.8-1.7.8-3.5,1.4-5.4,2-1.2-2.1-2.3-4.4-4.1-6.2-.7-.7-2-.5-2.3.5-.7,2.5-1.2,5.1-1.7,7.8-2,.5-3.9,1-5.8,1.6-.9.3-1.4,1.7-.4,2.2"/>
        <path class="cls-5" d="M-412.5,299c.6,1,1.1,2,1.6,3-.8.2-1.6.4-2.4.6.2-1.2.5-2.4.8-3.6M-404.7,310.2c-1.3-.3-2.5-.7-3.7-1.1.1-.1.3-.2.4-.3.5-.3.9-.7,1.4-1.1.7.8,1.4,1.6,2,2.5M-409.2,304.8c.3.3.5.7.8,1-.8.8-1.5,1.7-2.3,2.5-1.1-.4-2.3-.7-3.4-1,.1-.8.2-1.5.4-2.3,1.3-.3,2.6-.7,3.9-1.1.2.3.4.6.6.9M-414.4,310c.6.2,1.1.4,1.7.5-.7.7-1.4,1.5-2.1,2.2.1-.9.3-1.9.4-2.8M-422.2,307.1c1.8.9,3.6,1.5,5.4,2.1-.3,2.5-.6,4.9-.9,7.3-.2,1.5,2.1,1.5,2.3,0,.2-1,.3-1.9.4-2.9,1.2-1,2.4-1.9,3.7-2.7,3,1.1,5.8,2.4,9,2.6,1,0,1.8-.9,1.5-1.9-.6-2.4-2.2-4.3-3.9-6.1,1.3-1.4,2.5-3,3.6-4.7.7-1.1-.5-2.3-1.6-1.8-1.7.8-3.5,1.4-5.4,2-1.2-2.1-2.3-4.4-4.1-6.2-.7-.7-2-.5-2.3.5-.7,2.5-1.2,5.1-1.7,7.8-2,.5-3.9,1-5.8,1.6-.9.3-1.4,1.7-.4,2.2"/>
        <path class="cls-5" d="M-412.5,337.7c.6,1,1.1,2,1.6,3-.8.2-1.6.4-2.4.6.2-1.2.5-2.4.8-3.6M-404.7,348.9c-1.3-.3-2.5-.7-3.7-1.1.1-.1.3-.2.4-.3.5-.3.9-.7,1.4-1.1.7.8,1.4,1.6,2,2.5M-409.2,343.5c.3.3.5.7.8,1-.8.8-1.5,1.7-2.3,2.5-1.1-.4-2.3-.7-3.4-1,.1-.8.2-1.5.4-2.3,1.3-.3,2.6-.7,3.9-1.1.2.3.4.6.6.9M-414.4,348.6c.6.2,1.1.4,1.7.5-.7.7-1.4,1.5-2.1,2.2.1-.9.3-1.9.4-2.8M-422.2,345.8c1.8.9,3.6,1.5,5.4,2.1-.3,2.5-.6,4.9-.9,7.3-.2,1.5,2.1,1.5,2.3,0,.2-1,.3-1.9.4-2.9,1.2-1,2.4-1.9,3.7-2.7,3,1.1,5.8,2.4,9,2.6,1,0,1.8-.9,1.5-1.9-.6-2.4-2.2-4.3-3.9-6.1,1.3-1.4,2.5-3,3.6-4.7.7-1.1-.5-2.3-1.6-1.8-1.7.8-3.5,1.4-5.4,2-1.2-2.1-2.3-4.4-4.1-6.2-.7-.7-2-.5-2.3.5-.7,2.5-1.2,5.1-1.7,7.8-2,.5-3.9,1-5.8,1.6-.9.3-1.4,1.7-.4,2.2"/>
        <path class="cls-5" d="M-730.2,293.6c-.1,1-.2,3-1.2,3.5-2.2,1.1-4.7,1.3-7.1,1.4-7.1.4-14.2.4-21.2-.1-4.2-.3-8.4-.5-12.6-.8-.2,0-.3,0-.5,0-5.5-.4-8.8-.6-10.1-.7-7-.5-12.7-.6-17-.4-1.4,0-2.8.2-4.2.3-.7,0-1.4.2-2.1.3-1.4.2-2.7.4-4.1.6-.4,0-.8.2-1.2.3-.2,0-.4,0-.6.2-.2,0-.4.1-.5,0,.2-.5.6-1,1-1.5.4-.5.8-.9,1.2-1.4,0,0,.2-.2.2-.2.9-.9,2.2-1.6,3.7-2.1,4.8-1.6,10.4-2.6,16.6-3,1.4,0,2.8-.1,4.3-.1,11.5-.1,20.8,0,28.2.5,5,.3,9.9.4,14.8.1,3.9-.2,7.4-.8,10.6-1.9.2,0,.3,0,.4-.2.8-.4,1.7-.6,2.6-.6.5,0,1,0,1.5,0-.4,1.5-1,2.9-1.8,4.1-.3.4-.5.9-.6,1.4"/>
      </g>
    </g>
  </g>
</svg>