<?xml version="1.0" encoding="UTF-8"?>
<svg xmlns="http://www.w3.org/2000/svg" version="1.1" viewBox="0 0 512 512">
  <defs>
    <style>
      .cls-1 {
        fill: #9ed6da;
      }

      .cls-2 {
        fill: #ffd272;
      }

      .cls-3 {
        fill: #87ccd1;
      }

      .cls-4 {
        fill: #ff82ab;
      }

      .cls-5 {
        fill: #94d1d6;
      }

      .cls-6 {
        fill: #ffcc61;
      }
    </style>
  </defs>
  <!-- Generator: Adobe Illustrator 28.7.1, SVG Export Plug-In . SVG Version: 1.2.0 Build 142)  -->
  <g>
    <g id="Capa_1">
      <g>
        <g>
          <path class="cls-2" d="M183.9,416.3h192.4v32.1h-192.4v-32.1Z"/>
          <path class="cls-6" d="M151.8,392.3c-31,0-56.1,25.1-56.1,56.1s25.1,56.1,56.1,56.1,56.1-25.1,56.1-56.1-25.1-56.1-56.1-56.1h0Z"/>
          <path class="cls-1" d="M448.4,175.8l-42.7-106.8c-3.4-8.5-10.3-15.2-19-18.3l-98.6-35.2-8,8v160.3h160.3l8-8Z"/>
          <path class="cls-3" d="M288.1,15.5c0-4.4-3.6-8-8-8h-16c-4.4,0-8,3.6-8,8v176.4h32.1V15.5h0Z"/>
          <path class="cls-3" d="M440.4,207.9l-6.2,74.1c-1,12.5-11.5,22.1-24,22.1H133.8c-12.5,0-22.9-9.6-24-22.1l-6.2-74.1,8-16h320.6l8,16Z"/>
          <path class="cls-5" d="M111.7,191.9l-8,16,6.2,74.1c1,12.5,11.5,22.1,24,22.1h8.1l-4.9-63.5c-.2-2.2.6-4.4,2.1-6.1,1.5-1.7,3.6-2.6,5.9-2.6h293.3l2-24-8-16H111.7Z"/>
          <path class="cls-1" d="M448.4,207.9H95.7c-4.4,0-8-3.6-8-8v-16c0-4.4,3.6-8,8-8h352.7c4.4,0,8,3.6,8,8v16c0,4.4-3.6,8-8,8Z"/>
          <path class="cls-6" d="M392.3,408.3c-26.6,0-48.1,21.5-48.1,48.1s21.5,48.1,48.1,48.1,48.1-21.5,48.1-48.1-21.5-48.1-48.1-48.1h0Z"/>
          <g>
            <circle class="cls-4" cx="392.3" cy="456.4" r="16"/>
            <circle class="cls-4" cx="151.8" cy="448.4" r="24"/>
          </g>
        </g>
        <g>
          <path d="M453.9,169.4l-41.2-103.1c-4.2-10.5-12.8-18.8-23.4-22.6l-94.7-33.8C292.2,4.1,286.6,0,280,0h-16C255.5,0,248.5,7,248.5,15.5v152.8h-53.5l-84.6-84.6c-7.5-7.5-17.4-11.6-28-11.6h-26.8c-4.1,0-7.5,3.4-7.5,7.5s3.4,7.5,7.5,7.5h26.8c6.6,0,12.7,2.6,17.4,7.2l74,74h-78.1c-8.6,0-15.5,7-15.5,15.5v16c0,8.6,7,15.5,15.5,15.5h1.1l5.6,67.3c1.4,16.2,15.2,28.9,31.4,28.9h71.1c4.1,0,7.5-3.4,7.5-7.5s-3.4-7.5-7.5-7.5h-71.1c-8.5,0-15.8-6.7-16.5-15.2l-5.5-66h109l43,43-84.5,132.6c-8.4-4-17.7-6.3-27.6-6.3-35.1,0-63.6,28.5-63.6,63.6s28.5,63.6,63.6,63.6,59.4-24.6,63.2-56.1h97.2c4.1,0,7.5-3.4,7.5-7.5s-3.4-7.5-7.5-7.5h-97.2c-.7-6-2.2-11.7-4.5-17.1h136.8c-6.7,9.2-10.6,20.4-10.6,32.6,0,30.7,24.9,55.6,55.6,55.6s55.6-24.9,55.6-55.6-21-51.4-48.1-55.1v-8.5c0-12.7-4.9-24.7-13.9-33.6l-47.6-47.6h72c16.3,0,30.1-12.7,31.4-28.9l5.6-67.3h1.1c8.6,0,15.5-7,15.5-15.5v-16c0-6.6-4.2-12.3-10-14.5h0ZM386.9,59l-91.3,97.8V26.2l88.6,31.6c.9.3,1.8.7,2.7,1.2ZM263.5,15.5c0-.3.2-.5.5-.5h16c.3,0,.5.2.5.5v152.8h-17.1V15.5ZM95.7,200.4c-.3,0-.5-.2-.5-.5v-16c0-.3.2-.5.5-.5h93.1l17.1,17.1h-110.2ZM302,296.6h-44.7l17.4-27.3,27.3,27.3ZM151.8,497c-26.8,0-48.6-21.8-48.6-48.6s21.8-48.6,48.6-48.6,48.6,21.8,48.6,48.6-21.8,48.6-48.6,48.6h0ZM432.9,456.4c0,22.4-18.2,40.6-40.6,40.6s-40.6-18.2-40.6-40.6,18.2-40.6,40.6-40.6,40.6,18.2,40.6,40.6ZM375.2,369.8c6.2,6.2,9.5,14.3,9.5,23v8.5c-7.7,1-14.9,3.6-21.2,7.5h-162c-2.8-3.5-6-6.8-9.5-9.7l55.8-87.6h69.2l58.2,58.2ZM426.7,281.4c-.7,8.5-8,15.2-16.5,15.2h-87l-81.2-81.2h190.2l-5.5,66ZM448.9,199.9c0,.3-.2.5-.5.5h-221.3l-17.1-17.1h182.3c4.1,0,7.5-3.4,7.5-7.5s-3.4-7.5-7.5-7.5h-87l92.3-98.9c.4.8.8,1.5,1.1,2.3l38.6,96.5h-13c-4.1,0-7.5,3.4-7.5,7.5s3.4,7.5,7.5,7.5h24s0,0,0,0h0c.3,0,.5.2.5.5v16h0Z"/>
          <path d="M151.8,416.8c-17.4,0-31.5,14.2-31.5,31.5s14.2,31.5,31.5,31.5,31.5-14.2,31.5-31.5-14.2-31.5-31.5-31.5ZM151.8,464.9c-9.1,0-16.5-7.4-16.5-16.5s7.4-16.5,16.5-16.5,16.5,7.4,16.5,16.5-7.4,16.5-16.5,16.5Z"/>
          <path d="M368.7,456.4c0,13,10.6,23.5,23.5,23.5s23.5-10.6,23.5-23.5-10.6-23.5-23.5-23.5-23.5,10.6-23.5,23.5ZM400.8,456.4c0,4.7-3.8,8.5-8.5,8.5s-8.5-3.8-8.5-8.5,3.8-8.5,8.5-8.5,8.5,3.8,8.5,8.5Z"/>
        </g>
      </g>
    </g>
  </g>
</svg>