<?xml version="1.0" encoding="UTF-8"?>
<svg xmlns="http://www.w3.org/2000/svg" version="1.1" viewBox="0 0 512 512">
  <defs>
    <style>
      .cls-1 {
        fill: #ff99ba;
      }

      .cls-2 {
        fill: #c5e7e9;
      }

      .cls-3 {
        fill: #ffb2cb;
      }

      .cls-4 {
        fill: #ffefd4;
      }

      .cls-5 {
        fill: #87ccd1;
      }

      .cls-6 {
        fill: #ff82ab;
      }

      .cls-7 {
        fill: #94d1d6;
      }

      .cls-8 {
        fill: #ffcc61;
      }

      .cls-9 {
        fill: #ffd989;
      }
    </style>
  </defs>
  <!-- Generator: Adobe Illustrator 28.7.1, SVG Export Plug-In . SVG Version: 1.2.0 Build 142)  -->
  <g>
    <g id="Capa_1">
      <g>
        <g>
          <path class="cls-9" d="M338.5,118.1c0,21.6-19.3,38.5-41.3,34.8l-8.7-32.3,9-37.3c21.6-3.5,41,13.2,41,34.8Z"/>
          <path class="cls-8" d="M79.8,152.9c-22,3.7-41.3-13.2-41.3-34.8s19.4-38.3,41-34.8l11.5,34.8-11.2,34.8Z"/>
          <path class="cls-7" d="M451,342.3l-137,14.5-58-22-10.6-63.3,8.1-34.1c29.1-1,54.1,16.2,64.6,41,21.4-7.7,46.2-2.8,63.1,14.4,34.1-11.8,69.8,13.5,69.8,49.6Z"/>
          <path class="cls-7" d="M124.5,235.7l7.3,16.6-17.9,15-40.1,15.5-30.9-15.5c13.2-32.5,50.9-46.4,81.6-31.6h0Z"/>
          <path class="cls-4" d="M227.3,210.6c-21.4-5.1-16.6-4-38.8-9.3l-38.8,9.3c-19.5,11.8-33.5,32.5-35.9,56.7,11.1,4,41,14.9,52.1,19l97.5,23.9v-35.4c0-27.2-14.5-51.1-36.2-64.2h0Z"/>
          <path class="cls-9" d="M182.9,207.6l14-4.3-8.4-2-38.8,9.3c-19.5,11.8-33.5,32.5-35.9,56.7l33.2,12.1c2.3-27.2,14.1-55,35.8-71.8h0Z"/>
          <g>
            <path class="cls-6" d="M119.2,328l-39.4-15.7-44.2,14.9,4.8,78.6c3.2,52.8,46.9,94,99.8,94h22l-42.9-171.8Z"/>
            <path class="cls-1" d="M468.1,408.4l.5-6.2-299.7-87-49.8,12.7c-8.7,59.6,5.6,121.4,42.9,171.8h206.4c51.9,0,95.1-39.7,99.6-91.3Z"/>
          </g>
          <path class="cls-3" d="M474.5,342.3c16.6,0,30,13.4,30,30s-13.4,30-30,30h-160.6c-29.4,0-57.5-12.6-77.1-34.6-18.4-20.6-43.5-34.2-70.9-38.8l-19-31.7,19-28.9c43.9,4.9,85.5,25.5,115.6,59.4,8.2,9.2,20,14.5,32.3,14.5h160.6Z"/>
          <g>
            <path class="cls-1" d="M71.8,267.3h-34.3c-16.6,0-30,13.4-30,30s13.4,30,30,30h34.3v-60Z"/>
            <path class="cls-3" d="M71.8,267.3c-16.6,0-30,13.4-30,30s13.4,30,30,30h11.7l15.3-27.5-15.3-32.5h-11.7Z"/>
          </g>
          <g>
            <path class="cls-5" d="M136.9,267.3h-53.4v113.1c0,12.1,9.8,21.9,21.9,21.9h14.8l16.7-135Z"/>
            <path class="cls-2" d="M166,380.3v-111.9c-13.8-1.5-23.1-1-29.1-1.1-19.3,43-24.5,90.2-16.7,135h23.8c12.1,0,21.9-9.8,21.9-21.9Z"/>
          </g>
          <circle class="cls-7" cx="481" cy="139.8" r="22.5"/>
          <circle class="cls-7" cx="398.5" cy="207.3" r="37.5"/>
          <path class="cls-4" d="M165.4,14.2c-52.4,9-91.6,48.7-91.6,103.9s48,94.5,107.7,96.9c66,2.7,121.7-30.9,121.7-96.9S236.1,2,165.4,14.2h0Z"/>
          <path class="cls-9" d="M118.6,118.1c0-54.9,38.9-95.3,92.7-104.1-14.6-2.5-30.1-2.5-45.8.2-52.4,9-91.6,48.7-91.6,103.9s48,94.5,107.7,96.9c10.1.4,20,0,29.5-1.3-52.4-7.1-92.4-39.6-92.4-95.6Z"/>
        </g>
        <g>
          <path d="M126.1,107.1c-4.1,0-7.5,3.4-7.5,7.5v12c0,4.1,3.4,7.5,7.5,7.5s7.5-3.4,7.5-7.5v-12c0-4.1-3.4-7.5-7.5-7.5Z"/>
          <path d="M251,134.1c4.1,0,7.5-3.4,7.5-7.5v-12c0-4.1-3.4-7.5-7.5-7.5s-7.5,3.4-7.5,7.5v12c0,4.1,3.4,7.5,7.5,7.5h0Z"/>
          <path d="M210.6,131.2c2.7-3.1,2.4-7.9-.7-10.6-3.1-2.7-7.9-2.4-10.6.7-5.7,6.6-15.9,6.6-21.6,0-2.7-3.1-7.5-3.4-10.6-.7-3.1,2.7-3.4,7.5-.7,10.6,11.7,13.4,32.5,13.4,44.2,0Z"/>
          <path d="M398.5,252.3c24.8,0,45-20.2,45-45s-20.2-45-45-45-45,20.2-45,45,20.2,45,45,45ZM398.5,177.3c16.5,0,30,13.5,30,30s-13.5,30-30,30-30-13.5-30-30,13.5-30,30-30Z"/>
          <path d="M481,169.8c16.5,0,30-13.5,30-30s-13.5-30-30-30-30,13.5-30,30,13.5,30,30,30ZM481,124.8c8.3,0,15,6.7,15,15s-6.7,15-15,15-15-6.7-15-15,6.7-15,15-15Z"/>
          <path d="M474.5,334.8h-16.5c-1.1-8.8-4.2-17.3-9-24.9-2.2-3.5-6.9-4.5-10.4-2.3-3.5,2.2-4.5,6.9-2.3,10.4,3.3,5.1,5.5,10.8,6.5,16.8h-128.9c-10.2,0-19.9-4.4-26.7-12-5.1-5.7-10.5-11.1-16.2-16.1v-32c0-10-1.8-19.9-5.3-29.2,20.1,3.3,37.4,16.6,45.6,35.7,1.6,3.7,5.7,5.5,9.5,4.1,18.4-6.6,40.1-2.8,55.2,12.6,2,2.1,5.1,2.8,7.8,1.8,9.5-3.3,20-3.3,29.4,0,3.9,1.4,8.2-.7,9.5-4.6,1.4-3.9-.7-8.2-4.6-9.5-10.9-3.8-23.1-4.4-34.8-1.3-17.1-15.2-40.1-20.2-61.2-15-12.7-23.7-37.3-38.9-64.4-39.5-4-6.1-8.7-11.6-14.1-16.5,27.4-10.3,47.8-28.4,58.5-52.4,24,.7,44-18.6,44-42.8s-19.5-43.2-43.5-42.8c-38.2-94.1-189.7-94.2-228.1,0-24-.4-43.5,19-43.5,42.8s20,43.5,44,42.8c10.7,24,31.1,42.2,58.5,52.4-4.4,3.9-8.3,8.3-11.8,13-31.5-11.6-68,1.7-83.7,33.4h-.5c-10,0-19.4,3.9-26.5,11-20.8,20.8-10.4,56,17.4,62.9l4.4,72.6c1.4,23.2,10.1,44.9,25,62.7,1.5,1.8,3.6,2.7,5.7,2.7,6.3,0,9.9-7.4,5.7-12.3-12.9-15.3-20.3-34-21.5-54l-4.3-70.6h32.5v45.6c0,16.2,13.2,29.4,29.4,29.4h38.7c16.2,0,29.4-13.2,29.4-29.4v-42.2c22.4,5.5,42.6,17.6,57.8,34.5,21,23.6,51.1,37.1,82.7,37.1h146.5c-5.1,47.2-44.3,82.5-91.9,82.5h-228.4c-16.2,0-32.1-4.2-46-12.3-3.6-2.1-8.2-.8-10.2,2.8s-.8,8.2,2.8,10.2c16.2,9.3,34.7,14.2,53.5,14.2h228.4c55.5,0,101.9-42.2,107-97.5,20.2-.5,36.5-17.1,36.5-37.5s-16.8-37.5-37.5-37.5h0ZM307.5,90.7c13.3,2.1,23.5,13.6,23.5,27.5s-10.3,25.5-23.7,27.5c4.5-17.7,4.4-37.4.1-55ZM46,118.1c0-13.9,10.2-25.4,23.5-27.5-4.3,17.6-4.4,37.3.1,55-13.4-2-23.7-13.6-23.7-27.5ZM81.3,118.1c0-58.6,47-97.1,104.4-98.3-5.4,4.7-13.7,10.1-13.7,22.5s6.8,16.6,11.7,20.8c4.7,3.9,6.3,5.6,6.3,9.2s3.4,7.5,7.5,7.5,7.5-3.4,7.5-7.5c0-11-6.8-16.6-11.7-20.8-4.7-3.9-6.3-5.6-6.3-9.2s1.6-5.3,6.3-9.2c3.5-2.9,7.9-6.6,10.2-12.4,52.6,6,92.2,43.8,92.2,97.5s-48,89.6-107.2,89.6c-59.5,0-107.2-30.8-107.2-89.6ZM76,319.8c-63.4,0-28.3,0-40.4-.1-11.6-1-20.6-10.7-20.6-22.4s10.1-22.5,22.5-22.5c1.6,0,36.4,0,38.5,0v45ZM55.4,259.8c13.1-18.9,36.8-26.8,58.5-20.2-3.1,6.4-5.2,13.2-6.5,20.2h-52ZM158.5,380.3c0,8-6.5,14.4-14.4,14.4h-38.7c-8,0-14.4-6.5-14.4-14.4v-105.6c59.6,0,58.6-.2,67.5.5v105.1ZM145.6,259.8h-22.9c3.8-16.7,14-31.5,28.4-41.2,23.4,5.4,50.7,5.5,74.8,0,18.2,12.1,30.1,32.8,30.1,56.2v20.1c-30.8-21.9-69.1-35.1-110.4-35.1ZM474.5,394.8h-160.5c-27.3,0-53.3-11.7-71.5-32.1-18-20.1-42.3-34.2-68.9-40v-45.8c40.3,6.4,76.3,26.4,102.5,55.8,9.6,10.8,23.4,17,37.9,17h160.5c12.4,0,22.5,10.1,22.5,22.5,0,12.4-10.1,22.5-22.5,22.5h0Z"/>
        </g>
      </g>
    </g>
  </g>
</svg>