<?xml version="1.0" encoding="UTF-8"?>
<svg xmlns="http://www.w3.org/2000/svg" version="1.1" viewBox="0 0 512 512">
  <defs>
    <style>
      .cls-1 {
        fill: #2c0d12;
      }

      .cls-2 {
        fill: #ff82ab;
      }

      .cls-3 {
        fill: #ff6ca1;
      }

      .cls-4 {
        fill: #ffcc61;
      }
    </style>
  </defs>
  <!-- Generator: Adobe Illustrator 28.7.1, SVG Export Plug-In . SVG Version: 1.2.0 Build 142)  -->
  <g>
    <g id="Layer_1">
      <g>
        <g>
          <path class="cls-2" d="M469.9,163c10.1,3.5,49,36.8-49.6,104.9-98.5,68.1-155.4,90.9-295.2,131-47.4,10.3-89.6,16.2-97.7-18.5-18.2-78.1,133.8-18.1,294.3-112.2,127.5-74.7,126.9-112.6,148.1-105.3h0Z"/>
          <path class="cls-3" d="M486,438.6c0,6.6-5.4,12-12,12H53.6c-14.6.3-26.8-11.1-27.6-25.6-.3-13.2,9.2-24.7,22.3-26.7,219.6-34.5,317.9-101.1,385.4-154.2,5.2-4.1,12.7-3.2,16.8,1.9,4.1,5.2,3.3,12.7-1.9,16.9,0,0,0,0,0,0-76.3,59.8-178.6,124.8-396.5,159.1-1.2.2-2,1.2-2,2.3,0,1.3,1,2.3,2.3,2.3h421.7c6.6,0,12,5.4,12,12h0Z"/>
          <g>
            <circle class="cls-4" cx="256" cy="355.3" r="24"/>
            <path class="cls-4" d="M185.2,113.6l12.4,25,27.6,4-20,19.5,4.7,27.5-24.7-13-24.7,13,4.7-27.5-20-19.5,27.6-4,12.4-25Z"/>
          </g>
        </g>
        <g>
          <path class="cls-1" d="M344.1,261.8c1.3,0,2.6-.4,3.7-1.1,4-2.5,7.9-5,11.6-7.4,3.3-2,4.4-6.3,2.4-9.6s-6.3-4.4-9.6-2.4c-.2,0-.3.2-.5.3-3.7,2.4-7.5,4.8-11.4,7.3-3.3,2-4.3,6.4-2.2,9.6,1.3,2,3.5,3.3,5.9,3.3h0Z"/>
          <path class="cls-1" d="M84.3,364.6c.3,0,.7,0,1,0,8-1.2,16.6-2.2,23.9-3.1,3.8-.5,6.6-3.9,6.1-7.8s-3.9-6.6-7.8-6.1c-7.5.9-16.2,1.9-24.3,3.1-3.8.6-6.5,4.1-5.9,8,.5,3.4,3.4,6,6.9,6h0Z"/>
          <path class="cls-1" d="M474,419.6h-107.7c-3.9,0-7,3.1-7,7s3.1,7,7,7h107.7c2.8,0,5,2.2,5,5s-2.2,5-5,5H53.6c-10.8.3-19.9-8-20.6-18.8-.2-9.7,6.8-18.1,16.4-19.7,60-9,119.1-22.9,176.8-41.6.9,3.3,2.4,6.4,4.3,9.2-58.6,19.1-118.6,33.2-179.6,42.3-5.1.8-8.5,5.6-7.7,10.7.7,4.5,4.6,7.8,9.2,7.8h278.7c3.9,0,7-3.1,7-7s-3.1-7-7-7H105.7c46.5-8.9,92.3-21,137.1-36.3,15.4,7.3,33.8.7,41.1-14.7.1-.3.3-.6.4-.8,60.7-24.8,117.4-58.3,168.5-99.4,6.6-5.1,9-14,5.9-21.8,26-24,37.3-45.9,33.5-65.1-2.1-11.2-9.6-20.6-20.1-25.1-13.1-4.6-21,3.2-34,16.1-20.1,20.4-42.1,38.8-65.7,55-3.2,2.2-3.9,6.6-1.7,9.8,2.2,3.2,6.6,3.9,9.8,1.7,24.3-16.7,46.9-35.6,67.6-56.6,13-12.9,15.2-14.4,19.5-12.8,5.7,2.9,9.8,8.2,11,14.5,2.7,13.8-7.7,32.2-29.3,52.2-6.5-3.1-14.2-2.3-19.9,2.2-46.8,38-98.9,69-154.6,92.1-3.5-2.7-7.5-4.5-11.7-5.5v-21c21.6-8.2,42.4-18.2,62.3-29.8,3.3-2,4.5-6.2,2.5-9.6s-6.2-4.5-9.6-2.5c-17.7,10.4-36.2,19.3-55.3,26.9V96.8c-.7-23.4-20.3-41.8-43.7-41.1-22.4.7-40.4,18.7-41.1,41.1v15.2l-10,20.3-24,3.5c-3.8.6-6.5,4.1-5.9,7.9.2,1.5.9,2.9,2,4l17.4,16.9-4.1,23.9c-.7,3.8,1.9,7.4,5.7,8.1,1.5.3,3.1,0,4.4-.7l21.5-11.3,21.5,11.3c3.4,1.8,7.6.5,9.5-2.9.7-1.4,1-2.9.7-4.5l-4.1-23.9,17.4-16.9c2.8-2.7,2.8-7.1.1-9.9-1.1-1.1-2.5-1.8-4-2l-24-3.5-10-20.3v-15.2c.6-15.7,13.8-27.9,29.4-27.3,14.8.6,26.8,12.5,27.3,27.3v197.6c-52.3,18.6-100.9,24.3-139.6,28.8-41.9,4.9-72.2,8.4-84.7,26.2-5.9,8.4-7.3,19.2-4.1,32.8,1.4,6.6,4.5,12.7,9,17.8-7,6.5-10.9,15.7-10.6,25.3,1,18.3,16.2,32.6,34.6,32.4h420.4c10.5,0,19-8.5,19-19s-8.5-19-19-19h0ZM196.6,145.6l13.6,2-9.8,9.6c-1.6,1.6-2.4,3.9-2,6.2l2.3,13.5-12.2-6.4c-2-1.1-4.5-1.1-6.5,0l-12.2,6.4,2.3-13.5c.4-2.3-.4-4.6-2-6.2l-9.8-9.6,13.6-2c2.3-.3,4.3-1.8,5.3-3.8l6.1-12.3,6.1,12.3c1,2.1,3,3.5,5.3,3.8h0ZM256,372.3c-9.4,0-17-7.6-17-17s7.6-17,17-17,17,7.6,17,17h0c0,9.4-7.6,17-17,17ZM438,249.5c2.1-1.7,5.3-1.4,7,.8,1.7,2.1,1.4,5.3-.8,7,0,0,0,0,0,0-47.9,38.5-100.9,70.2-157.4,94.2-.4-3.3-1.3-6.6-2.8-9.6,55.4-23.5,107.3-54.6,154.1-92.4ZM34.3,378.9c-2.2-9.5-1.6-16.6,1.9-21.5,8.9-12.6,38-16,74.9-20.3,38.3-4.5,86.1-10.1,137.9-27.9v15.9c-11.8,2.7-20.9,12.1-23.4,23.9-58.2,19.1-117.9,33.2-178.4,42.3-1.7.3-3.4.7-5.1,1.2-4-3.6-6.8-8.3-7.8-13.6h0Z"/>
        </g>
      </g>
    </g>
  </g>
</svg>