<?xml version="1.0" encoding="UTF-8"?>
<svg xmlns="http://www.w3.org/2000/svg" version="1.1" viewBox="0 0 512 512">
  <defs>
    <style>
      .cls-1 {
        fill: #abedef;
      }

      .cls-2 {
        fill: #ffcf83;
      }

      .cls-3 {
        fill: #ff82ab;
      }

      .cls-4 {
        fill: #94d1d6;
      }

      .cls-5 {
        fill: #ffcc61;
      }

      .cls-6 {
        stroke-width: 15px;
      }

      .cls-6, .cls-7 {
        fill: none;
        stroke: #000;
        stroke-linecap: round;
        stroke-linejoin: round;
      }

      .cls-7 {
        stroke-width: 15px;
      }
    </style>
  </defs>
  <!-- Generator: Adobe Illustrator 28.7.1, SVG Export Plug-In . SVG Version: 1.2.0 Build 142)  -->
  <g>
    <g id="Capa_1">
      <g>
        <g>
          <path class="cls-5" d="M34.4,486h-12.6c-7.9,0-14.2-6.4-14.2-14.2V128.9c0-7.9,6.4-14.2,14.2-14.2h12.6c7.9,0,14.2,6.4,14.2,14.2v342.9c0,7.9-6.4,14.2-14.2,14.2Z"/>
          <path class="cls-5" d="M490.3,486h-12.6c-7.9,0-14.2-6.4-14.2-14.2V128.9c0-7.9,6.4-14.2,14.2-14.2h12.6c7.9,0,14.2,6.4,14.2,14.2v342.9c0,7.9-6.4,14.2-14.2,14.2Z"/>
          <path class="cls-1" d="M463.4,325h-140l7.8-13.2c14.2-23.9,40-38.6,67.8-38.6h64.4v51.8h0Z"/>
          <rect class="cls-4" x="48.6" y="325" width="414.8" height="54.6"/>
          <rect class="cls-2" x="48.6" y="186.2" width="414.8" height="36.5"/>
          <rect class="cls-2" x="95.5" y="222.7" width="39.7" height="156.8"/>
          <rect class="cls-2" x="189.6" y="222.7" width="39.7" height="156.8"/>
          <rect class="cls-2" x="283.7" y="222.7" width="39.7" height="156.8"/>
          <rect class="cls-2" x="377.8" y="222.7" width="39.7" height="156.8"/>
          <rect class="cls-2" x="48.6" y="379.6" width="414.8" height="53.9"/>
          <path class="cls-5" d="M433.4,186.2h0c0,10.2-8.3,18.5-18.5,18.5H48.6v18h414.8v-36.5h-30Z"/>
          <path class="cls-5" d="M433.4,379.6h0c0,13.2-10.7,23.9-23.9,23.9H48.6v30h414.8v-53.9h-30Z"/>
          <path class="cls-4" d="M233.1,105.7h-12.6c-3.1,0-6,1.7-7.5,4.4l-6.3,10.9c-1.6,2.7-1.6,6,0,8.7l6.3,10.9c1.6,2.7,4.4,4.4,7.5,4.4h12.6c3.1,0,6-1.7,7.5-4.4l6.3-10.9c1.6-2.7,1.6-6,0-8.7l-6.3-10.9c-1.6-2.7-4.4-4.4-7.5-4.4Z"/>
          <path class="cls-3" d="M371.4,105.7h-12.6c-3.1,0-6,1.7-7.5,4.4l-6.3,10.9c-1.6,2.7-1.6,6,0,8.7l6.3,10.9c1.6,2.7,4.4,4.4,7.5,4.4h12.6c3.1,0,6-1.7,7.5-4.4l6.3-10.9c1.6-2.7,1.6-6,0-8.7l-6.3-10.9c-1.6-2.7-4.4-4.4-7.5-4.4Z"/>
          <circle class="cls-5" cx="295.5" cy="125.3" r="19.6"/>
        </g>
        <g>
          <path class="cls-7" d="M34.4,486h-12.6c-7.9,0-14.2-6.4-14.2-14.2V128.9c0-7.9,6.4-14.2,14.2-14.2h12.6c7.9,0,14.2,6.4,14.2,14.2v342.9c0,7.9-6.4,14.2-14.2,14.2Z"/>
          <path class="cls-7" d="M490.3,486h-12.6c-7.9,0-14.2-6.4-14.2-14.2V128.9c0-7.9,6.4-14.2,14.2-14.2h12.6c7.9,0,14.2,6.4,14.2,14.2v342.9c0,7.9-6.4,14.2-14.2,14.2Z"/>
          <line class="cls-7" x1="421.8" y1="273.2" x2="460.4" y2="273.2"/>
          <path class="cls-7" d="M324.4,323.2l6.8-11.4c9.9-16.7,25.4-28.8,43.3-34.7"/>
          <polyline class="cls-7" points="328.4 433.5 48.6 433.5 48.6 379.6 463.4 379.6 463.4 433.5 363.4 433.5"/>
          <polyline class="cls-7" points="160.4 186.2 463.4 186.2 463.4 222.7 48.6 222.7 48.6 186.2 115.4 186.2"/>
          <rect class="cls-7" x="95.5" y="222.7" width="39.7" height="156.8"/>
          <rect class="cls-7" x="189.6" y="222.7" width="39.7" height="156.8"/>
          <rect class="cls-7" x="283.7" y="222.7" width="39.7" height="156.8"/>
          <rect class="cls-7" x="377.8" y="222.7" width="39.7" height="156.8"/>
          <path class="cls-7" d="M228.6,105.7v-13.7c0-13.4,10.9-24.3,24.3-24.3h86.1c13.4,0,24.3,10.9,24.3,24.3v13.7"/>
          <path class="cls-7" d="M233.1,105.7h-12.6c-3.1,0-6,1.7-7.5,4.4l-6.3,10.9c-1.6,2.7-1.6,6,0,8.7l6.3,10.9c1.6,2.7,4.4,4.4,7.5,4.4h12.6c3.1,0,6-1.7,7.5-4.4l6.3-10.9c1.6-2.7,1.6-6,0-8.7l-6.3-10.9c-1.6-2.7-4.4-4.4-7.5-4.4Z"/>
          <path class="cls-7" d="M371.4,105.7h-12.6c-3.1,0-6,1.7-7.5,4.4l-6.3,10.9c-1.6,2.7-1.6,6,0,8.7l6.3,10.9c1.6,2.7,4.4,4.4,7.5,4.4h12.6c3.1,0,6-1.7,7.5-4.4l6.3-10.9c1.6-2.7,1.6-6,0-8.7l-6.3-10.9c-1.6-2.7-4.4-4.4-7.5-4.4Z"/>
          <circle class="cls-6" cx="295.5" cy="125.3" r="19.6"/>
          <path class="cls-7" d="M296,105.7v-55.5c0-13.4,10.8-24.2,24.2-24.2h100.2c35.6,0,64.5,28.9,64.5,64.5v24.1"/>
          <line class="cls-7" x1="51.8" y1="325" x2="95.5" y2="325"/>
          <line class="cls-7" x1="137.8" y1="325" x2="186.8" y2="325"/>
          <line class="cls-7" x1="229.3" y1="325" x2="280" y2="325"/>
          <line class="cls-7" x1="327.6" y1="325" x2="374.5" y2="325"/>
          <line class="cls-7" x1="417.5" y1="325" x2="460.4" y2="325"/>
        </g>
      </g>
    </g>
  </g>
</svg>