<?xml version="1.0" encoding="UTF-8"?>
<svg xmlns="http://www.w3.org/2000/svg" version="1.1" viewBox="0 0 512 512">
  <defs>
    <style>
      .cls-1 {
        fill: #ffdf9d;
      }

      .cls-2 {
        fill: #bee3e6;
      }

      .cls-3 {
        fill: #d0ebed;
      }

      .cls-4 {
        fill: #87ccd1;
      }

      .cls-5 {
        fill: #ff82ab;
      }

      .cls-6 {
        fill: #ffcc61;
      }
    </style>
  </defs>
  <!-- Generator: Adobe Illustrator 28.7.1, SVG Export Plug-In . SVG Version: 1.2.0 Build 142)  -->
  <g>
    <g id="Capa_1">
      <path class="cls-3" d="M490.4,378.3H18.6c-6.1,0-11.1-5-11.1-11.1v-37.2h497v34.1c0,7.8-6.3,14.2-14.2,14.2Z"/>
      <path class="cls-4" d="M490.4,378.3h-130.1v-196h82.5c4.3,0,8.4,1.7,11.4,4.8l45.8,46.3c3,3,4.6,7.1,4.6,11.3v119.4c0,7.8-6.3,14.2-14.2,14.2Z"/>
      <path class="cls-3" d="M499.9,233.4l-45.8-46.3c-3-3.1-7.1-4.8-11.4-4.8h-55.4c4.3,0,8.4,1.7,11.4,4.8l45.8,46.3c3,3,4.6,7.1,4.6,11.3v133.6h41.3c7.8,0,14.2-6.3,14.2-14.2v-119.4c0-4.2-1.7-8.3-4.6-11.3Z"/>
      <path class="cls-2" d="M387.8,279.4v-60.9c0-3.7,3-6.6,6.6-6.6h40.7c1.8,0,3.5.7,4.7,2l35.2,35.6c1.2,1.2,1.9,2.9,1.9,4.7v25.2c0,3.7-3,6.6-6.6,6.6h-75.9c-3.7,0-6.6-3-6.6-6.6Z"/>
      <circle class="cls-4" cx="429.1" cy="373.5" r="43.5"/>
      <circle class="cls-5" cx="429.1" cy="373.5" r="16.8"/>
      <path class="cls-1" d="M7.5,350.6h352.8V102.9c0-4.4-3.6-7.9-7.9-7.9H15.4c-4.4,0-7.9,3.6-7.9,7.9,0,0,0,247.7,0,247.7Z"/>
      <path class="cls-6" d="M352.3,94.9h-47.5v255.7h55.4V102.9c0-4.4-3.6-7.9-7.9-7.9Z"/>
      <circle class="cls-4" cx="94.6" cy="373.5" r="43.5"/>
      <circle class="cls-5" cx="94.6" cy="373.5" r="16.8"/>
      <path class="cls-5" d="M217.4,186.3h-70.8c-3.3,0-6-2.7-6-6v-85.4h82.8v85.4c0,3.3-2.7,6-6,6Z"/>
      <path d="M320.8,274.4c4.1,0,7.5-3.3,7.5-7.5s-3.3-7.5-7.5-7.5h-32c-4.1,0-7.5,3.3-7.5,7.5s3.3,7.5,7.5,7.5h32Z"/>
      <path d="M242.4,274.4h11.7c4.1,0,7.5-3.3,7.5-7.5s-3.3-7.5-7.5-7.5h-11.7c-4.1,0-7.5,3.3-7.5,7.5s3.3,7.5,7.5,7.5Z"/>
      <path d="M242.4,317.7h78.4c4.1,0,7.5-3.3,7.5-7.5s-3.3-7.5-7.5-7.5h-78.4c-4.1,0-7.5,3.3-7.5,7.5s3.3,7.5,7.5,7.5Z"/>
      <path d="M429.1,349.2c-13.4,0-24.3,10.9-24.3,24.3s10.9,24.3,24.3,24.3,24.3-10.9,24.3-24.3-10.9-24.3-24.3-24.3ZM429.1,382.9c-5.2,0-9.3-4.2-9.3-9.3s4.2-9.3,9.3-9.3,9.3,4.2,9.3,9.3-4.2,9.3-9.3,9.3Z"/>
      <path d="M94.6,349.2c-13.4,0-24.3,10.9-24.3,24.3s10.9,24.3,24.3,24.3,24.3-10.9,24.3-24.3-10.9-24.3-24.3-24.3ZM94.6,382.9c-5.2,0-9.3-4.2-9.3-9.3s4.2-9.3,9.3-9.3,9.3,4.2,9.3,9.3-4.2,9.3-9.3,9.3Z"/>
      <path d="M445.2,208.6c-2.6-2.7-6.3-4.2-10-4.2h-40.7c-7.8,0-14.1,6.3-14.1,14.1v60.9c0,7.8,6.3,14.1,14.1,14.1h75.9c7.8,0,14.1-6.3,14.1-14.1v-25.2c0-3.7-1.4-7.3-4.1-9.9l-35.2-35.6ZM469.5,278.6h-74.2v-59.2h39.5l34.7,35.1v24.1Z"/>
      <path d="M512,364.1v-119.4c0-6.2-2.4-12.1-6.8-16.5l-45.8-46.3c-4.4-4.4-10.5-7-16.8-7h-75v-71.9c0-8.5-6.9-15.4-15.4-15.4H15.4c-8.5,0-15.4,6.9-15.4,15.4v19.7c0,4.1,3.3,7.5,7.5,7.5s7.5-3.3,7.5-7.5v-19.7c0-.3.2-.5.5-.5h117.7v77.9c0,7.4,6,13.5,13.5,13.5h70.8c7.4,0,13.5-6,13.5-13.5v-77.9h121.5c.3,0,.5.2.5.5v240.2h-217.2c-7.5-10.1-18.2-17-30.3-19.5-.2,0-.5-.1-.7-.2-.6-.1-1.1-.2-1.7-.3-.4,0-.8-.1-1.2-.2-.5,0-1-.1-1.4-.2-.6,0-1.1-.1-1.7-.1-.4,0-.7,0-1.1,0-.9,0-1.9,0-2.8,0s-1.9,0-2.8,0c-.4,0-.7,0-1.1,0-.6,0-1.1,0-1.7.1-.5,0-1,.1-1.4.2-.4,0-.8.1-1.2.2-.6,0-1.1.2-1.7.3-.2,0-.5.1-.7.2-12.1,2.6-22.9,9.4-30.3,19.5H15v-185.1c0-4.1-3.3-7.5-7.5-7.5s-7.5,3.3-7.5,7.5v209.1c0,10.3,8.3,18.6,18.6,18.6h26.4c5.5,22.2,25.6,38.8,49.5,38.8s44-16.5,49.5-38.8h235.5c5.5,22.2,25.6,38.8,49.5,38.8s44-16.5,49.5-38.8h11.7c11.9,0,21.6-9.7,21.6-21.6,0,0,0,0,0,0,0,0,0,0,0,0ZM215.9,178.8h-67.8v-76.4h67.8v76.4ZM45.9,358.2c-.3.9-.6,1.9-.8,2.9,0,.2,0,.4-.1.5-.2.8-.4,1.6-.5,2.4,0,.3,0,.5-.1.8-.1.7-.2,1.5-.3,2.2,0,.3,0,.5-.1.8-.1.9-.2,1.8-.2,2.8,0,0,0,.1,0,.2h-25c-2,0-3.6-1.6-3.6-3.6v-9.1h31s0,0,0,.1ZM130.4,377.4c-2,18-17.3,32.1-35.8,32.1s-33.9-14.1-35.8-32.1c-.1-1.3-.2-2.7-.2-3.9s0-1.5,0-2.3c0-.2,0-.4,0-.6,0-.6.1-1.2.2-1.8,0-.2,0-.3,0-.5.1-.8.2-1.5.4-2.2,0,0,0-.2,0-.2.1-.6.3-1.3.5-1.9,0-.2.1-.4.2-.6.2-.6.4-1.2.6-1.8,0-.1,0-.3.1-.4.2-.7.5-1.3.8-2,.1-.2.2-.5.3-.7.2-.4.4-.8.6-1.3.1-.3.3-.5.4-.8.3-.6.6-1.1,1-1.7.2-.3.4-.6.6-.9.2-.2.3-.5.5-.7.2-.4.5-.7.7-1,0-.1.2-.2.3-.4,5.1-6.8,12.6-11.7,21.2-13.5,0,0,.2,0,.2,0,.4,0,.7-.1,1.1-.2.3,0,.7-.1,1-.2.3,0,.6,0,.9-.1.4,0,.9,0,1.3-.1.2,0,.5,0,.7,0,.7,0,1.4,0,2.1,0s1.4,0,2.1,0c.2,0,.5,0,.7,0,.4,0,.9,0,1.3.1.3,0,.6,0,.9.1.4,0,.7.1,1,.2.4,0,.7.1,1.1.2,0,0,.2,0,.2,0,8.6,1.8,16.1,6.7,21.2,13.5,0,.1.2.2.3.3.3.3.5.7.8,1.1.2.2.3.5.5.7.2.3.4.6.6.9.3.6.7,1.1,1,1.7.1.3.3.5.4.8.2.4.4.8.6,1.3.1.2.2.5.3.7.3.6.5,1.3.8,2,0,.1,0,.3.1.4.2.6.4,1.2.6,1.8,0,.2.1.4.2.6.2.6.3,1.3.5,1.9,0,0,0,.2,0,.2.2.7.3,1.5.4,2.2,0,.2,0,.3,0,.5,0,.6.1,1.2.2,1.8,0,.2,0,.4,0,.6,0,.8,0,1.5,0,2.3,0,1.3,0,2.6-.2,3.9ZM352.8,370.8h-207.2c0,0,0-.1,0-.2,0-.9-.1-1.9-.2-2.8,0-.3,0-.5-.1-.8,0-.8-.2-1.5-.3-2.2,0-.3,0-.5-.1-.8-.2-.8-.3-1.6-.5-2.4,0-.2,0-.4-.1-.5-.2-1-.5-1.9-.8-2.9,0,0,0,0,0-.1h209.6v12.7ZM465,377.4c-2,18-17.3,32.1-35.8,32.1s-33.9-14.1-35.8-32.1c-.1-1.3-.2-2.7-.2-3.9,0-19.9,16.2-36.1,36.1-36.1s36.1,16.2,36.1,36.1c0,1.3,0,2.6-.2,3.9ZM497,364.1c0,3.7-3,6.7-6.7,6.7h-10.3c0-.8-.1-1.5-.2-2.3,0,0,0-.2,0-.2,0-.8-.2-1.7-.3-2.5,0-.2,0-.5-.1-.7,0-.6-.2-1.2-.3-1.8,0-.3-.1-.6-.2-.9-.1-.5-.2-1-.4-1.6,0-.3-.2-.6-.3-.9-.1-.5-.3-1-.4-1.5,0-.3-.2-.6-.3-1-.2-.5-.3-.9-.5-1.4-.1-.3-.2-.6-.4-.9-.2-.4-.3-.9-.5-1.3-.1-.3-.3-.6-.4-.9-.2-.4-.4-.9-.6-1.3-.1-.3-.3-.6-.5-.9-.2-.4-.4-.8-.6-1.2-.2-.3-.3-.6-.5-.9-.2-.4-.5-.8-.7-1.2-.2-.3-.4-.6-.6-.9-.2-.4-.5-.8-.7-1.2-.2-.3-.4-.6-.6-.9-.3-.4-.5-.8-.8-1.1-.2-.3-.4-.6-.6-.8-.3-.4-.6-.7-.8-1.1-.2-.3-.4-.5-.7-.8-.3-.3-.6-.7-.9-1-.2-.3-.5-.5-.7-.8-.3-.3-.6-.7-.9-1-.2-.3-.5-.5-.8-.8-.3-.3-.6-.6-1-.9-.3-.2-.5-.5-.8-.7-.3-.3-.7-.6-1-.9-.3-.2-.5-.5-.8-.7-.3-.3-.7-.6-1.1-.8-.3-.2-.6-.4-.9-.6-.4-.3-.7-.5-1.1-.8-.3-.2-.6-.4-.9-.6-.4-.2-.8-.5-1.1-.7-.3-.2-.6-.4-.9-.6-.4-.2-.8-.5-1.2-.7-.3-.2-.6-.4-1-.5-.4-.2-.8-.4-1.2-.6-.3-.2-.6-.3-1-.5-.4-.2-.8-.4-1.2-.6-.3-.1-.7-.3-1-.4-.4-.2-.8-.3-1.3-.5-.3-.1-.7-.3-1-.4-.4-.2-.9-.3-1.3-.4-.3-.1-.7-.2-1-.3-.4-.1-.9-.3-1.3-.4-.4,0-.7-.2-1.1-.3-.5-.1-.9-.2-1.4-.3-.4,0-.7-.2-1.1-.2-.5,0-1-.2-1.4-.3-.3,0-.7-.1-1-.2-.5,0-1-.1-1.5-.2-.3,0-.7,0-1-.1-.6,0-1.1,0-1.7-.1-.3,0-.6,0-.8,0-.9,0-1.7,0-2.6,0s-1.7,0-2.6,0c-.3,0-.6,0-.8,0-.6,0-1.1,0-1.7.1-.3,0-.7,0-1,.1-.5,0-1,.1-1.5.2-.4,0-.7.1-1,.2-.5,0-1,.2-1.4.3-.4,0-.7.2-1.1.2-.5.1-.9.2-1.4.3-.4,0-.7.2-1.1.3-.4.1-.9.2-1.3.4-.4.1-.7.2-1,.3-.4.1-.9.3-1.3.4-.3.1-.7.3-1,.4-.4.2-.8.3-1.3.5-.3.1-.7.3-1,.4-.4.2-.8.4-1.2.6-.3.2-.7.3-1,.5-.4.2-.8.4-1.2.6-.3.2-.6.4-1,.5-.4.2-.8.4-1.2.7-.3.2-.6.4-.9.6-.4.2-.8.5-1.1.7-.3.2-.6.4-.9.6-.4.3-.7.5-1.1.8-.3.2-.6.4-.9.6-.4.3-.7.5-1.1.8-.3.2-.6.5-.8.7-.3.3-.7.6-1,.9-.3.2-.5.5-.8.7-.3.3-.7.6-1,.9-.3.2-.5.5-.8.8-.3.3-.6.6-.9,1-.2.3-.5.5-.7.8-.3.3-.6.7-.9,1-.2.3-.5.5-.7.8-.3.4-.6.7-.8,1.1-.2.3-.4.6-.6.8-.3.4-.5.7-.8,1.1-.2.3-.4.6-.6.9-.3.4-.5.8-.7,1.2-.2.3-.4.6-.6.9-.2.4-.5.8-.7,1.2-.2.3-.3.6-.5.9-.2.4-.4.8-.6,1.2-.2.3-.3.6-.5.9-.2.4-.4.9-.6,1.3-.1.3-.3.6-.4.9-.2.4-.4.9-.5,1.3-.1.3-.2.6-.4.9-.2.5-.3.9-.5,1.4-.1.3-.2.6-.3.9-.1.5-.3,1-.4,1.5,0,.3-.2.6-.3.9-.1.5-.2,1-.4,1.6,0,.3-.1.6-.2.9-.1.6-.2,1.2-.3,1.8,0,.2,0,.5-.1.7-.1.8-.2,1.7-.3,2.5,0,0,0,.2,0,.3,0,.7-.1,1.5-.2,2.2h-10.4v-181h75c2.3,0,4.5.9,6.1,2.6l45.8,46.3h0c1.6,1.6,2.5,3.8,2.5,6v119.4h0Z"/>
    </g>
  </g>
</svg>