<?xml version="1.0" encoding="UTF-8"?>
<svg xmlns="http://www.w3.org/2000/svg" version="1.1" viewBox="0 0 512 512">
  <defs>
    <style>
      .cls-1 {
        fill: #fff;
      }

      .cls-2 {
        fill: #daeff1;
      }

      .cls-3 {
        fill: #ffdea4;
      }

      .cls-4 {
        fill: #a9dade;
      }

      .cls-5 {
        fill: #ff94b7;
      }

      .cls-6 {
        fill: #bfe3e6;
      }

      .cls-7 {
        fill: #ff82ab;
      }

      .cls-8 {
        fill: #94d1d6;
      }

      .cls-9 {
        fill: #ffcc61;
      }
    </style>
  </defs>
  <!-- Generator: Adobe Illustrator 28.7.1, SVG Export Plug-In . SVG Version: 1.2.0 Build 142)  -->
  <g>
    <g id="Layer_1">
      <path class="cls-2" d="M290.6,26.6c-2.6-5.6-9.7-10.1-15.8-10.1H97.6c-6.1,0-13.2,4.6-15.8,10.1l-30.9,67.1h270.5l-30.8-67.1ZM227.3,67.9h-82.5c-6.5,0-11.7-5.2-11.7-11.7s5.2-11.7,11.7-11.7h82.5c6.5,0,11.7,5.2,11.7,11.7s-5.2,11.7-11.7,11.7Z"/>
      <path class="cls-6" d="M81.4,93.8l30.9-67.1c2.6-5.6,9.7-10.1,15.8-10.1h-30.6c-6.1,0-13.2,4.6-15.8,10.1l-30.9,67.1h30.6Z"/>
      <path class="cls-4" d="M203,393.2v-51.3h-11c-2.4,0-4.4-2-4.4-4.4v-42.7c0-2.5,2-4.4,4.4-4.4h11v-22.4c0-2.8,2.2-5,5-5h156.7V110.5c0-9.2-7.5-16.8-16.7-16.8H24.2c-9.2,0-16.7,7.5-16.7,16.8v340.9c0,9.2,7.5,16.8,16.7,16.8h211.4c-20-18.7-32.6-45.4-32.6-75Z"/>
      <path class="cls-8" d="M38,110.5c0-9.2,7.5-16.8,16.7-16.8h-30.5c-9.2,0-16.7,7.5-16.7,16.8v302.7h30.5V110.5Z"/>
      <path class="cls-2" d="M204.9,413.2H7.5v38.2c0,9.2,7.5,16.8,16.7,16.8h211.4c-15.4-14.4-26.4-33.5-30.6-55Z"/>
      <path class="cls-6" d="M38,451.5v-38.2H7.5v38.2c0,9.2,7.5,16.8,16.7,16.8h30.5c-9.2,0-16.7-7.5-16.7-16.8Z"/>
      <path class="cls-1" d="M187.6,294.8c0-2.5,2-4.4,4.4-4.4h11v-22.4c0-2.8,2.2-5,5-5h96.5c-4.8-14.1-16.4-25.1-30.9-28.8.3-2.3.4-4.6.4-7,0-33.1-26.7-59.9-59.7-59.9s-43.6,13.5-53.4,33.2c-6.7-4.7-14.9-7.4-23.7-7.4-23.1,0-41.8,18.8-41.8,41.9s0,.2,0,.2c-17.4,6-30,22.6-30,42.1s19.8,44.5,44.3,44.5h77.9v-26.9Z"/>
      <path class="cls-7" d="M84,308.1c0-19.5,12.6-36.1,30-42.1,0,0,0-.2,0-.2,0-23.1,18.7-41.9,41.8-41.9s16.9,2.7,23.7,7.4c9.8-19.7,30-33.2,53.4-33.2s28.9,5.6,39.4,14.9c-6.3-26.3-29.9-45.8-58.1-45.8s-43.6,13.5-53.4,33.2c-6.7-4.7-14.9-7.4-23.7-7.4-23.1,0-41.8,18.8-41.8,41.9s0,.2,0,.2c-17.4,6-30,22.6-30,42.1s7.5,28.5,19,36.5c-.2-1.8-.4-3.7-.4-5.6Z"/>
      <path class="cls-9" d="M216,290.3c7.6,0,14.3,3.3,19.1,8.5h222.1s0,0,0,0c4.7-5.2,11.5-8.6,19.1-8.6h13v-22.4c0-2.8-2.2-5-5-5H208c-2.8,0-5,2.2-5,5v22.4h13Z"/>
      <path class="cls-3" d="M216,290.3c7,0,13.3,2.8,17.9,7.3v-29.7c0-2.8,2.2-5,5-5h-30.9c-2.8,0-5,2.2-5,5v22.4h13Z"/>
      <path class="cls-3" d="M476.1,341.9c-14.2,0-25.7-11.6-25.7-25.8s2.5-12.7,6.6-17.3h-222.1c4.1,4.6,6.6,10.6,6.6,17.3,0,14.2-11.5,25.8-25.7,25.8h-13v51.3c0,56.5,45.7,102.4,102,102.4h82.1c56.3,0,102-45.8,102-102.4v-51.3h-13Z"/>
      <path class="cls-5" d="M192,341.9c-2.4,0-4.4-2-4.4-4.4v-42.7c0-2.5,2-4.4,4.4-4.4h23.9c14.2,0,25.7,11.6,25.7,25.8s-11.5,25.8-25.7,25.8h-23.9Z"/>
      <path class="cls-3" d="M500.1,290.3c2.4,0,4.4,2,4.4,4.4v42.7c0,2.5-2,4.4-4.4,4.4h-23.9c-14.2,0-25.7-11.6-25.7-25.8s11.5-25.8,25.7-25.8h23.9Z"/>
      <path class="cls-4" d="M391.5,495.5c-5.4-11-8.4-23.4-8.4-36.4,0-25.6,11.5-48.5,29.7-63.7v-96.4h-133.6v96.4c18.1,15.2,29.7,38.1,29.7,63.7s-3,25.4-8.4,36.4c0,0,0,0,0,0,1.5,0,2.9.1,4.4.1h82.1c1.5,0,2.9,0,4.4-.1t0,0Z"/>
      <path class="cls-9" d="M300.6,495.5c5.4-11,8.4-23.4,8.4-36.4,0-45.9-37.1-83.1-82.8-83.1s-15.8,1.2-23.2,3.3v14c0,55,43.3,99.9,97.6,102.2Z"/>
      <path class="cls-3" d="M300.6,495.5s0,0,0,0c0,0,0,0,0,0,.9-1.7,1.6-3.5,2.4-5.3-40.2-13.7-69.1-51.9-69.1-96.9v-16.9c-2.5-.2-5.1-.4-7.7-.4-8.1,0-15.8,1.2-23.2,3.3v14c0,55,43.3,99.9,97.6,102.3Z"/>
      <path class="cls-9" d="M489.1,393.2v-14c-7.4-2.1-15.1-3.3-23.2-3.3-45.7,0-82.8,37.2-82.8,83.1s3,25.4,8.4,36.4c54.3-2.3,97.6-47.2,97.6-102.2Z"/>
      <path class="cls-9" d="M233.9,376.3v-41.7c-4.6,4.5-10.9,7.3-17.9,7.3h-13v37.4c7.4-2.1,15.1-3.3,23.2-3.3s5.2.1,7.7.4Z"/>
      <path class="cls-9" d="M391.5,495.5c-5.4-11-8.4-23.4-8.4-36.4,0-25.6,11.5-48.5,29.7-63.7v-96.4h-133.6v96.4c18.1,15.2,29.7,38.1,29.7,63.7s-3,25.4-8.4,36.4c0,0,0,0,0,0,1.5,0,2.9.1,4.4.1h82.1c1.5,0,2.9,0,4.4-.1t0,0Z"/>
      <path class="cls-7" d="M346.1,385.9c-.7,0-1.4-.3-1.9-.8l-23.2-23.2c-5.6-5.6-5.6-14.8,0-20.4,2.7-2.7,6.3-4.2,10.2-4.2s7.5,1.5,10.2,4.2l4.7,4.7,4.7-4.7c2.7-2.7,6.3-4.2,10.2-4.2s7.5,1.5,10.2,4.2c5.6,5.6,5.6,14.8,0,20.4l-23.2,23.2c-.5.5-1.2.8-1.9.8Z"/>
      <path class="cls-3" d="M192,341.9c-2.4,0-4.4-2-4.4-4.4v-42.7c0-2.5,2-4.4,4.4-4.4h23.9c14.2,0,25.7,11.6,25.7,25.8s-11.5,25.8-25.7,25.8h-23.9Z"/>
      <path class="cls-9" d="M218,337.5v-42.7c0-1.8,1.1-3.3,2.6-4-1.5-.3-3-.4-4.6-.4h-23.9c-2.4,0-4.4,2-4.4,4.4v42.7c0,2.5,2,4.4,4.4,4.4h23.9c1.6,0,3.1-.1,4.6-.4-1.5-.7-2.6-2.2-2.6-4Z"/>
      <path class="cls-9" d="M473.5,316.1c0-14.2,11.5-25.8,25.7-25.8h-23c-14.2,0-25.7,11.6-25.7,25.8s11.5,25.8,25.7,25.8h23c-14.2,0-25.7-11.6-25.7-25.8Z"/>
      <path d="M227.3,37h-82.5c-10.6,0-19.2,8.6-19.2,19.2s8.6,19.2,19.2,19.2h82.5c10.6,0,19.2-8.6,19.2-19.2s-8.6-19.2-19.2-19.2ZM227.3,60.4h-82.5c-2.3,0-4.2-1.9-4.2-4.2s1.9-4.2,4.2-4.2h82.5c2.3,0,4.2,1.9,4.2,4.2s-1.9,4.2-4.2,4.2Z"/>
      <path d="M360.9,329.9c-5.6,0-10.8,2.1-14.9,5.8-4.1-3.8-9.3-5.8-14.9-5.8s-11.4,2.3-15.5,6.4c-8.5,8.5-8.5,22.4,0,31l23.2,23.2c1.9,1.9,4.5,3,7.2,3s5.2-1.1,7.2-3l23.2-23.2c8.5-8.5,8.5-22.4,0-31-4.1-4.1-9.6-6.4-15.5-6.4ZM365.8,356.7l-19.8,19.8-19.8-19.8c-2.7-2.7-2.7-7.1,0-9.8,1.3-1.3,3-2,4.9-2s3.6.7,4.9,2l4.7,4.7c1.4,1.4,3.3,2.2,5.3,2.2h0c2,0,3.9-.8,5.3-2.2l4.7-4.7c1.3-1.3,3-2,4.9-2s3.6.7,4.9,2c2.7,2.7,2.7,7.1,0,9.8Z"/>
      <path d="M500.1,282.8h-3.4v-14.9c0-6.9-5.6-12.5-12.5-12.5h-112v-63.4c0-4.1-3.4-7.5-7.5-7.5s-7.5,3.4-7.5,7.5v63.4h-47.6c-5.5-12-15.5-21.7-28.1-26.7,0-.6,0-1.1,0-1.7,0-37.2-30.2-67.4-67.2-67.4s-43.9,11.5-56.2,30.4c-6.5-3.1-13.6-4.7-20.9-4.7-25.5,0-46.6,19.5-49,44.5-18.3,8.4-30.2,26.8-30.2,47.2s23.2,52,51.8,52h70.4v8.3c0,6.6,5.4,11.9,11.9,11.9h3.5v43.8c0,4.2.2,8.4.7,12.5h-78.2c-4.1,0-7.5,3.4-7.5,7.5s3.4,7.5,7.5,7.5h81c3.8,14.8,10.6,28.3,19.7,40H24.2c-5.1,0-9.2-4.2-9.2-9.3v-30.7h67c4.1,0,7.5-3.4,7.5-7.5s-3.4-7.5-7.5-7.5H15V110.5c0-5.1,4.1-9.3,9.2-9.3h323.8c5.1,0,9.2,4.2,9.2,9.3v46.5c0,4.1,3.4,7.5,7.5,7.5s7.5-3.4,7.5-7.5v-46.5c0-13.4-10.9-24.3-24.2-24.3h-21.8l-28.8-62.7c-3.8-8.3-13.5-14.5-22.6-14.5H97.6c-9.1,0-18.8,6.2-22.6,14.5l-28.9,62.8h-21.8c-13.3,0-24.2,10.9-24.2,24.3v340.9c0,13.4,10.9,24.3,24.2,24.3h208.6c19.3,17,44.6,27.4,72.2,27.4h82.1c60.4,0,109.5-49.3,109.5-109.9v-43.8h3.4c6.6,0,11.9-5.4,11.9-11.9v-42.7c0-6.6-5.4-11.9-11.9-11.9ZM88.6,29.8c1.3-2.9,5.8-5.8,9-5.8h177.2c3.2,0,7.6,2.9,9,5.8l25.9,56.5H62.5l26-56.5ZM481.6,270.4v12.4h-5.5c-8.5,0-16.3,3.2-22.1,8.5h-215.9c-5.9-5.3-13.6-8.5-22.1-8.5h-5.5v-12.4h271.1ZM247.7,306.3h24.1v74.5c-13.4-7.9-29-12.4-45.6-12.4s-10.5.5-15.7,1.4v-20.4h5.5c18.3,0,33.2-14.9,33.2-33.3s-.5-6.7-1.5-9.8ZM180.1,294.8v19.4h-70.4c-20.3,0-36.8-16.6-36.8-37s10-29.9,24.9-35c3.1-1.1,5.1-4,5.1-7.2v-.2c0-18.9,15.4-34.4,34.3-34.4s13.7,2.1,19.4,6.1c1.8,1.2,4,1.6,6.1,1.1,2.1-.5,3.9-2,4.8-3.9,8.9-17.9,26.8-29,46.7-29,28.8,0,52.2,23.5,52.2,52.4s-.1,4-.4,6.2c-.4,3.7,1.9,7.2,5.6,8.1,8.5,2.2,15.7,7.3,20.6,14.1h-84.3c-6.9,0-12.5,5.6-12.5,12.5v14.9h-3.4c-6.6,0-11.9,5.4-11.9,11.9ZM195.1,334.4v-36.6h20.9c10,0,18.2,8.2,18.2,18.3s-8.2,18.3-18.2,18.3h-20.9ZM295.9,487.6c-47.8-4.6-85.4-45.2-85.4-94.4v-8.1c5.2-1.1,10.4-1.7,15.7-1.7,41.5,0,75.3,33.9,75.3,75.6s-1.9,19.5-5.6,28.6ZM380.4,488.1h-68.7c3.2-9.3,4.8-19,4.8-29.1,0-26.6-11.5-50.5-29.7-67.1v-85.6h118.6v85.6c-18.2,16.6-29.7,40.5-29.7,67.1s1.6,19.7,4.8,29.1ZM481.6,393.2c0,49.2-37.5,89.8-85.4,94.4-3.7-9.1-5.6-18.7-5.6-28.6,0-41.7,33.8-75.6,75.3-75.6s10.5.6,15.7,1.7v8.1ZM481.6,369.8c-5.2-.9-10.4-1.4-15.7-1.4-16.6,0-32.2,4.5-45.6,12.4v-74.5h24.1c-.9,3.1-1.5,6.4-1.5,9.8,0,18.4,14.9,33.3,33.2,33.3h5.5v20.4ZM497,334.4h-20.9c-10,0-18.2-8.2-18.2-18.3s8.2-18.3,18.2-18.3h20.9v36.6Z"/>
    </g>
  </g>
</svg>