<?xml version="1.0" encoding="UTF-8"?>
<svg xmlns="http://www.w3.org/2000/svg" version="1.1" viewBox="0 0 512 512">
  <defs>
    <style>
      .cls-1 {
        fill: #87ccd1;
      }

      .cls-2 {
        fill: #94d1d6;
      }
    </style>
  </defs>
  <!-- Generator: Adobe Illustrator 28.7.1, SVG Export Plug-In . SVG Version: 1.2.0 Build 142)  -->
  <g>
    <g id="Capa_1">
      <g>
        <g>
          <path class="cls-2" d="M391.5,64.1s0,0,0-.1h-173.2l45.2,52.7h128c8.4-17.4,8.1-34.9,0-52.6Z"/>
          <path class="cls-1" d="M436.7,64h-45.2c0,2.5,0,39.8,0,52.7h45.2v-52.7Z"/>
          <path class="cls-2" d="M218.4,64h-97.9c-13.8,26.8-14.3,52,0,75.3h22.6c0,32.4,25.6,58.9,57.7,60.2,33.7,1.6,62.7-25.6,62.7-60.2v-30.1c0-24.9-20.2-45.2-45.2-45.2Z"/>
          <path class="cls-1" d="M77,64h43.5v75.3h-43.5v-75.3Z"/>
          <path class="cls-2" d="M90.4,387.7V64c0-16.8-13.9-30.5-30.8-30.1-16.5.4-29.4,14.3-29.4,30.7v326.2l2.8,1.7c18.1,11.1,41.4,9.1,57.4-4.8h0Z"/>
          <path class="cls-1" d="M90.4,417.9v-30.1h-39.2c-7.2,0-14.3,1.1-21.1,3.1v32.5l2.3,1.6c18.3,12.5,43.1,9.5,58-7Z"/>
          <path class="cls-2" d="M481.9,390.8V64c0-16.8-13.9-30.5-30.8-30.1-16.5.4-29.4,14.3-29.4,30.7v323.2c16.8,13.1,39.8,14.7,58.3,4.2l1.9-1.1Z"/>
          <path class="cls-1" d="M481.1,423.8l.7-.5v-32.5c-6.8-2-13.9-3.1-21.1-3.1h-39.2v30.1l.8.7c16,15,40.3,17.2,58.7,5.2h0Z"/>
          <path class="cls-2" d="M504.5,461.5c0-24.1-19.6-43.7-43.7-43.7H116.5c-56.2,0-54.5,19.5-54.5,43.7s12.3,16.6,27.4,16.6h398.6c9.1,0,16.6-7.4,16.6-16.6Z"/>
          <path class="cls-2" d="M72.8,461.5c0-24.2,19.6-43.7,43.7-43.7H51.2c-24.1,0-43.7,19.5-43.7,43.7s7.4,16.6,16.6,16.6h65.3c-9.1,0-16.6-7.4-16.6-16.6Z"/>
          <circle class="cls-1" cx="203.3" cy="139.3" r="22.6"/>
        </g>
        <g>
          <path d="M203.3,169.4c16.6,0,30.1-13.5,30.1-30.1s-13.5-30.1-30.1-30.1-30.1,13.5-30.1,30.1,13.5,30.1,30.1,30.1ZM203.3,124.2c8.3,0,15.1,6.8,15.1,15.1s-6.8,15.1-15.1,15.1-15.1-6.8-15.1-15.1,6.8-15.1,15.1-15.1Z"/>
          <path d="M489.4,419.1v-200.8c0-4.2-3.4-7.5-7.5-7.5s-7.5,3.4-7.5,7.5v193.9c-4.4-1.2-8.9-1.8-13.6-1.8h-31.6V64c0-12.5,10.1-22.6,22.6-22.6s22.6,10.1,22.6,22.6v119.1c0,4.2,3.4,7.5,7.5,7.5s7.5-3.4,7.5-7.5v-119.1c0-20.8-16.9-37.6-37.6-37.6s-33.4,13-36.9,30.1H97.1c-3.5-17.2-18.7-30.1-36.9-30.1s-37.6,16.9-37.6,37.6v355.1C9,428.3,0,443.9,0,461.6s10.8,24.1,24.1,24.1h104.6c4.2,0,7.5-3.4,7.5-7.5s-3.4-7.5-7.5-7.5H24.1c-5,0-9-4.1-9-9,0-19.9,16.2-36.1,36.1-36.1h409.6c6.2,0,12.1,1.5,17.3,4.4,0,0,.2.1.3.1,11,6.1,18.6,17.9,18.6,31.6s-4.1,9-9,9H163.9c-4.2,0-7.5,3.4-7.5,7.5s3.4,7.5,7.5,7.5h324c13.3,0,24.1-10.8,24.1-24.1s-8.6-33-22.6-42.5ZM218.4,71.5c20.8,0,37.6,16.9,37.6,37.6v30.1c0,30.3-25.4,54.1-54.9,52.7-28.3-1.1-50.5-24.3-50.5-52.7s-3.4-7.5-7.5-7.5h-45.2v-60.2h120.5ZM97.9,146.8h37.6v263.5h-37.6V146.8ZM150.6,182c10.4,12.8,25.4,21.8,42.7,24.3v204h-42.7v-228.3ZM208.3,206.9c14.8-1.1,29-7.1,40.2-17.1v220.6h-40.2v-203.5ZM263.5,170.4c4.9-9.5,7.5-20.1,7.5-31.1v-15.1h32.6v286.1h-40.2v-240ZM318.7,124.2h40.2v286.1h-40.2V124.2ZM374,124.2h40.2v286.1h-40.2V124.2ZM414.1,71.5v37.6h-143.1c0-14.7-6.1-28.1-15.9-37.6h158.9ZM37.6,412.2V64c0-12.5,10.1-22.6,22.6-22.6s22.6,10.1,22.6,22.6v346.4h-31.6c-4.7,0-9.2.6-13.6,1.8Z"/>
        </g>
      </g>
    </g>
  </g>
</svg>