<?xml version="1.0" encoding="UTF-8"?>
<svg xmlns="http://www.w3.org/2000/svg" version="1.1" viewBox="0 0 511 511">
  <defs>
    <style>
      .cls-1 {
        fill: #c3fbfc;
      }

      .cls-2 {
        fill: #ea4b84;
      }

      .cls-3 {
        fill: #87ccd1;
      }

      .cls-4 {
        fill: #ff82ab;
      }
    </style>
  </defs>
  <!-- Generator: Adobe Illustrator 28.7.1, SVG Export Plug-In . SVG Version: 1.2.0 Build 142)  -->
  <g>
    <g id="Layer_1">
      <path class="cls-4" d="M43.9,189.8h423.2v313.9H43.9V189.8Z"/>
      <path class="cls-2" d="M43.9,189.8h423.2v61.5H43.9v-61.5Z"/>
      <path class="cls-4" d="M7.9,111h495.2v105.7H7.9v-105.7Z"/>
      <path class="cls-3" d="M255.5,146c-3.2,3.7-6.4,7.5-9.5,11.4-11.5,14.3-22,29.2-31.5,44.8-30.1,49.3-50.2,104.3-58.6,161.9-12.7-16.8-24.4-35-34.9-54.5-18.5,12.1-36.7,25.9-54.1,41.5,9-61.1,28.7-119.8,58-173.6,15.7-28.7,34.1-56,55-81.4,2.4-3,4.9-5.9,7.4-8.8,10.6,9.1,21.2,18.2,31.8,27.3,10.8,9.3,21.6,18.6,32.5,28,1.3,1.1,2.6,2.3,4,3.4Z"/>
      <path class="cls-3" d="M444.1,351.1c-17.4-15.6-35.6-29.4-54.1-41.5-10.5,19.5-22.2,37.7-34.9,54.5-8.4-57.6-28.5-112.7-58.6-161.9-9.5-15.5-20-30.5-31.5-44.8-3.1-3.8-6.2-7.6-9.5-11.4,1.3-1.1,2.6-2.3,4-3.4,10.8-9.3,21.7-18.7,32.5-28,10.6-9.1,21.2-18.2,31.8-27.3,2.5,2.9,5,5.8,7.4,8.8,21,25.4,39.4,52.7,55,81.4,29.3,53.7,49,112.5,58,173.6Z"/>
      <path class="cls-1" d="M386.1,177.5l-89.7,24.7c-9.5-15.5-20-30.5-31.5-44.8l-5.5-14.8-4-10.7,36.4-17.3,39.1-18.6c21,25.4,39.4,52.7,55,81.4Z"/>
      <path class="cls-1" d="M255.5,132l-4,10.7-5.5,14.8c-11.5,14.3-22,29.2-31.5,44.8l-89.6-24.7c15.7-28.7,34.1-56,55-81.4l39.1,18.6,36.4,17.3Z"/>
      <g>
        <path class="cls-3" d="M398.6,12.3l-143.1,67.9,27.5,73.9,152.7-42c20-5.5,30.9-26.9,23.7-46.3l-12.6-33.9c-7.2-19.4-29.5-28.5-48.2-19.6Z"/>
        <path class="cls-3" d="M112.4,12.3l143.1,67.9-27.5,73.9-152.7-42c-20-5.5-30.9-26.9-23.7-46.3l12.6-33.9c7.2-19.4,29.5-28.5,48.2-19.6Z"/>
        <path class="cls-3" d="M277.9,54.8h-44.9c-12.3,0-22.2,10-22.2,22.2v65.2c0,12.3,10,22.2,22.2,22.2h44.9c12.3,0,22.2-10,22.2-22.2v-65.2c0-12.3-10-22.2-22.2-22.2Z"/>
        <path class="cls-3" d="M216.1,216.7h78.9v287.1h-78.9V216.7Z"/>
      </g>
      <path class="cls-1" d="M216.1,216.7h78.9v34.7h-78.9v-34.7Z"/>
      <path d="M503.1,103.1h-41.6c1.2-1.7,2.3-3.5,3.3-5.3,5.5-10.8,6.2-23.4,2-34.7l-12.6-33.9c-4.2-11.3-13-20.4-24.2-25-11.2-4.5-23.9-4.2-34.8,1l-99.8,47.4c-4.9-3.5-11-5.6-17.5-5.6h-44.9c-6.5,0-12.5,2.1-17.5,5.6L115.8,5.2C104.9,0,92.2-.4,81,4.2c-11.2,4.5-20,13.6-24.2,25l-12.6,33.9c-4.2,11.3-3.5,24,2,34.7,1,1.9,2.1,3.7,3.3,5.3H7.9C3.5,103.1,0,106.6,0,111v56.8C0,172.1,3.5,175.7,7.9,175.7s7.9-3.5,7.9-7.9v-48.9h54.8c.9.3,1.8.6,2.7.8l66.2,18.2c-14.7,22.5-27.7,46.3-38.8,70.8H15.8v-9.5c0-4.4-3.5-7.9-7.9-7.9S0,195,0,199.3v17.4C0,221,3.5,224.6,7.9,224.6h28.1v279.2c0,4.4,3.5,7.9,7.9,7.9h423.2c4.4,0,7.9-3.5,7.9-7.9v-45.8c0-4.4-3.5-7.9-7.9-7.9s-7.9,3.5-7.9,7.9v37.9h-156.4V229.4c22.3,42.3,37.5,88.3,44.4,135.9.5,3.1,2.8,5.7,5.9,6.5.6.2,1.3.2,2,.2,2.4,0,4.8-1.1,6.3-3.1,11.3-15,21.9-31.1,31.4-48,15.9,10.9,31.4,23,46.1,36.1,2.5,2.2,6.1,2.6,9,1.1,2.9-1.6,4.5-4.8,4.1-8.1-6.3-43-18-85.2-34.7-125.4h42v201.9c0,4.4,3.5,7.9,7.9,7.9s7.9-3.5,7.9-7.9v-201.9h28.1c4.4,0,7.9-3.5,7.9-7.9v-105.7c0-4.4-3.5-7.9-7.9-7.9ZM402,19.4c7-3.3,14.9-3.6,22.1-.6,7.2,2.9,12.7,8.6,15.4,15.8l12.6,33.9c2.7,7.3,2.2,15.1-1.3,22.1-3.5,6.9-9.6,11.9-17.1,13.9l-125.5,34.6v-37.9c28.2-17.3,98.6-52.9,116.1-28.2,2.5,3.6,7.4,4.4,11,1.9s4.4-7.4,1.9-11c-13.5-19.1-42-20-84.6-2.8-17.6,7.1-33.8,15.8-44.3,21.8v-5.8c0-4.2-.9-8.2-2.5-11.9l96.3-45.8ZM233.1,62.7h44.9c7.9,0,14.4,6.4,14.4,14.4v65.2c0,7.9-6.4,14.4-14.4,14.4h-44.9c-7.9,0-14.4-6.4-14.4-14.4v-65.2c0-7.9,6.4-14.4,14.4-14.4ZM219.8,208.8c7.5-12.5,15.8-24.7,24.6-36.4h22.2c8.8,11.7,17,23.9,24.6,36.4h-71.4ZM60.3,90.6c-3.5-6.9-4-14.8-1.3-22.1l12.6-33.9c2.7-7.3,8.2-12.9,15.4-15.8,7.2-2.9,15.1-2.7,22.1.6l96.4,45.8c-1.6,3.6-2.5,7.7-2.5,11.9v6.3c-10.5-6-27.1-15-45.1-22.2-42.7-17.3-71.1-16.3-84.6,2.8-2.5,3.6-1.7,8.5,1.9,11s8.5,1.7,11-1.9c17.7-24.9,89.2,11.6,116.9,28.7v37.4l-125.5-34.6c-7.5-2.1-13.6-7-17.1-13.9ZM206.5,156.4c3.9,7.3,10.8,12.9,19,15-36.9,51.5-62.3,110.6-74.2,172.7-8.4-12.2-16.2-25.1-23.4-38.3-1-1.9-2.9-3.4-5-3.9-2.1-.5-4.4-.2-6.2,1-13.1,8.6-26,18-38.4,28.1,12.8-67.1,39.2-131.9,77.1-188.7l51.1,14.1ZM51.8,224.6h42c-16.6,40.2-28.4,82.4-34.7,125.4-.5,3.3,1.1,6.5,4.1,8.1,2.9,1.6,6.5,1.2,9-1.1,14.7-13.1,30.2-25.2,46.1-36.1,9.5,16.8,20.1,32.9,31.4,48,1.5,2,3.9,3.1,6.3,3.1s1.3,0,2-.2c3.1-.8,5.4-3.3,5.8-6.5,7-47.5,22.1-93.5,44.4-135.9v266.5H51.8V224.6ZM224,495.9V224.6h63.1v271.3h-63.1ZM394.3,303c-1.8-1.2-4.1-1.6-6.2-1-2.1.5-3.9,2-5,3.9-7.2,13.3-15,26.1-23.4,38.3-11.9-62.2-37.3-121.3-74.2-172.7,8.2-2.1,15.1-7.7,19-15l51.1-14.1c37.9,56.8,64.3,121.6,77.1,188.7-12.4-10.1-25.3-19.5-38.4-28.1ZM495.2,208.8h-84.8c-11.1-24.6-24.1-48.3-38.8-70.8l66.2-18.2c.9-.2,1.8-.5,2.7-.8h54.8v89.9Z"/>
    </g>
  </g>
</svg>