<?xml version="1.0" encoding="UTF-8"?>
<svg xmlns="http://www.w3.org/2000/svg" version="1.1" viewBox="0 0 512 512">
  <defs>
    <style>
      .cls-1 {
        fill: #ff82ab;
      }

      .cls-2 {
        fill: #94d1d6;
      }

      .cls-3 {
        fill: #ffcc61;
      }
    </style>
  </defs>
  <!-- Generator: Adobe Illustrator 28.7.1, SVG Export Plug-In . SVG Version: 1.2.0 Build 142)  -->
  <g>
    <g id="Layer_1">
      <g>
        <g>
          <path class="cls-2" d="M457,162.9l27.3-43.6-28.1-46.5c-9.3-15.5-23.6-27.4-40.5-33.8l-54-20.7h-22.5l-26.9,32.4-56.4,18.6-56.4-18.6-26.9-32.4h-22.5l-54,20.7c-16.9,6.5-31.1,18.4-40.5,33.8l-28.1,46.5,27.3,43.6,41.3,31.8,18.7-10c-.5,1.5-43.1,132.7-11.7,283.6l53.2,18.1,53.2-18.1,15.4-47.6c2.4-7.3,9.2-12.3,16.9-12.3h27.9c7.7,0,14.6,5,16.9,12.3l15.4,47.6,53.2,18.1,53.2-18.1c31.4-151-11.2-282.1-11.7-283.6l18.7,10,41.2-31.8Z"/>
          <path class="cls-1" d="M209.8,468.3l-6.5,20.1c-3.1,9.6-12,16.1-22.1,16.1h-51.1c-10.7,0-20-7.3-22.6-17.7-1.5-6.2-2.9-12.4-4.2-18.5h106.4Z"/>
          <path class="cls-1" d="M96.3,194.7l-17,9.1c-9.4,5-20.9,3-28.1-4.9l-31.4-34.5c-6.9-7.6-8-18.8-2.7-27.6l10.6-17.5,68.6,75.4Z"/>
          <path class="cls-1" d="M408.6,468.3c-.7,3.4-1.5,6.9-2.3,10.3-.6,2.7-1.3,5.5-2,8.2-2.6,10.4-11.9,17.7-22.6,17.7h-51.1c-10.1,0-19-6.5-22.1-16.1l-6.5-20.1h106.4Z"/>
          <path class="cls-1" d="M492.2,164.4l-31.4,34.5c-7.1,7.9-18.7,9.9-28.1,4.9l-17-9.1,68.6-75.4,10.6,17.5c5.3,8.8,4.2,20-2.7,27.6Z"/>
          <path class="cls-1" d="M335.2,8c-4-1.5-8.5.1-10.4,3.9-13,24.8-38.9,41.7-68.8,41.7s-55.8-17-68.8-41.7c-2-3.8-6.5-5.4-10.4-3.9l-26.5,10.2c16.7,42,57.7,71.7,105.7,71.7s89-29.7,105.7-71.7l-26.5-10.2Z"/>
          <circle class="cls-3" cx="193.4" cy="178.3" r="30.5"/>
          <circle class="cls-3" cx="318.6" cy="178.3" r="30.5"/>
          <ellipse class="cls-3" cx="256" cy="225.1" rx="82.2" ry="72.1"/>
        </g>
        <g>
          <path d="M212.7,205.7c-4.1,0-7.5,3.4-7.5,7.5v6.7c0,4.1,3.4,7.5,7.5,7.5s7.5-3.4,7.5-7.5v-6.7c0-4.1-3.4-7.5-7.5-7.5Z"/>
          <path d="M299.3,205.7c-4.1,0-7.5,3.4-7.5,7.5v6.7c0,4.1,3.4,7.5,7.5,7.5s7.5-3.4,7.5-7.5v-6.7c0-4.1-3.4-7.5-7.5-7.5Z"/>
          <path d="M279.2,235c-3.1-2.7-7.9-2.4-10.6.7-3.1,3.5-7.7,5.5-12.6,5.5s-9.6-2-12.6-5.5c-2.7-3.1-7.5-3.4-10.6-.7s-3.4,7.5-.7,10.6c5.9,6.8,14.6,10.6,23.9,10.6s18-3.9,23.9-10.6c2.7-3.1,2.4-7.9-.7-10.6Z"/>
          <path d="M256,225.8c6.1,0,11-3.8,11-8.5s-22.1-4.7-22.1,0c0,4.7,4.9,8.5,11,8.5Z"/>
          <path d="M490.7,115.4l-28.1-46.5c-10.2-16.8-25.9-29.9-44.2-37,0,0-80.5-30.8-80.5-30.8-7.4-2.8-16.1.4-19.7,7.4-12.2,23.3-36,37.7-62.1,37.7s-50-14.5-62.1-37.7c-3.7-7-12.3-10.3-19.7-7.4l-26.5,10.2-54,20.7c-18.3,7-34,20.2-44.2,37,0,0-28.1,46.5-28.1,46.5l-10.6,17.5c-7,11.5-5.5,26.6,3.6,36.5,0,0,31.4,34.5,31.4,34.5,9.3,10.3,24.9,13,37.2,6.4,0,0,17-9.1,17-9.1l3.2-1.7c-7.1,27.9-19.5,87.1-18.7,160.1,0,4.1,3.4,7.4,7.5,7.4h0c4.1,0,7.5-3.4,7.4-7.6-1.1-97.7,21.8-169.5,22.8-172.6,2-6.3-4.8-12-10.7-8.9l-13.6,7.2-60.9-67,25.2-41.7c8.4-14,21.5-24.9,36.7-30.7,0,0,47.3-18.1,47.3-18.1-.5.2,10.4,17.9,11.5,19.4,8.1,11.2,18.1,20.9,29.4,28.8,10.1,7,21.1,12.3,32.7,15.9,25.8,8,54.1,7.2,79.4-2.5,22.2-8.5,41.8-23.6,55.6-43,4.2-5.9,7.8-12.2,10.9-18.7l47.3,18.1c15.2,5.8,28.3,16.7,36.7,30.7l25.2,41.7-60.9,67s-13.6-7.2-13.6-7.2c-5.8-3.1-12.7,2.7-10.7,8.9.3,1.1,8.6,26.8,15.1,67.8.6,4.1,4.5,6.9,8.6,6.2,4.1-.6,6.9-4.5,6.2-8.6-3.6-22.5-7.7-40.7-10.8-52.9l20.2,10.8c12.3,6.5,27.8,3.8,37.2-6.4l31.4-34.5c9.1-10,10.5-25,3.6-36.5,0,0-10.6-17.5-10.6-17.5ZM75.8,197.1c-6.2,3.3-14.2,2-19-3.3l-31.4-34.5c-4.7-5.2-5.4-12.7-1.8-18.7l5.4-8.9,55.3,60.8s-8.5,4.5-8.5,4.5ZM179.5,15c.4-.1.8,0,1.1.4,14.8,28.2,43.6,45.8,75.4,45.8s60.7-17.5,75.4-45.8c.2-.5.7-.5,1.1-.4l19.2,7.3s0,0,0,.1c-2.9,6-6.5,11.9-10.5,17.2-19.8,26.4-51.8,42.7-85.1,42.7s-42.5-6.5-60.3-18.8c-11.2-7.7-20.9-17.6-28.4-29-2.6-3.9-4.9-8-6.9-12.1,0,0,0,0,0-.1l19.2-7.3ZM486.6,159.3s-31.4,34.5-31.4,34.5c-4.8,5.3-12.8,6.6-19,3.3l-8.5-4.5,55.3-60.8,5.4,8.9c3.6,6,2.9,13.5-1.8,18.7Z"/>
          <path d="M100.4,389.2c-.3-4.1-3.8-7.3-7.9-7-4.1.3-7.3,3.8-7,7.9,1.7,27.3,5.2,54.1,10.6,79.8h0s0,0,0,0c1.3,6.4,2.8,12.7,4.3,18.8,3.4,13.8,15.7,23.4,29.8,23.4h51.1c13.4,0,25.1-8.6,29.2-21.3l21.9-67.8c1.4-4.3,5.3-7.1,9.8-7.1h27.9c4.5,0,8.4,2.9,9.8,7.1l21.9,67.8c4.1,12.7,15.8,21.3,29.2,21.3h51.1c14.2,0,26.4-9.6,29.8-23.4.7-2.8,1.3-5.5,2-8.3.9-3.8,1.6-7.2,2.3-10.5,0,0,0,0,0,0,12.3-59.2,14.9-122.2,7.8-187-.5-4.1-4.2-7.1-8.3-6.6-4.1.5-7.1,4.2-6.6,8.3,6.7,61.1,4.6,120.4-6.4,176.4h-94.8l-13.7-42.4c-3.4-10.5-13.1-17.5-24.1-17.5h-27.9c-11,0-20.7,7-24.1,17.5l-13.7,42.4h-94.8c-4.5-23.1-7.6-47.2-9.1-71.7ZM399.3,475.8c0,.4-.2.8-.3,1.1-.6,2.7-1.3,5.4-1.9,8.1-1.7,7-8,12-15.3,12h-51.1c-6.8,0-12.8-4.4-14.9-10.9l-3.3-10.3h86.8ZM199.5,475.8l-3.3,10.3c-2.1,6.5-8.1,10.9-14.9,10.9h-51.1c-7.2,0-13.5-4.9-15.3-12-.7-3-1.5-6.1-2.2-9.2h86.8Z"/>
          <path d="M356.6,178.3c0-21-17-38-38-38s-20.2,4.3-27.3,11.6c-10.8-4.1-22.8-6.4-35.3-6.4s-24.4,2.3-35.3,6.4c-7.1-7.3-16.9-11.6-27.3-11.6-21,0-38,17-38,38s4.8,21.6,13.2,28.8c-1.5,5.8-2.3,11.8-2.3,18,0,43.9,40.2,79.6,89.7,79.6s89.7-35.7,89.7-79.6-.8-12.2-2.3-18c8.3-7.2,13.2-17.5,13.2-28.8ZM174.6,191.5c-2.7-3.8-4.2-8.4-4.2-13.3,0-12.7,10.3-23,23-23s8.8,1.3,12.5,3.7c-5.4,3.2-10.4,7-14.9,11.2-6.6,6.1-12.2,13.4-16.5,21.4ZM256,289.7c-41.2,0-74.7-29-74.7-64.6s17.6-47,40-57.2c10.4-4.7,22.2-7.4,34.7-7.4,26.8,0,54.4,13,67.6,37.1,0,0,0,0,0,.1,4.6,8.4,7.1,17.9,7.1,27.4,0,35.6-33.5,64.6-74.7,64.6ZM336.7,190.3c-3.2-5.8-7.1-11.2-11.7-16.1-5.5-5.8-11.9-11-19-15.3,3.7-2.4,8-3.7,12.5-3.7,12.7,0,23,10.3,23,23s-1.5,9.4-4.2,13.3c-.1-.3-.6-1.1-.7-1.2Z"/>
        </g>
      </g>
    </g>
  </g>
</svg>