<?xml version="1.0" encoding="UTF-8"?>
<svg xmlns="http://www.w3.org/2000/svg" version="1.1" viewBox="0 0 512 512">
  <defs>
    <style>
      .cls-1, .cls-2 {
        isolation: isolate;
        opacity: .1;
      }

      .cls-1, .cls-3 {
        fill: #ffcc61;
      }

      .cls-4 {
        fill: #87ccd1;
      }

      .cls-5 {
        fill: #ff82ab;
      }

      .cls-6 {
        fill: #94d1d6;
      }

      .cls-7 {
        fill: #ffe7bd;
      }
    </style>
  </defs>
  <!-- Generator: Adobe Illustrator 28.7.1, SVG Export Plug-In . SVG Version: 1.2.0 Build 142)  -->
  <g>
    <g id="Capa_1">
      <path class="cls-3" d="M189,418.2h-34.2c-30.9,0-55.9-25-55.9-55.9v-196.8h146v196.8c0,30.9-25,55.9-55.9,55.9Z"/>
      <path class="cls-5" d="M362.4,390.9h0c0-58.7-47.6-106.4-106.4-106.4h0c-58.7,0-106.4,47.6-106.4,106.4v105.9c0,4.3,3.5,7.7,7.7,7.7h262.2c4.9,0,8.8-4.2,8.4-9.1-3.1-37.5-24.7-69.7-55.7-87.4-6.1-3.5-9.9-10.1-9.9-17.1Z"/>
      <path class="cls-2" d="M256,284.5h0c-30.5,0-58,12.8-77.4,33.4,22.8,12.9,49.2,20.3,77.4,20.3s54.5-7.4,77.4-20.3c-19.4-20.5-46.9-33.4-77.4-33.4Z"/>
      <circle class="cls-6" cx="98.6" cy="165.1" r="27.8"/>
      <circle class="cls-5" cx="92" cy="192.9" r="18.4"/>
      <circle class="cls-6" cx="413.4" cy="165.1" r="27.8"/>
      <circle class="cls-5" cx="420" cy="192.9" r="18.4"/>
      <circle class="cls-7" cx="256" cy="164.9" r="157.4"/>
      <path class="cls-1" d="M279.3,302.5c-86.9,0-157.4-70.5-157.4-157.4s16.8-81,44.2-109.4c-40.8,28.4-67.5,75.7-67.5,129.2,0,86.9,70.5,157.4,157.4,157.4s84.6-18.4,113.2-48c-25.5,17.8-56.5,28.2-89.9,28.2Z"/>
      <path class="cls-7" d="M292.9,480.8c-29.3,0-53.2-7.5-71.4-22.5-22.9-18.8-35.3-49.5-34.2-84.3.3-10.5,9.1-18.8,19.7-18.5,10.5.3,18.8,9.1,18.5,19.7-1,32.5,13.9,48.3,20.3,53.6,18.1,14.9,49.1,17.8,89.9,8.4,10.3-2.4,20.5,4.1,22.9,14.3,2.4,10.3-4.1,20.5-14.3,22.9-18.6,4.3-35.7,6.4-51.3,6.4Z"/>
      <path class="cls-3" d="M256,7.5c152.1,0,168.2,124.2,157.4,157.4-19.5-7.7-190.8-63.3-200.3-98-25.4,39-86.8,98.2-114.6,98h0C90.1,77.6,152.2,7.5,256,7.5Z"/>
      <path d="M448.7,165.1c0-16.2-10.7-29.8-25.8-34-.3-3-.7-6.1-1.2-9.2-.7-4.1-4.6-6.8-8.6-6.1-4.1.7-6.8,4.6-6.1,8.6.8,4.6,1.3,9,1.5,13.1,0,.2,0,.5,0,.7.4,6.5.1,12.1-.5,16.7-2.1-.8-4.6-1.6-7.3-2.6-23.6-8.3-67.6-23.9-106.6-41-62.5-27.5-72.3-41.5-73.6-46.3-.8-2.8-3.2-5-6.1-5.4-2.9-.5-5.8.8-7.4,3.3-23.6,36.2-75.1,85.2-101.4,93.4-1.6-36.3,9.8-69.7,32.5-94.8,27.2-29.9,69.1-46.4,118-46.4s72.4,8.6,97.8,25.7c20.3,13.6,35.4,32.3,44.9,55.3,1.6,3.8,6,5.7,9.8,4.1,3.8-1.6,5.7-6,4.1-9.8-10.5-25.5-27.9-47-50.4-62.1C334.3,9.5,298.5,0,256,0s-99,18.2-129.1,51.4c-19.8,21.8-31.9,49.2-35.5,79.2-16,3.3-28.1,17.6-28.1,34.5s1.7,12.3,4.8,17.7c-1.3,3.1-2,6.5-2,10.1,0,14.1,11.3,25.6,25.4,25.9v143.4c0,15.9,5.9,31.1,16.7,42.8,9.1,9.9,21,16.6,34.1,19.3v29c0,4.1,3.4,7.5,7.5,7.5s7.5-3.4,7.5-7.5v-62.5c0-28.7,12.3-55.6,33.8-74.4,20,8.6,42,13.4,65.1,13.4s45.1-4.8,65.1-13.4c21.5,18.8,33.8,45.7,33.8,74.4s5.2,18.8,13.7,23.6c29.8,17,49.2,47.4,52,81.4,0,.4-.1.6-.3.7-.2.2-.4.3-.7.3H157.4c-.1,0-.2-.1-.2-.2v-9.5c0-4.1-3.4-7.5-7.5-7.5s-7.5,3.4-7.5,7.5v9.5c0,8.4,6.8,15.2,15.2,15.2h262.2c4.4,0,8.7-1.9,11.7-5.1,3-3.3,4.5-7.7,4.2-12.1-3.2-39-25.4-73.8-59.5-93.3-3.8-2.1-6.1-6.2-6.1-10.6,0-31-12.4-60.1-34.4-81.5,35.8-19.8,63.5-52.5,76.8-91.8,2.5.8,5.1,1.2,7.7,1.2,14.3,0,25.9-11.6,25.9-25.9s-.7-7-2-10.1c3.1-5.3,4.8-11.5,4.8-17.7ZM78.3,165.1c0-8.2,5-15.3,12-18.5-.1,6.1.1,12.4.7,18.6,0,.6,0,1.1,0,1.7-4.4.1-8.5,1.4-12.1,3.5-.5-1.7-.7-3.5-.7-5.3ZM91.4,203.8c-5.8-.3-10.4-5.1-10.4-10.9s4.6-10.6,10.4-10.9v21.8ZM142.1,390.9v18.1c-20.8-5.6-35.7-24.4-35.7-46.7v-127.9c14.8,31.8,39.5,58.2,70.1,75.1-22,21.4-34.4,50.5-34.4,81.5ZM256,314.8c-80.5,0-146.3-63.7-149.8-143.3,17.6-4.1,39.4-20.8,55.5-35.2,19-17,37.8-37.5,51.1-55.7,19.2,21.6,76.3,48.2,182.8,85.9,4.1,1.4,7.5,2.7,10.2,3.6-2.7,80.3-68.9,144.7-149.8,144.7ZM420,203.8c-1.2,0-2.4-.2-3.6-.6,1.7-6.9,2.9-14,3.6-21.2,6,0,10.9,4.9,10.9,10.9,0,6-4.9,10.9-10.9,10.9ZM433,170.4c-3.6-2.1-7.7-3.3-12.1-3.5,0-.3,0-.6,0-.9,1.5-5.2,2.4-11.5,2.6-18.4,6.1,3.5,10.1,10.1,10.1,17.5,0,1.8-.2,3.6-.7,5.3ZM207.2,348c-7.1-.2-13.9,2.3-19,7.2-5.2,4.9-8.1,11.4-8.4,18.5-1.2,37.1,12.3,70,37,90.3,19.5,16.1,45.2,24.2,76.2,24.2,16.1,0,33.9-2.2,52.9-6.6,6.9-1.6,12.8-5.8,16.6-11.8,3.8-6,5-13.1,3.4-20.1-3.3-14.3-17.6-23.2-31.9-20-38.4,8.8-67.3,6.4-83.4-6.9-5.6-4.6-18.5-18.5-17.6-47.6.5-14.6-11.1-26.9-25.7-27.4ZM241,434.6c19.9,16.4,53.2,19.8,96.3,9.9,6.2-1.4,12.4,2.5,13.9,8.7.7,3,.2,6.1-1.5,8.7-1.6,2.6-4.2,4.4-7.2,5.1-17.9,4.1-34.6,6.2-49.6,6.2-27.4,0-49.9-7-66.7-20.8-21-17.3-32.5-45.8-31.5-78.3,0-3.1,1.4-6,3.6-8.1,2.2-2,5-3.1,7.9-3.1s.3,0,.4,0c6.4.2,11.4,5.6,11.2,11.9-1.1,35.8,15.7,53.6,23.1,59.7ZM176.2,150.8c-12,0-21.7,9.7-21.7,21.7s3.4,7.5,7.5,7.5,7.5-3.4,7.5-7.5,3-6.7,6.7-6.7,6.7,3,6.7,6.7,3.4,7.5,7.5,7.5,7.5-3.4,7.5-7.5c0-12-9.7-21.7-21.7-21.7ZM267.2,203.9c-2.9,3.1-6.9,4.9-11.2,4.9s-8.3-1.7-11.2-4.9c-2.8-3-7.6-3.2-10.6-.3s-3.2,7.6-.3,10.6c5.7,6.1,13.8,9.6,22.1,9.6s16.4-3.5,22.1-9.6c2.8-3,2.7-7.8-.3-10.6-3-2.8-7.8-2.7-10.6.3ZM335.8,150.8c-12,0-21.7,9.7-21.7,21.7s3.4,7.5,7.5,7.5,7.5-3.4,7.5-7.5,3-6.7,6.7-6.7,6.7,3,6.7,6.7,3.4,7.5,7.5,7.5,7.5-3.4,7.5-7.5c0-12-9.7-21.7-21.7-21.7Z"/>
      <g>
        <path class="cls-6" d="M-786.5,250.1c6.5-11.2,12.3-21.8,17.3-31.6,4.7-8.6,8.2-17.5,10.5-26.5v-.5c1.9-8.3,1.2-15.3-1.8-21-5.3-9.7-17-14.5-35.1-14.5s-8.8.4-13.2,1.2c-11.1,2-22.6,5.9-34.2,11.6-5.6,2.8-10.4,6.5-14.6,11.2-4.2,4.7-8.3,10-12.3,15.9-2.6,3.7-5.4,7.5-8.5,11.5-1.5-7.5-1.7-14.2-.4-20.3,1.4-6.8,4.5-13.3,9.3-19.6,10.7-14.6,22.1-24.9,34.4-31,12.3-6.1,23.8-9.1,34.5-9.1,16.4,0,30.2,6.3,41.5,19,7.7,9.5,14.3,19.9,20.1,31.1,5.1,10,7.2,18.4,6.2,25.2-1,6.8-1.6,10.8-1.9,12.2-2.2,10.5-6.9,20.1-14,29-8.1,10.1-18.9,17-32.5,20.7-2.2.5-7.1,1.4-14.7,2.7,3.4-6.1,6.6-11.8,9.7-17.1h0Z"/>
        <path class="cls-6" d="M-870.1,268.5c-1.9-3.6-3.1-7.9-3.6-12.9-.5-5-.2-10,.9-15.1.8-3.6,1.9-7.2,3.5-10.8,3.7-8.7,8.9-15.9,15.6-21.7,4.4,1.7,8.1,4.6,11,8.5,2.9,3.9,5.7,8.8,8.5,14.8-4,5.8-7.1,11.9-9.4,18.3-1.5,4.3-3.4,8.4-5.5,12.4-2.2,4-5.1,7.6-8.9,10.7h-2.9c-4.4.1-7.5-1.3-9.1-4.2h0Z"/>
        <path class="cls-6" d="M-734.4,269.1l6.2-15c3-6.8,5.8-13.7,8.4-20.6,2.6-6.9,5.2-15,7.6-24.2,3.3-12.4,7.1-25.2,11.3-38.4,2.4-7.5,4.6-14.7,6.7-21.7l7.1-25.5c4.1-15.6,8.7-31.1,13.9-46.5,5.1-15.4,11.8-30.6,20.1-45.7,3.6-6.4,8-12.8,13.1-19.3,5.1-6.5,10.6-12.2,16.3-17.1,11-8.6,19.6-13,25.8-13.1,6.2-.1,9.5-.2,10-.2,11.4,0,21.4,3.5,29.9,10.5,4.2,3.4,8,7.1,11.6,11.1,3.5,4,6.3,8.7,8.3,14.1-.7-.6-1.4-1.2-2.1-1.7-1.7-1.2-3.1-2.6-4.4-4.1-3.9-4.4-8-6.9-12.1-7.4-4.1-.5-7.1-.7-8.8-.7-4.8,0-9.6.7-14.6,2.1-6.7,1.9-12.3,4.7-16.9,8.2-9.3,7.5-16.9,16.2-22.9,26-11.8,19.3-20.9,39.3-27.5,59.9-5.8,17.9-11.5,35.7-17,53.6l-9.8,30.6c-3.3,10.7-6.8,20.8-10.3,30.2-3.6,9.4-8,20.3-13.3,32.5-2.9,7-7,13.3-12.3,19.1-3.3,3.2-6.4,5-9.2,5.4-2.8.4-4.8.6-5.8.6-3.4,0-6.5-.9-9.4-2.6h0Z"/>
        <path class="cls-6" d="M-593.8,137.8c-13.9-6.7-27-10.7-39.2-12-1.8-.2-3.2,1.1-4.2,3.9-2.8,7-4.7,14.9-5.5,23.7-.8,9.4.7,15,4.6,16.8,9.2,3.7,16.6,6.7,22.2,9,8.4,3.9,12.6,10,12.6,18.4v8c0,1.5.8,2.5,2.5,3,2,.2,3.3-.5,3.9-2,10.9-22.7,16.4-38.8,16.4-48.3s-4.4-16.5-13.2-20.6"/>
        <path class="cls-6" d="M-447.3,224.4h-11.6c3.2-5.1,5.9-19,8.1-41.8.2-3,.3-6.1.3-9.1,0-14.4-3.4-24.9-10.1-31.8-6-6.3-17.5-9.4-34.4-9.4h-38.4c-10.1,0-17.5-1.2-22.2-3.5-4.5-2.4-7.9-1.7-10.1,2.2-2.7,5.1-4.1,12.4-4.1,21.9s.8,16.4,2.5,19c3,4.3,10.9,6.4,23.6,6.4h41.2c10.1,0,17.5,1.5,22.2,4.6,7.1,4.5,12.2,16.1,15.1,34.8.5,3,1,5.2,1.6,6.7h-85.6c-8,0-13.2,2.7-15.7,8-4.3,9.2-7.4,19.8-9.4,31.6-.6,4.5,1.6,6.8,6.8,6.8h101.7c8,0,13.3-2.7,15.9-8,3.9-8,7-18.5,9.3-31.6.8-4.5-1.4-6.8-6.8-6.8"/>
        <path class="cls-6" d="M-125.4,224.4h-11.6c3.2-5.1,5.9-19,8.1-41.8.2-3,.3-6.1.3-9.1,0-14.4-3.4-24.9-10.1-31.8-6-6.3-17.5-9.4-34.4-9.4h-38.4c-10.1,0-17.5-1.2-22.2-3.5-4.5-2.4-7.9-1.7-10.1,2.2-2.7,5.1-4.1,12.4-4.1,21.9s.8,16.4,2.5,19c3,4.3,10.9,6.4,23.6,6.4h41.2c10.1,0,17.5,1.5,22.2,4.6,7.1,4.5,12.2,16.1,15.1,34.8.5,3,1,5.2,1.6,6.7h-85.6c-8,0-13.2,2.7-15.7,8-4.3,9.2-7.4,19.8-9.4,31.6-.6,4.5,1.6,6.8,6.8,6.8h101.7c8,0,13.3-2.7,15.9-8,3.9-8,7-18.5,9.3-31.6.8-4.5-1.4-6.8-6.8-6.8"/>
        <path class="cls-6" d="M-257.2,150.4c0-3.5-1.8-6.6-5.3-9.4-3.5-2.8-9.7-5.8-18.5-9.2-8.8-3.4-15.2-5.1-19-5.3-1.7,0-3.1.2-4.2.6-2.1,1.2-3.8,5.8-5,13.8-1.2,6.3-1.7,11.6-1.7,15.9s.4,8,1.3,10.5c5.3,6.1,13.6,11.8,25,17.1-6.3,6.9-11.7,13.3-16.1,19-6.9,8.2-12.5,13.5-16.7,16-5,3-12.4,4.6-22,4.6h-15.3c3.1-6.1,7.3-14.4,8.8-18.2,2.5-6.3,16.9-35.5,16.9-35.5l-.8.4c.7-1.3,1.3-2.6,2-4,3.5-7.7,5.2-13.6,5.2-17.9s-.9-4.9-2.7-6.8c-3.5-3.7-9.5-7.1-18.1-10.4-7.2-2.6-14-4.3-20.3-5.2-2.9,0-4.8.8-5.7,2.4-4.3,8.3-6.4,18.5-6.4,30.5s.3,5.9.9,8c4.8,5.6,14.2,12.1,28.2,19.4-2.8,5.7-6.4,12.2-8.9,15-10.8,12-17.1,18.6-20.4,22-2.6,0-4.4-.2-5.6-.4-3.9-.4-6.9-1.6-9.2-3.5-2.3-1.9-4.2-6.8-6-14.7-1.6-7.1-2.4-13.9-2.7-20.7,3.2-4.7,6.1-10.4,8.7-17.2,3.2-8.1,4.9-14.3,4.9-18.6s-1.8-6.6-5.5-9.4c-8.2-6.4-20.8-10.7-37.9-12.9-3.3,0-5.2.8-5.8,2.4-3.5,6.8-5.2,16-5.2,27.7s.5,8.3,1.6,10.8c3.2,3.9,8.6,8,16.2,12.3,2.9,1.8,7.7,4.2,14.3,7.4-4.8,8.9-7.2,15-7.2,18.4.2,9.2.6,16.2,1.3,20.9,2.8,16.6,5,28.1,6.4,34.7,1.5,6.6,4.1,9.8,8,9.8h65.4c9.4,0,15.1-.3,17.1-.9,5.8-2,10-5.1,12.7-9.4,1.6-2.3,4.7-9.4,9.4-21.2,8.8-21.1,15.9-37.7,21.3-50,.2,0,.3.1.5.2,4.5-5.2,8.5-12.5,12-21.7,2.7-7.7,4.1-13.4,4.1-17.3"/>
        <path class="cls-4" d="M-767.4,89.7c-.6.5-1.2,1-1.8,1.5-.5-1-1-1.9-1.4-3,1.1.4,2.2.9,3.2,1.4M-767.2,97.6c.5-.1,1.1-.3,1.6-.4.1,0,.3,0,.5-.2-.3,1.2-.7,2.4-1.2,3.5-.4-.9-.6-1.9-.9-2.9M-768.4,93.1c1-.8,2-1.6,3-2.4.7.3,1.3.7,2,1-.4,1-.8,2.1-1.1,3.2-1.1.1-2.1.3-3.2.4-.1-.4-.2-.8-.3-1.2-.1-.3-.2-.6-.4-1M-758.7,94.2c-1,.1-1.9.2-2.9.4.2-.5.3-1.1.5-1.6.8.4,1.6.8,2.4,1.3M-760.8,84.3c-1.6,1.1-3.1,2.4-4.5,3.6-2.2-1.1-4.5-2.2-6.9-3.1-1-.4-1.9.5-1.7,1.5.4,2.4,1.5,4.5,2.5,6.6-1.5,1.1-3,2.1-4.6,3-1,.6-.8,2.2.4,2.2,1.9,0,3.8,0,5.7-.2.5,2.3,1.1,4.6,2.6,6.4.6.7,1.8.6,2.3-.1,1.6-2.6,2.2-5.5,3-8.4,1.4-.5,2.8-.9,4.2-1.3.8.4,1.7.9,2.5,1.3,1.3.6,2.5-1.2,1.3-1.8-2.1-1.1-4.1-2.3-6.2-3.4.6-1.8,1.1-3.5,1.4-5.4.2-1.1-1.2-1.5-1.9-.9"/>
        <path class="cls-5" d="M-706.3,47.6c.5.9,1,1.8,1.5,2.7-.7.2-1.5.4-2.2.6.2-1.1.4-2.2.7-3.3M-699.3,57.8c-1.1-.3-2.3-.6-3.4-1,.1,0,.3-.2.4-.3.4-.3.8-.7,1.2-1,.7.7,1.3,1.5,1.8,2.3M-703.3,52.9c.2.3.5.6.7.9-.7.8-1.4,1.5-2.1,2.3-1-.3-2-.6-3.1-.9.1-.7.2-1.4.3-2.1,1.2-.3,2.4-.6,3.6-1,.2.3.3.5.5.8M-708.1,57.6c.5.2,1,.3,1.5.5-.6.7-1.2,1.4-1.9,2,.1-.8.2-1.7.3-2.5M-715.2,55c1.6.8,3.3,1.4,4.9,1.9-.3,2.2-.5,4.5-.8,6.7-.2,1.4,1.9,1.4,2.1,0,.1-.9.3-1.8.4-2.6,1.1-.9,2.2-1.7,3.4-2.5,2.7,1,5.3,2.2,8.2,2.4.9,0,1.6-.8,1.4-1.7-.6-2.2-2-3.9-3.5-5.6,1.2-1.3,2.3-2.7,3.3-4.2.6-1-.5-2-1.5-1.6-1.6.7-3.2,1.3-4.9,1.8-1.1-2-2.1-4-3.7-5.6-.7-.7-1.8-.5-2.1.5-.7,2.3-1.1,4.7-1.5,7-1.8.4-3.6.9-5.3,1.5-.8.3-1.3,1.5-.3,2"/>
        <path class="cls-3" d="M-730.8,94.8c1.2,0,2.5.3,3.7.4-.3.8-.6,1.7-1,2.5-.9-1-1.8-1.9-2.7-3M-716.1,94.9c-1,.9-2.2,1.8-3.3,2.6,0-.2,0-.4,0-.6,0-.6,0-1.3-.1-1.9,1.2-.1,2.3-.2,3.5-.2M-723.6,95.5c.5,0,.9,0,1.4,0,.3,1.2.5,2.4.8,3.6-1,.7-2,1.5-3,2.4-.6-.6-1.2-1.2-1.8-1.8.5-1.4,1-2.8,1.5-4.1.4,0,.8,0,1.2,0M-722.3,103.3c.5-.4,1-.8,1.5-1.1.2,1.1.5,2.1.7,3.2-.7-.7-1.5-1.4-2.2-2.1M-729.7,108.5c1.9-1,3.6-2.2,5.2-3.5,2,1.8,4,3.6,6,5.4,1.2,1.1,2.7-.9,1.5-2-.8-.7-1.5-1.5-2.3-2.2-.1-1.7-.1-3.3-.1-5,2.8-2,5.7-3.7,7.9-6.4.7-.8.3-2.2-.7-2.5-2.5-.9-5.2-.7-7.8-.4-.4-2.1-1.1-4.1-1.9-6.1-.5-1.3-2.3-.9-2.6.3-.4,2-.9,4-1.6,6-2.7-.2-5.4-.7-8-.2-1.1.2-1.7,1.5-1,2.4,1.8,2.2,3.8,4.3,5.8,6.3-.8,2-1.6,4.1-2.2,6.2-.3,1,.6,2.3,1.7,1.7"/>
        <path class="cls-3" d="M-198.4,195.1c.6,1,1.1,2,1.6,3-.8.2-1.6.4-2.4.6.2-1.2.5-2.4.8-3.6M-190.7,206.3c-1.3-.3-2.5-.7-3.7-1.1.1-.1.3-.2.4-.3.5-.3.9-.7,1.4-1.1.7.8,1.4,1.6,2,2.5M-195.1,200.9c.3.3.5.7.8,1-.8.8-1.5,1.7-2.3,2.5-1.1-.4-2.3-.7-3.4-1,.1-.8.2-1.5.4-2.3,1.3-.3,2.6-.7,3.9-1.1.2.3.4.6.6.9M-200.4,206.1c.6.2,1.1.4,1.7.5-.7.7-1.4,1.5-2.1,2.2.1-.9.3-1.9.4-2.8M-208.2,203.3c1.8.9,3.6,1.5,5.4,2.1-.3,2.5-.6,4.9-.9,7.3-.2,1.5,2.1,1.5,2.3,0,.2-1,.3-1.9.4-2.9,1.2-1,2.4-1.9,3.7-2.7,3,1.1,5.8,2.4,9,2.6,1,0,1.8-.9,1.5-1.9-.6-2.4-2.2-4.3-3.9-6.1,1.3-1.4,2.5-3,3.6-4.7.7-1.1-.5-2.3-1.6-1.8-1.7.8-3.5,1.4-5.4,2-1.2-2.1-2.3-4.4-4.1-6.2-.7-.7-2-.5-2.3.5-.7,2.6-1.2,5.1-1.7,7.8-2,.5-3.9,1-5.8,1.6-.9.3-1.4,1.7-.4,2.2"/>
        <path class="cls-3" d="M-512.6,290.8c.6,1,1.1,2,1.6,3-.8.2-1.6.4-2.4.6.2-1.2.5-2.4.8-3.6M-504.8,302c-1.3-.3-2.5-.7-3.7-1.1.1-.1.3-.2.4-.3.5-.3.9-.7,1.4-1.1.7.8,1.4,1.6,2,2.5M-509.3,296.6c.3.3.5.7.8,1-.8.8-1.5,1.7-2.3,2.5-1.1-.4-2.3-.7-3.4-1,.1-.8.2-1.5.4-2.3,1.3-.3,2.6-.7,3.9-1.1.2.3.4.6.6.9M-514.5,301.7c.6.2,1.1.4,1.7.5-.7.7-1.4,1.5-2.1,2.2.1-.9.3-1.9.4-2.8M-522.3,298.9c1.8.9,3.6,1.5,5.4,2.1-.3,2.5-.6,4.9-.9,7.3-.2,1.5,2.1,1.5,2.3,0,.1-1,.3-1.9.4-2.9,1.2-1,2.4-1.9,3.7-2.7,3,1.1,5.8,2.4,9,2.6,1,0,1.8-.9,1.5-1.9-.6-2.4-2.2-4.3-3.9-6.1,1.3-1.4,2.5-3,3.6-4.7.7-1.1-.5-2.3-1.6-1.8-1.7.8-3.5,1.4-5.4,2-1.2-2.1-2.3-4.4-4.1-6.2-.7-.7-2-.5-2.3.5-.7,2.5-1.2,5.1-1.7,7.8-2,.5-3.9,1-5.8,1.6-.9.3-1.4,1.7-.4,2.2"/>
        <path class="cls-3" d="M-198.4,290.8c.6,1,1.1,2,1.6,3-.8.2-1.6.4-2.4.6.2-1.2.5-2.4.8-3.6M-190.7,302c-1.3-.3-2.5-.7-3.7-1.1.1-.1.3-.2.4-.3.5-.3.9-.7,1.4-1.1.7.8,1.4,1.6,2,2.5M-195.1,296.6c.3.3.5.7.8,1-.8.8-1.5,1.7-2.3,2.5-1.1-.4-2.3-.7-3.4-1,.1-.8.2-1.5.4-2.3,1.3-.3,2.6-.7,3.9-1.1.2.3.4.6.6.9M-200.4,301.7c.6.2,1.1.4,1.7.5-.7.7-1.4,1.5-2.1,2.2.1-.9.3-1.9.4-2.8M-208.2,298.9c1.8.9,3.6,1.5,5.4,2.1-.3,2.5-.6,4.9-.9,7.3-.2,1.5,2.1,1.5,2.3,0,.2-1,.3-1.9.4-2.9,1.2-1,2.4-1.9,3.7-2.7,3,1.1,5.8,2.4,9,2.6,1,0,1.8-.9,1.5-1.9-.6-2.4-2.2-4.3-3.9-6.1,1.3-1.4,2.5-3,3.6-4.7.7-1.1-.5-2.3-1.6-1.8-1.7.8-3.5,1.4-5.4,2-1.2-2.1-2.3-4.4-4.1-6.2-.7-.7-2-.5-2.3.5-.7,2.5-1.2,5.1-1.7,7.8-2,.5-3.9,1-5.8,1.6-.9.3-1.4,1.7-.4,2.2"/>
        <path class="cls-3" d="M-361.9,290.8c.6,1,1.1,2,1.6,3-.8.2-1.6.4-2.4.6.2-1.2.5-2.4.8-3.6M-354.2,302c-1.3-.3-2.5-.7-3.7-1.1.1-.1.3-.2.4-.3.5-.3.9-.7,1.4-1.1.7.8,1.4,1.6,2,2.5M-358.6,296.6c.3.3.5.7.8,1-.8.8-1.5,1.7-2.3,2.5-1.1-.4-2.3-.7-3.4-1,.1-.8.2-1.5.4-2.3,1.3-.3,2.6-.7,3.9-1.1.2.3.4.6.6.9M-363.9,301.7c.6.2,1.1.4,1.7.5-.7.7-1.4,1.5-2.1,2.2.1-.9.3-1.9.4-2.8M-371.7,298.9c1.8.9,3.6,1.5,5.4,2.1-.3,2.5-.6,4.9-.9,7.3-.2,1.5,2.1,1.5,2.3,0,.2-1,.3-1.9.4-2.9,1.2-1,2.4-1.9,3.7-2.7,3,1.1,5.8,2.4,9,2.6,1,0,1.8-.9,1.5-1.9-.6-2.4-2.2-4.3-3.9-6.1,1.3-1.4,2.5-3,3.6-4.7.7-1.1-.5-2.3-1.6-1.8-1.7.8-3.5,1.4-5.4,2-1.2-2.1-2.3-4.4-4.1-6.2-.7-.7-2-.5-2.3.5-.7,2.5-1.2,5.1-1.7,7.8-2,.5-3.9,1-5.8,1.6-.9.3-1.4,1.7-.4,2.2"/>
        <path class="cls-3" d="M-361.9,329.4c.6,1,1.1,2,1.6,3-.8.2-1.6.4-2.4.6.2-1.2.5-2.4.8-3.6M-354.2,340.6c-1.3-.3-2.5-.7-3.7-1.1.1-.1.3-.2.4-.3.5-.3.9-.7,1.4-1.1.7.8,1.4,1.6,2,2.5M-358.6,335.2c.3.3.5.7.8,1-.8.8-1.5,1.7-2.3,2.5-1.1-.4-2.3-.7-3.4-1,.1-.8.2-1.5.4-2.3,1.3-.3,2.6-.7,3.9-1.1.2.3.4.6.6.9M-363.9,340.4c.6.2,1.1.4,1.7.5-.7.7-1.4,1.5-2.1,2.2.1-.9.3-1.9.4-2.8M-371.7,337.6c1.8.9,3.6,1.5,5.4,2.1-.3,2.5-.6,4.9-.9,7.3-.2,1.5,2.1,1.5,2.3,0,.2-1,.3-1.9.4-2.9,1.2-1,2.4-1.9,3.7-2.7,3,1.1,5.8,2.4,9,2.6,1,0,1.8-.9,1.5-1.9-.6-2.4-2.2-4.3-3.9-6.1,1.3-1.4,2.5-3,3.6-4.7.7-1.1-.5-2.3-1.6-1.8-1.7.8-3.5,1.4-5.4,2-1.2-2.1-2.3-4.4-4.1-6.2-.7-.7-2-.5-2.3.5-.7,2.5-1.2,5.1-1.7,7.8-2,.5-3.9,1-5.8,1.6-.9.3-1.4,1.7-.4,2.2"/>
        <path class="cls-3" d="M-679.6,285.3c-.1,1-.2,3-1.2,3.5-2.2,1.1-4.7,1.3-7.1,1.4-7.1.4-14.2.4-21.2-.1-4.2-.3-8.4-.5-12.6-.8-.2,0-.3,0-.5,0-5.5-.4-8.8-.6-10.1-.7-7-.5-12.7-.6-17-.4-1.4,0-2.8.2-4.2.3-.7,0-1.4.2-2.1.3-1.4.2-2.7.4-4.1.6-.4,0-.8.2-1.2.3-.2,0-.4,0-.6.2-.2,0-.4.1-.5,0,.2-.5.6-1,1-1.5.4-.5.8-.9,1.2-1.4,0,0,.2-.2.2-.2.9-.9,2.2-1.6,3.7-2.1,4.8-1.6,10.4-2.6,16.6-3,1.4,0,2.8-.1,4.3-.1,11.5-.1,20.8,0,28.2.5,5,.3,9.9.4,14.8.1,3.9-.2,7.4-.8,10.6-1.9.2,0,.3,0,.4-.2.8-.4,1.7-.6,2.6-.6.5,0,1,0,1.5,0-.4,1.5-1,2.9-1.8,4.1-.3.4-.5.9-.6,1.4"/>
      </g>
    </g>
  </g>
</svg>