<?xml version="1.0" encoding="UTF-8"?>
<svg xmlns="http://www.w3.org/2000/svg" version="1.1" viewBox="0 0 512 512">
  <defs>
    <style>
      .cls-1 {
        fill: #fff;
      }

      .cls-2 {
        opacity: .1;
      }

      .cls-2, .cls-3 {
        isolation: isolate;
      }

      .cls-3 {
        opacity: .2;
      }

      .cls-4 {
        fill: #87ccd1;
      }

      .cls-5 {
        fill: #ff82ab;
      }

      .cls-6 {
        fill: #94d1d6;
      }

      .cls-7 {
        fill: #ffcc61;
      }
    </style>
  </defs>
  <!-- Generator: Adobe Illustrator 28.7.1, SVG Export Plug-In . SVG Version: 1.2.0 Build 142)  -->
  <g>
    <g id="Capa_1">
      <path class="cls-5" d="M418.1,281.4h-192.1v-108.2h176.7c8.5,0,15.4,6.9,15.4,15.4v92.8Z"/>
      <path class="cls-7" d="M429.8,281.4H33.2c-14.2,0-25.7,11.5-25.7,25.7v60c0,14.2,11.5,25.7,25.7,25.7h447.4c19.7,0,30.9-22.5,19.1-38.3l-46.2-61.4c-5.6-7.4-14.4-11.8-23.7-11.8Z"/>
      <path class="cls-2" d="M47.1,367.1v-60c0-14.2,11.5-25.7,25.7-25.7h-39.6c-14.2,0-25.7,11.5-25.7,25.7v60c0,14.2,11.5,25.7,25.7,25.7h39.6c-14.2,0-25.7-11.5-25.7-25.7Z"/>
      <circle class="cls-5" cx="130.5" cy="392.8" r="77.6"/>
      <circle class="cls-3" cx="130.5" cy="392.8" r="34"/>
      <circle class="cls-5" cx="358.1" cy="392.8" r="77.6"/>
      <circle class="cls-3" cx="358.1" cy="392.8" r="34"/>
      <rect class="cls-4" x="47.1" y="105.6" width="178.9" height="175.8"/>
      <rect class="cls-2" x="47.1" y="105.6" width="178.9" height="29.8"/>
      <path class="cls-6" d="M237.9,41.6H35.2c-10.3,0-18.6,8.3-18.6,18.6v26.9c0,10.3,8.3,18.6,18.6,18.6h202.8c10.3,0,18.6-8.3,18.6-18.6v-26.9c0-10.3-8.3-18.6-18.6-18.6Z"/>
      <path class="cls-2" d="M49.8,87.1v-26.9c0-10.3,8.3-18.6,18.6-18.6h-33.2c-10.3,0-18.6,8.3-18.6,18.6v26.9c0,10.3,8.3,18.6,18.6,18.6h33.2c-10.3,0-18.6-8.3-18.6-18.6Z"/>
      <rect class="cls-7" x="316.9" y="107.7" width="72.7" height="65.5"/>
      <rect class="cls-2" x="316.9" y="107.7" width="72.7" height="22.5"/>
      <path class="cls-6" d="M396.3,107.7h-86c-6.5,0-11.7-5.2-11.7-11.7v-22.4c0-6.5,5.2-11.7,11.7-11.7h86c6.5,0,11.7,5.2,11.7,11.7v22.4c0,6.5-5.2,11.7-11.7,11.7Z"/>
      <path class="cls-2" d="M322.1,96v-22.4c0-6.5,5.2-11.7,11.7-11.7h-23.5c-6.5,0-11.7,5.2-11.7,11.7v22.4c0,6.5,5.2,11.7,11.7,11.7h23.5c-6.5,0-11.7-5.2-11.7-11.7Z"/>
      <circle class="cls-1" cx="136.6" cy="188" r="43"/>
      <rect class="cls-2" x="226" y="173.2" width="32.8" height="108.2"/>
      <path d="M358.1,351.3c-22.9,0-41.5,18.6-41.5,41.5s18.6,41.5,41.5,41.5,41.5-18.6,41.5-41.5-18.6-41.5-41.5-41.5ZM358.1,419.4c-14.6,0-26.5-11.9-26.5-26.5s11.9-26.5,26.5-26.5,26.5,11.9,26.5,26.5-11.9,26.5-26.5,26.5ZM130.5,351.3c-22.9,0-41.5,18.6-41.5,41.5s1.7,13.6,4.9,19.6c2,3.7,6.5,5,10.2,3.1,3.7-2,5-6.5,3.1-10.2-2.1-3.9-3.1-8.1-3.1-12.5,0-14.6,11.9-26.5,26.5-26.5s26.5,11.9,26.5,26.5-11.9,26.5-26.5,26.5-1.7,0-2.6-.1c-4.1-.4-7.8,2.6-8.2,6.8-.4,4.1,2.6,7.8,6.8,8.2,1.3.1,2.6.2,4,.2,22.9,0,41.5-18.6,41.5-41.5,0-22.9-18.6-41.5-41.5-41.5ZM187.1,188c0-27.9-22.7-50.5-50.5-50.5s-50.5,22.7-50.5,50.5,22.7,50.5,50.5,50.5,50.5-22.7,50.5-50.5ZM101,188c0-19.6,15.9-35.5,35.5-35.5s35.5,15.9,35.5,35.5-15.9,35.5-35.5,35.5-35.5-15.9-35.5-35.5ZM505.7,350.1l-46.2-61.4c-7-9.3-18.1-14.8-29.6-14.8h-4.1v-13.6c0-4.1-3.4-7.5-7.5-7.5s-7.5,3.4-7.5,7.5v13.6h-177.1v-93.2h169.2c4.4,0,7.9,3.6,7.9,7.9v33.3c0,4.1,3.4,7.5,7.5,7.5s7.5-3.4,7.5-7.5v-33.3c0-12.6-10.3-22.9-22.9-22.9h-5.6v-50.5c10.2-.4,18.4-8.9,18.4-19.2v-22.4c0-10.6-8.6-19.2-19.2-19.2h-86c-10.6,0-19.2,8.6-19.2,19.2v22.4c0,10.3,8.2,18.7,18.4,19.2v50.5h-75.9v-52.5h4.4c14.4,0,26.1-11.7,26.1-26.1v-26.9c0-14.4-11.7-26.1-26.1-26.1H35.2c-14.4,0-26.1,11.7-26.1,26.1v26.9c0,14.4,11.7,26.1,26.1,26.1h4.4v26.4c0,4.1,3.4,7.5,7.5,7.5s7.5-3.4,7.5-7.5v-26.4h163.9v160.8H54.6v-91.7c0-4.1-3.4-7.5-7.5-7.5s-7.5,3.4-7.5,7.5v91.7h-6.4c-18.3,0-33.2,14.9-33.2,33.2v60c0,18.3,14.9,33.2,33.2,33.2h12.6c3.8,43.4,40.3,77.6,84.7,77.6s80.9-34.2,84.7-77.6h58.1c3.8,43.4,40.3,77.6,84.7,77.6s80.9-34.2,84.7-77.6h37.8c12,0,22.7-6.7,28.1-17.4,5.3-10.7,4.2-23.3-3-32.9ZM382.1,165.7h-57.7v-50.5h57.7v50.5ZM306,96v-22.4c0-2.3,1.9-4.2,4.2-4.2h86c2.3,0,4.2,1.9,4.2,4.2v22.4c0,2.3-1.9,4.2-4.2,4.2h-86c-2.3,0-4.2-1.9-4.2-4.2ZM35.2,98.1c-6.1,0-11.1-5-11.1-11.1v-26.9c0-6.1,5-11.1,11.1-11.1h202.8c6.1,0,11.1,5,11.1,11.1v26.9c0,6.1-5,11.1-11.1,11.1H35.2ZM130.5,462.9c-38.6,0-70.1-31.4-70.1-70.1s31.4-70.1,70.1-70.1,70.1,31.4,70.1,70.1c0,38.6-31.4,70.1-70.1,70.1ZM358.1,462.9c-38.6,0-70.1-31.4-70.1-70.1s31.4-70.1,70.1-70.1,70.1,31.4,70.1,70.1-31.4,70.1-70.1,70.1ZM495.2,376.3c-2.8,5.7-8.3,9.1-14.7,9.1h-37.8c-3.8-43.4-40.3-77.6-84.7-77.6s-80.9,34.2-84.7,77.6h-58.1c-3.8-43.4-40.3-77.6-84.7-77.6s-80.9,34.2-84.7,77.6h-12.6c-10,0-18.2-8.2-18.2-18.2v-60c0-10,8.2-18.2,18.2-18.2h396.6c6.9,0,13.5,3.3,17.7,8.8l46.2,61.4c3.8,5.1,4.4,11.5,1.6,17.2Z"/>
    </g>
  </g>
</svg>